<?xml version="1.0" encoding="UTF-8"?>
<svg version="1.1" xmlns="http://www.w3.org/2000/svg" width="512" height="512">
<path d="M0 0 C0.87543921 -0.00367669 1.75087842 -0.00735338 2.6528461 -0.01114148 C5.60383601 -0.02220708 8.55479075 -0.02602702 11.50579834 -0.02983093 C13.61455905 -0.0360934 15.72331865 -0.04274001 17.83207703 -0.04974365 C23.57391003 -0.06717331 29.3157347 -0.07771072 35.05758762 -0.08594918 C38.6426896 -0.09109506 42.22778896 -0.09717097 45.8128891 -0.10346031 C57.02341221 -0.12251767 68.23392872 -0.13674778 79.44446492 -0.14507228 C92.39705813 -0.1548484 105.34948061 -0.18117553 118.30201364 -0.22157317 C128.30546346 -0.25170522 138.30886428 -0.26653838 148.31235862 -0.26985329 C154.29073638 -0.27220706 160.26893186 -0.28121007 166.24726105 -0.30631447 C171.87135136 -0.32954922 177.49513879 -0.33384684 183.1192646 -0.32355309 C185.18405475 -0.3230565 187.24885957 -0.32941293 189.31360435 -0.34310913 C192.13187924 -0.36075839 194.94905898 -0.35375613 197.76733398 -0.34057617 C198.99390288 -0.35703004 198.99390288 -0.35703004 200.24525094 -0.37381631 C205.50786978 -0.31437 208.44001782 0.703619 212.63763428 4.14717102 C217.66601044 9.53253089 217.18201905 14.96810028 217.09173584 21.93574524 C217.09231995 23.11680344 217.09290405 24.29786163 217.09350586 25.51470947 C217.09120278 28.73973821 217.07119527 31.96406537 217.04321003 35.18895483 C217.0181408 38.56416598 217.01585005 41.93939212 217.0111084 45.31468201 C216.99869473 51.70011314 216.96589527 58.0852691 216.92571044 64.47057927 C216.88094233 71.74260881 216.85899308 79.01465176 216.8389287 86.28678489 C216.79716093 101.24040003 216.72684056 116.19375796 216.63763428 131.14717102 C217.95763428 131.14717102 219.27763428 131.14717102 220.63763428 131.14717102 C220.70079834 130.61092102 220.7639624 130.07467102 220.82904053 129.52217102 C224.6363188 105.15559008 241.90299923 82.74282584 260.73138428 67.67060852 C285.62087716 49.74278073 315.74344365 41.54517101 346.24359131 45.92085266 C376.10120301 50.96015635 402.6624256 66.8070662 420.45013428 91.45967102 C428.16785501 103.22742502 433.72543948 115.64378899 437.63763428 129.14717102 C438.02435303 130.46201477 438.02435303 130.46201477 438.41888428 131.80342102 C439.74546443 136.90028161 439.88012194 140.99972214 438.63763428 146.14717102 C436.70013428 148.14717102 436.70013428 148.14717102 434.63763428 149.14717102 C433.97763428 149.14717102 433.31763428 149.14717102 432.63763428 149.14717102 C432.67072476 152.21255315 432.73797669 155.27074654 432.82513428 158.33467102 C432.83093506 159.19898743 432.83673584 160.06330383 432.8427124 160.95381165 C433.05192541 167.02098873 434.15485904 168.89318176 438.63763428 173.14717102 C439.32815166 178.38153943 438.14160564 183.0897126 436.63763428 188.08467102 C436.30868164 189.18512756 436.30868164 189.18512756 435.9730835 190.30781555 C433.42973912 198.38392813 429.76413814 205.77535443 425.63763428 213.14717102 C425.08204834 214.1449054 424.5264624 215.14263977 423.95404053 216.17060852 C419.44650985 223.71558793 413.70316796 229.85531146 407.63763428 236.14717102 C407.0420874 236.80588196 406.44654053 237.4645929 405.83294678 238.14326477 C393.43247298 251.49999401 374.98145033 260.36900713 357.63763428 265.14717102 C356.97763428 265.14717102 356.31763428 265.14717102 355.63763428 265.14717102 C355.61185303 266.28670227 355.58607178 267.42623352 355.55950928 268.60029602 C355.07408701 283.7080562 353.459341 299.1321662 347.17669678 313.05342102 C346.46039245 315.1277322 346.46039245 315.1277322 347.16107178 317.11592102 C348.84166573 319.4278492 350.83808058 321.03938272 353.06390381 322.81221008 C361.94811184 330.34848832 367.53675823 341.46529867 371.63763428 352.14717102 C372.07204834 353.27123352 372.5064624 354.39529602 372.95404053 355.55342102 C379.21795863 374.9344638 376.98999943 397.05723125 368.51263428 415.33467102 C358.23137443 434.58189095 342.07039971 449.69704467 321.01263428 456.14717102 C304.2071776 461.10749789 285.14215124 461.33368905 268.63763428 455.14717102 C267.81907959 454.84681946 267.0005249 454.5464679 266.15716553 454.23701477 C263.9067073 453.31691592 261.78827135 452.28086937 259.63763428 451.14717102 C258.70564209 450.66635071 257.7736499 450.1855304 256.81341553 449.69013977 C239.45856181 440.2016346 227.61878489 425.47269139 220.63763428 407.14717102 C220.24085877 405.15878466 219.88382217 403.15975708 219.63763428 401.14717102 C218.71466553 401.19357727 217.79169678 401.23998352 216.84075928 401.28779602 C193.14106891 401.94351868 166.86262126 394.80702768 147.43060303 380.84248352 C144.92447126 378.97434767 144.92447126 378.97434767 142.83148193 379.20210266 C139.52540587 380.62629813 137.25229547 383.06471459 134.74310303 385.57295227 C134.19149002 386.11695175 133.63987701 386.66095123 133.07154846 387.22143555 C131.9104396 388.37175575 130.75326547 389.52605939 129.59979248 390.68403625 C127.82781674 392.45698708 126.03557779 394.20753011 124.2411499 395.9577179 C123.11550284 397.07816007 121.99110929 398.19986328 120.86810303 399.32295227 C120.32864548 399.84601456 119.78918793 400.36907684 119.23338318 400.9079895 C117.56733232 402.54736757 117.56733232 402.54736757 115.63763428 405.14717102 C115.6582375 407.36956986 115.6582375 407.36956986 116.63763428 409.14717102 C116.87591553 411.22529602 116.87591553 411.22529602 116.95013428 413.39717102 C117.0062085 414.4567804 117.0062085 414.4567804 117.06341553 415.53779602 C115.82257216 423.14223058 110.93350508 428.43094909 105.60638428 433.63935852 C104.93345337 434.31137299 104.26052246 434.98338745 103.56719971 435.67576599 C102.15319355 437.0837667 100.73436645 438.48694103 99.31097412 439.88545227 C97.13341046 442.02632366 94.97245812 444.1829508 92.81341553 446.34248352 C91.43284791 447.71322539 90.05136874 449.08304993 88.66888428 450.45185852 C88.02399048 451.09452667 87.37909668 451.73719482 86.71466064 452.39933777 C86.10723022 452.99400848 85.4997998 453.5886792 84.8739624 454.20137024 C84.0793158 454.98458145 84.0793158 454.98458145 83.26861572 455.78361511 C81.44269093 457.31015028 79.87300477 458.31793919 77.63763428 459.14717102 C76.46200928 458.79654602 75.28638428 458.44592102 74.07513428 458.08467102 C70.62555708 457.52387019 69.63304582 458.15030253 66.67279053 460.17060852 C60.99509305 465.1028761 60.99509305 465.1028761 58.18450928 471.82685852 C58.31540976 473.442976 58.48779332 475.05652778 58.71063232 476.66255188 C58.61818224 479.80925607 57.81447741 480.6512907 55.67279053 482.90888977 C55.02938721 483.59732971 54.38598389 484.28576965 53.7230835 484.99507141 C52.69078613 486.06036072 52.69078613 486.06036072 51.63763428 487.14717102 C50.6420752 488.20569275 50.6420752 488.20569275 49.62640381 489.28559875 C47.55121228 491.47381544 45.44303002 493.6253159 43.32513428 495.77217102 C42.62968506 496.49662415 41.93423584 497.22107727 41.2177124 497.96748352 C33.21985555 506.06064022 24.26829276 512.28143797 12.57293701 512.52754211 C1.16061793 512.49949262 -7.8914182 510.31935068 -16.36236572 502.14717102 C-23.6021098 493.87525459 -27.06214049 484.63707314 -26.64361572 473.61592102 C-25.21138458 461.04411433 -18.12786884 452.44773811 -9.40093994 443.81343079 C-8.62620331 443.03504349 -7.85146667 442.25665619 -7.05325317 441.4546814 C-4.51516675 438.90855192 -1.96647588 436.37335175 0.58294678 433.83857727 C2.35891994 432.06312323 4.13437384 430.28714964 5.90933228 428.51068115 C10.09175065 424.32836362 14.28146933 420.15346409 18.47418869 415.98147577 C22.29289344 412.18034974 26.10244041 408.37015566 29.90959561 404.55746609 C34.04076092 400.42060422 38.17762746 396.2894914 42.31719589 392.16103935 C44.07362968 390.40845585 45.82871566 388.65452051 47.58243179 386.89921761 C50.02839169 384.45288758 52.48073583 382.01314695 54.93499756 379.57514954 C55.65924927 378.84842041 56.38350098 378.12169128 57.12969971 377.37294006 C57.79965973 376.71006485 58.46961975 376.04718964 59.15988159 375.36422729 C59.73834902 374.78781274 60.31681644 374.21139818 60.91281319 373.61751652 C64.06038537 370.93432891 65.87165467 370.09436373 70.05145264 370.38252258 C70.69087296 370.45315918 71.33029327 370.52379578 71.98908997 370.59657288 C77.34519502 371.09597178 81.81591326 371.11495882 86.30218506 367.87568665 C89.28203953 365.35382937 91.96367774 362.57852925 94.58074951 359.68574524 C96.21983389 357.87541324 97.91112622 356.12977641 99.62005615 354.38545227 C100.69310585 353.26237776 101.76290008 352.13618161 102.82904053 351.00654602 C103.33085342 350.48034668 103.83266632 349.95414734 104.34968567 349.41200256 C106.97032829 346.61750285 106.97032829 346.61750285 107.55413818 342.99116516 C105.99515154 339.85450397 104.23244652 336.8469992 102.45013428 333.83467102 C96.73959423 323.91069377 92.67671658 313.91030586 89.55096436 302.89179993 C89.19222733 301.62929413 88.8334903 300.36678833 88.46388245 299.06602478 C88.19122055 298.10280304 87.91855865 297.1395813 87.63763428 296.14717102 C86.46301132 296.14352539 85.28838837 296.13987976 84.07817078 296.13612366 C72.99892887 296.09915421 61.9199644 296.04135992 50.8409338 295.96326828 C45.1453074 295.92378891 39.44983572 295.89160252 33.75408936 295.87617493 C28.25554318 295.86101162 22.75742235 295.82657122 17.25906563 295.778862 C15.16320051 295.76404496 13.06727467 295.75612982 10.97135735 295.75528717 C8.0314507 295.7529168 5.09271881 295.72583071 2.15301514 295.69306946 C1.28986191 295.69809982 0.42670868 295.70313019 -0.46260071 295.70831299 C-6.24213105 295.60891525 -9.71781 294.68492609 -14.36236572 291.14717102 C-18.75125756 285.16456391 -18.93095309 280.26172145 -18.86357117 272.98162842 C-18.87187276 271.30679236 -18.87187276 271.30679236 -18.88034207 269.59812123 C-18.89394309 265.8609074 -18.87898148 262.12436201 -18.86407471 258.38716125 C-18.86785806 255.70622425 -18.87320574 253.02533175 -18.88044739 250.34440613 C-18.8943668 243.82141625 -18.88683358 237.2986202 -18.8717718 230.77563959 C-18.85489663 223.17763763 -18.85812383 215.57968375 -18.86186589 207.98166884 C-18.86774198 194.42457378 -18.85358221 180.86757167 -18.82891846 167.3105011 C-18.80499367 154.15812192 -18.79791636 141.00586688 -18.80841064 127.85346985 C-18.81982156 113.52662934 -18.82174814 99.19984622 -18.80731255 84.8730064 C-18.80578673 83.3451885 -18.80426637 81.8173706 -18.80275154 80.28955269 C-18.80161482 79.16201331 -18.80161482 79.16201331 -18.80045513 78.01169537 C-18.79571402 72.71648205 -18.79756249 67.42129439 -18.80181694 62.12608147 C-18.80674504 55.67308422 -18.80075277 49.22020429 -18.78092264 42.7672339 C-18.77105548 39.47531694 -18.76754939 36.18361498 -18.77381516 32.89168358 C-18.77975685 29.32284043 -18.76728338 25.7545255 -18.75004578 22.18572998 C-18.75605582 21.14575298 -18.76206587 20.10577598 -18.76825804 19.03428453 C-18.72092957 13.65878525 -18.43920384 9.76380483 -15.36236572 5.14717102 C-10.15321954 0.44623422 -6.83507025 -0.00152441 0 0 Z " fill="#010101" transform="translate(49.36236572265625,-0.1471710205078125)"/>
<path d="M0 0 C1.81854492 -0.01836914 1.81854492 -0.01836914 3.67382812 -0.03710938 C14.38442594 -0.05433822 24.49721671 0.95953405 34.5 4.9375 C35.17772461 5.20135498 35.85544922 5.46520996 36.55371094 5.73706055 C61.5299962 15.69974427 80.51981008 34.44456329 91.1953125 58.9921875 C93.90725812 65.96819857 96.03858282 73.04847511 97.5625 80.375 C98.08196062 84.18597004 98.08196062 84.18597004 100.4375 86.1875 C102.0875 86.5175 103.7375 86.8475 105.4375 87.1875 C105.4375 94.1175 105.4375 101.0475 105.4375 108.1875 C101.9725 109.1775 101.9725 109.1775 98.4375 110.1875 C96.34810588 112.94142921 95.9470596 116.08787133 95.25 119.4375 C89.42497679 143.41083672 73.83525596 164.22055431 53.0625 177.375 C41.25848086 184.3377394 29.66224429 187.96467656 16.4375 191.1875 C15.78144775 191.36853271 15.12539551 191.54956543 14.44946289 191.73608398 C-3.68618048 195.80510529 -25.28870832 190.32439584 -41.5625 182.1875 C-48.03957493 182.29803326 -54.24443748 184.00636962 -60.4375 185.75 C-62.10063663 186.21297438 -63.76466672 186.67275439 -65.4296875 187.12890625 C-66.15269043 187.33201416 -66.87569336 187.53512207 -67.62060547 187.74438477 C-69.5625 188.1875 -69.5625 188.1875 -72.5625 188.1875 C-71.89609275 182.45639764 -70.58724644 176.96555637 -69.18359375 171.37109375 C-68.53669385 168.05522321 -68.11169659 165.54445354 -68.5625 162.1875 C-70.15890853 159.86918614 -71.70981934 157.89971635 -73.5625 155.8125 C-83.03267593 144.43821098 -88.57207382 131.35593629 -92.5625 117.1875 C-92.80871094 116.31480469 -93.05492187 115.44210938 -93.30859375 114.54296875 C-97.80613014 94.84686109 -94.37325954 73.15261416 -85.5625 55.1875 C-84.79099609 53.58648437 -84.79099609 53.58648437 -84.00390625 51.953125 C-80.05815928 44.18920718 -75.39170812 37.64298668 -69.5625 31.1875 C-68.81355469 30.34445313 -68.06460937 29.50140625 -67.29296875 28.6328125 C-49.74653364 9.95153333 -25.37590702 0.013196 0 0 Z " fill="#FDCF5A" transform="translate(376.5625,60.8125)"/>
<path d="M0 0 C56.1 0 112.2 0 170 0 C170 38.94 170 77.88 170 118 C163.73 119.32 157.46 120.64 151 122 C134.07748287 127.68389888 119.10988643 135.05144256 105 146 C104.43651855 146.41830078 103.87303711 146.83660156 103.29248047 147.26757812 C100.11044223 149.68579269 100.11044223 149.68579269 98.2734375 153.1328125 C98.43654543 156.33223727 98.61475545 158.51103577 100.625 161.0625 C103.87468489 162.34527035 105.62697194 161.88009834 109 161 C111.9637937 159.0336208 111.9637937 159.0336208 114.875 156.5 C135.34365998 140.00598163 159.83820092 131.75084001 186 132 C186 137.28 186 142.56 186 148 C183.380625 148.226875 180.76125 148.45375 178.0625 148.6875 C151.38878934 151.47692357 126.34639768 164.3889713 109 185 C91.2179876 207.53410192 83.26637183 234.40698322 86 263 C89.83117188 289.80920982 102.62781176 315.17687179 124.21875 331.9765625 C143.09096614 345.70662986 162.16628462 351.94723153 185 355 C185 359.95 185 364.9 185 370 C154.59130011 371.44803333 127.42630572 358.02010473 105.21875 338.0625 C85.14624204 319.36612143 70.60368534 290.41845078 68.79516602 262.88110352 C68.69658148 259.56359584 68.67110032 256.25641535 68.6875 252.9375 C68.69487183 251.16294434 68.69487183 251.16294434 68.70239258 249.35253906 C68.99892831 226.98614118 74.77665075 206.30146806 86.71484375 187.265625 C88.55603703 184.01975234 88.47403486 181.65684034 88 178 C85.87346639 175.55842438 84.64765539 175.06318589 81.4375 174.75 C78.86312853 174.92463247 78.86312853 174.92463247 76 176 C75.27408654 177.64172832 74.62234262 179.31628034 74 181 C72.99942169 182.80959987 71.9973139 184.61842544 70.97875977 186.41796875 C56.99830086 211.37617548 55.10332074 235.31366064 54 264 C36.18 264 18.36 264 0 264 C0 253.77 0 243.54 0 233 C4.47820312 232.96132813 4.47820312 232.96132813 9.046875 232.921875 C11.9395489 232.88345813 14.83204433 232.83829673 17.72460938 232.79248047 C19.73428827 232.76426193 21.74407834 232.74305179 23.75390625 232.72900391 C26.64380849 232.70758665 29.5323729 232.66094297 32.421875 232.609375 C33.76895538 232.60753204 33.76895538 232.60753204 35.14324951 232.60565186 C40.19553972 232.5113158 40.19553972 232.5113158 44.55957031 230.14941406 C46.19637431 227.9979004 46.19637431 227.9979004 46.625 225 C46.27337529 221.80392433 46.27337529 221.80392433 43.54443359 219.85058594 C39.05679498 217.50754277 35.6464964 217.39787823 30.6640625 217.390625 C29.78471039 217.37408875 28.90535828 217.35755249 27.99935913 217.34051514 C25.20783408 217.29217086 22.41685324 217.27069465 19.625 217.25 C17.72523324 217.22182892 15.82549168 217.1918999 13.92578125 217.16015625 C9.283899 217.08641566 4.64231645 217.03675827 0 217 C0 212.38 0 207.76 0 203 C2.18725708 202.99383667 2.18725708 202.99383667 4.41870117 202.98754883 C9.83295963 202.96576397 15.24649071 202.9114798 20.66040039 202.84741211 C23.00277735 202.82422668 25.34525864 202.80983514 27.68774414 202.80444336 C31.05681416 202.79515824 34.42424191 202.7541743 37.79296875 202.70703125 C39.36198189 202.71293022 39.36198189 202.71293022 40.96269226 202.71894836 C45.75830464 202.62288788 48.23129062 202.55572956 52.20043945 199.6862793 C54.3420545 197.02829164 54.3420545 197.02829164 54 193.3125 C53.30616669 189.74460887 53.30616669 189.74460887 50 188 C47.67839328 187.67277829 47.67839328 187.67277829 45.06958008 187.68115234 C44.06876907 187.66128265 43.06795807 187.64141296 42.03681946 187.62094116 C40.95861435 187.60938995 39.88040924 187.59783875 38.76953125 187.5859375 C37.66397385 187.56657135 36.55841644 187.5472052 35.4193573 187.5272522 C31.88381699 187.46741164 28.34824421 187.4210527 24.8125 187.375 C22.41730341 187.33682438 20.0221206 187.2977729 17.62695312 187.2578125 C11.7514139 187.16170625 5.87581041 187.07769145 0 187 C0 182.05 0 177.1 0 172 C1.9480957 171.98018066 3.89619141 171.96036133 5.90332031 171.93994141 C12.34152291 171.87215655 18.77956919 171.79538012 25.21759415 171.71247292 C29.12077534 171.66253781 33.02392984 171.61620763 36.92724609 171.578125 C40.69452336 171.54123683 44.46157576 171.49486748 48.22866058 171.44193649 C49.66551517 171.42341127 51.10241793 171.40829637 52.53934479 171.39665604 C54.55269323 171.37976235 56.56591701 171.34959317 58.57910156 171.31884766 C59.72493713 171.30552399 60.87077271 171.29220032 62.05133057 171.2784729 C64.92999352 171.00661143 66.60948819 170.59023447 69 169 C70.39935013 166.20129973 70.25265405 164.09501208 70 161 C68.45493534 158.96332385 67.27853844 158.13926922 65 157 C62.93776648 156.87951849 60.87171371 156.82259073 58.80615234 156.79467773 C57.50495453 156.77473251 56.20375671 156.75478729 54.86312866 156.73423767 C53.4373995 156.71725327 52.01166907 156.70037447 50.5859375 156.68359375 C49.13147387 156.66302479 47.67701623 156.64202834 46.2225647 156.62062073 C42.39213912 156.56539396 38.56165955 156.5159874 34.73114014 156.46777344 C30.8233153 156.4175628 26.915569 156.36187446 23.0078125 156.30664062 C15.33860628 156.19905164 7.66933436 156.09811448 0 156 C0 150.72 0 145.44 0 140 C1.15622864 139.99635437 2.31245728 139.99270874 3.50372314 139.98895264 C14.39259331 139.95203403 25.28117985 139.89429571 36.16983414 139.81609726 C41.76801996 139.77656428 47.36604711 139.74440433 52.96435547 139.72900391 C58.36563507 139.71387573 63.76647861 139.67949842 69.16756439 139.63169098 C71.22962405 139.61683753 73.29174596 139.60895672 75.35385895 139.60811615 C78.23931029 139.60575667 81.12354652 139.57875931 84.00878906 139.54589844 C84.86402664 139.5509288 85.71926422 139.55595917 86.60041809 139.56114197 C90.42179838 139.49367353 92.37394073 139.45824176 95.52288818 137.15338135 C97.20013844 135.00489735 97.20013844 135.00489735 97.625 132 C97.2737685 128.8000794 97.2737685 128.8000794 94.52560425 126.84661865 C90.10618967 124.53184569 86.87050708 124.4243494 81.96533203 124.45410156 C80.63265541 124.43859505 80.63265541 124.43859505 79.27305603 124.42277527 C76.35112212 124.39339586 73.42988237 124.39184912 70.5078125 124.390625 C68.47613203 124.37564008 66.44446372 124.35891228 64.41281128 124.34051514 C59.07649164 124.29686454 53.74033632 124.2768475 48.40386963 124.26177979 C42.95404351 124.24220054 37.50439463 124.20023139 32.0546875 124.16015625 C21.36984637 124.08487885 10.68504496 124.03457232 0 124 C0 119.05 0 114.1 0 109 C1.70524338 108.99635437 3.41048676 108.99270874 5.16740417 108.98895264 C21.22128014 108.95204507 37.27495729 108.89455647 53.32868481 108.81609726 C61.58248915 108.77628766 69.83619789 108.74390497 78.09008789 108.72900391 C85.28418234 108.71599729 92.47806659 108.68905815 99.67204267 108.64538693 C103.48125995 108.62274958 107.29021777 108.60709066 111.09950829 108.60811615 C114.68573433 108.60886144 118.27138632 108.59096431 121.85746384 108.55883217 C123.79950224 108.54626533 125.7416369 108.55340744 127.68370056 108.56114197 C128.84331299 108.54722916 130.00292542 108.53331635 131.19767761 108.51898193 C132.70619183 108.51345118 132.70619183 108.51345118 134.24518108 108.50780869 C137.78975976 107.85441988 139.48014416 106.54039593 142 104 C142.75011367 100.45728358 142.75011367 100.45728358 142 97 C138.93497018 93.912555 136.53519511 93.62061452 132.27996826 93.60127258 C130.52999039 93.58246536 130.52999039 93.58246536 128.74465942 93.5632782 C127.46863861 93.56471329 126.1926178 93.56614838 124.87792969 93.56762695 C123.517742 93.55860876 122.15756245 93.5482814 120.7973938 93.53674316 C117.10764426 93.50915337 113.41804883 93.49988602 109.7282095 93.49388909 C105.87109196 93.48451053 102.01408978 93.45830758 98.15704346 93.43388367 C90.85442707 93.39020066 83.55183304 93.3616648 76.24912572 93.33856028 C67.93473551 93.31151823 59.62046124 93.26760614 51.30615377 93.22227156 C34.20416003 93.1293995 17.1021452 93.05832894 0 93 C0 87.72 0 82.44 0 77 C3.61195312 76.90912109 3.61195312 76.90912109 7.296875 76.81640625 C9.6334939 76.7545669 11.97006673 76.69119993 14.30664062 76.62768555 C15.92834357 76.58442069 17.55008958 76.54273972 19.171875 76.50268555 C21.50534027 76.44477786 23.83859043 76.38114302 26.171875 76.31640625 C26.89493835 76.29969376 27.61800171 76.28298126 28.36297607 76.26576233 C31.69890556 76.16797351 34.80554016 76.0154335 38 75 C38.3042656 73.59013562 38.56720908 72.17131189 38.8125 70.75 C38.96332031 69.96109375 39.11414063 69.1721875 39.26953125 68.359375 C39.21857957 65.80196334 39.21857957 65.80196334 36.97851562 63.890625 C33.30112324 61.55638511 30.29801754 61.39785373 26.07421875 61.390625 C25.32662796 61.37408875 24.57903717 61.35755249 23.80879211 61.34051514 C21.43494348 61.29216077 19.06173478 61.27069364 16.6875 61.25 C15.07223365 61.22182957 13.45699694 61.19190063 11.84179688 61.16015625 C7.89424059 61.08311098 3.94868283 61.04248179 0 61 C0 55.72 0 50.44 0 45 C2.5799881 44.99453156 2.5799881 44.99453156 5.21209717 44.98895264 C21.39872918 44.95205742 37.58516378 44.8945829 53.77164841 44.81609726 C62.09386268 44.77627417 70.41598195 44.74389836 78.73828125 44.72900391 C85.99132901 44.71600426 93.24416801 44.68908305 100.49709821 44.64538693 C104.33814131 44.62273383 108.17892658 44.6070916 112.02004242 44.60811615 C115.63499112 44.60886052 119.24936903 44.59100084 122.86417007 44.55883217 C124.82429291 44.54624293 126.78451139 44.55341462 128.74465942 44.56114197 C129.91131134 44.54722916 131.07796326 44.53331635 132.27996826 44.51898193 C133.29394054 44.51529476 134.30791283 44.51160759 135.35261154 44.50780869 C138.72557043 43.86082474 139.9107121 42.67760115 142 40 C142.83333333 37 142.83333333 37 142 34 C136.4974916 28.65350246 130.13642494 29.4247194 122.83447266 29.45410156 C121.49369104 29.44535973 120.15291985 29.43487181 118.81216431 29.42277527 C115.18445273 29.3949687 111.55708246 29.39150938 107.9292798 29.39249516 C104.13355184 29.38936142 100.33797655 29.36373366 96.54232788 29.34051514 C89.36017153 29.29998677 82.1781059 29.27962191 74.99585283 29.26654124 C66.81682794 29.25066044 58.63795719 29.2122403 50.45902181 29.17194796 C33.63937014 29.08959223 16.81981805 29.03844833 0 29 C0 19.43 0 9.86 0 0 Z " fill="#F7F1EF" transform="translate(81,15)"/>
<path d="M0 0 C11.55 0 23.1 0 35 0 C35 9.57 35 19.14 35 29 C41.13263428 28.9685791 41.13263428 28.9685791 47.38916016 28.93652344 C60.88797511 28.87028382 74.38678754 28.82587294 87.88572121 28.79275131 C96.07119663 28.77213288 104.25651799 28.74402614 112.44189453 28.69824219 C119.57692645 28.65835227 126.7118468 28.63256196 133.84698713 28.62364602 C137.62445666 28.61843487 141.401607 28.60620215 145.17897415 28.57707977 C148.73635388 28.54987632 152.29328373 28.54156476 155.8507576 28.54756927 C157.77481074 28.54594869 159.69881517 28.5244516 161.6227417 28.50231934 C168.73513102 28.53625089 172.86682481 28.86682481 178 34 C178.50429795 37.69818494 178.32347648 39.49126578 176.30378723 42.66764832 C171.8936996 46.76883204 165.3807108 45.64697215 159.7644043 45.56762695 C158.4040787 45.56621581 157.04374929 45.56700975 155.6834259 45.56983948 C151.99755414 45.57127253 148.31249797 45.5419021 144.62681556 45.50696969 C140.77247755 45.47568694 136.91812029 45.47277396 133.06367493 45.46684265 C125.76797208 45.45130975 118.47264441 45.4102891 111.17710668 45.3600952 C102.87006764 45.30418424 94.56301056 45.27671088 86.25583017 45.25161803 C69.17033041 45.19937248 52.08521923 45.11043272 35 45 C35 50.28 35 55.56 35 61 C38.57714844 60.91298828 38.57714844 60.91298828 42.2265625 60.82421875 C44.54993366 60.7851656 46.87326752 60.75483994 49.19677734 60.7253418 C50.80501818 60.70027872 52.41314602 60.66621829 54.02099609 60.62280273 C56.33980239 60.56178152 58.65709665 60.53371037 60.9765625 60.51171875 C61.68930328 60.48591232 62.40204407 60.4601059 63.13638306 60.43351746 C66.99613457 60.43137464 69.4719836 60.98540906 72.46240234 63.33911133 C75 66 75 66 75.625 69.0625 C74.87539823 72.58562834 73.78875524 73.78540025 71 76 C67.93405406 77.53297297 64.72888147 77.12131455 61.3671875 77.09765625 C60.61535187 77.0962413 59.86351624 77.09482635 59.08889771 77.09336853 C56.6842249 77.08776465 54.27964473 77.07521157 51.875 77.0625 C50.24609509 77.0574855 48.61718873 77.0529225 46.98828125 77.04882812 C42.99212298 77.03864424 38.99616535 77.01906972 35 77 C35 82.28 35 87.56 35 93 C36.71777145 92.99111755 38.43554291 92.98223511 40.20536804 92.9730835 C56.37682162 92.89207204 72.54822609 92.83182997 88.71983624 92.79275131 C97.03425432 92.77212554 105.34852093 92.74400476 113.6628418 92.69824219 C120.90956546 92.65837475 128.15617943 92.63256729 135.40300971 92.62364602 C139.24024873 92.61843106 143.07717392 92.60617409 146.91431236 92.57707977 C150.52667917 92.54991188 154.13860313 92.5415576 157.75106239 92.54756927 C159.70751215 92.54594565 161.66391377 92.52442996 163.62023926 92.50231934 C165.37227913 92.51056732 165.37227913 92.51056732 167.15971375 92.51898193 C168.67928948 92.51345118 168.67928948 92.51345118 170.22956371 92.50780869 C173.79016508 93.14037947 175.4665901 94.45864625 178 97 C178.6875 100.4375 178.6875 100.4375 178 104 C175.26133358 107.32339912 173.54247112 108.74815086 169.26053238 109.44729042 C165.74480309 109.617363 162.26225203 109.61786138 158.74267578 109.56762695 C157.39205478 109.56621535 156.04142994 109.56701066 154.69081116 109.56983948 C151.03598561 109.57127071 147.38198499 109.54192984 143.72735071 109.50696969 C139.90371571 109.47565655 136.08006058 109.47277157 132.25631714 109.46684265 C125.02085297 109.45131866 117.78576774 109.41031012 110.55047023 109.3600952 C102.3111219 109.30415646 94.07175522 109.2767039 85.83226418 109.25161803 C68.88795095 109.19939267 51.94403007 109.1104686 35 109 C35 113.95 35 118.9 35 124 C36.12673126 123.99111755 37.25346252 123.98223511 38.41433716 123.9730835 C49.03746821 123.89196446 59.66053633 123.83201856 70.28390694 123.79275131 C75.74539228 123.77188485 81.20662741 123.74358401 86.66796875 123.69824219 C91.93939546 123.65475144 97.21058163 123.63085581 102.48217392 123.62049103 C104.49241802 123.6131055 106.5026491 123.59868325 108.51279068 123.57707977 C111.3305929 123.5480031 114.1474037 123.54404581 116.96533203 123.54589844 C117.79467758 123.53151733 118.62402313 123.51713623 119.47850037 123.50231934 C125.31479748 123.54378503 128.77778824 124.77778824 133 129 C133.52628526 132.85942525 133.37633224 134.48632499 131.04560852 137.66764832 C126.90040031 140.84208235 123.9767228 140.67488588 118.89526367 140.56762695 C117.98745148 140.56835709 117.07963928 140.56908722 116.14431763 140.56983948 C113.15158794 140.56636336 110.16042564 140.52750083 107.16796875 140.48828125 C105.09004059 140.47895322 103.01210142 140.47183706 100.93415833 140.46684265 C95.47093223 140.44777222 90.00837312 140.39867041 84.54541016 140.34332275 C78.96851626 140.29213162 73.39151436 140.26932886 67.81445312 140.24414062 C56.87600939 140.19055222 45.93806021 140.10523836 35 140 C35 145.28 35 150.56 35 156 C36.94285889 155.98428955 38.88571777 155.9685791 40.88745117 155.95239258 C47.31353175 155.90397699 53.73956909 155.86952747 60.16578197 155.84456348 C64.06122736 155.82892122 67.95647503 155.80770959 71.85180664 155.77368164 C75.61248525 155.74103632 79.37297394 155.72313615 83.13378334 155.71536827 C84.56709087 155.709834 86.00038826 155.69902679 87.43361473 155.68280983 C89.44416503 155.66096945 91.45490728 155.65977403 93.46557617 155.65942383 C94.60919113 155.65276199 95.75280609 155.64610016 96.93107605 155.63923645 C100.36764596 156.04321816 102.2411885 156.94608066 105 159 C106.42041821 161.84083641 106.31452272 163.85477278 106 167 C104.1329009 169.30275556 102.64352259 170.67823871 100 172 C97.93707015 172.09160337 95.87111115 172.1175118 93.80615234 172.11352539 C92.50495453 172.11344986 91.20375671 172.11337433 89.86312866 172.11329651 C88.43739789 172.10818947 87.0116675 172.10297347 85.5859375 172.09765625 C84.13148039 172.09579147 82.67702266 172.09436785 81.2225647 172.09336853 C77.39207224 172.08954805 73.56161763 172.07972176 69.73114014 172.06866455 C65.82336947 172.05844035 61.91559269 172.05386874 58.0078125 172.04882812 C50.33852241 172.03809908 42.66927132 172.02050607 35 172 C35 176.95 35 181.9 35 187 C37.23269653 186.96072388 37.23269653 186.96072388 39.51049805 186.9206543 C45.03606112 186.83011298 50.5615587 186.77273535 56.08764648 186.7253418 C58.47870919 186.70020685 60.86969514 186.66609367 63.26049805 186.62280273 C66.69859764 186.56210939 70.13568096 186.53377928 73.57421875 186.51171875 C74.64210129 186.48591232 75.70998383 186.4601059 76.81022644 186.43351746 C84.20910953 186.43072507 84.20910953 186.43072507 88.20629883 189.30786133 C90 192 90 192 90.125 195.5625 C88.7335002 199.81430496 87.86685638 200.76451607 84 203 C80.25965998 203.54896034 76.56620476 203.4650976 72.79296875 203.390625 C71.71243729 203.38496521 70.63190582 203.37930542 69.51863098 203.37347412 C66.07446611 203.35112043 62.63134935 203.30092391 59.1875 203.25 C56.84962442 203.22993379 54.5117325 203.21168323 52.17382812 203.1953125 C46.44881617 203.1512586 40.72458567 203.08223616 35 203 C35 207.62 35 212.24 35 217 C36.18029785 216.97905273 37.3605957 216.95810547 38.57666016 216.93652344 C42.97106717 216.86392231 47.36542154 216.81812729 51.76025391 216.78027344 C53.65943325 216.76020371 55.55855115 216.73294149 57.45751953 216.69824219 C60.19318839 216.64951891 62.92803771 216.62698493 65.6640625 216.609375 C66.50804596 216.58872986 67.35202942 216.56808472 68.22158813 216.54681396 C73.79103811 216.54471162 76.67793886 217.44666473 81 221 C82 222 82 222 82.375 224.75 C82 228 82 228 80.08129883 230.67260742 C75.78826126 233.91526071 72.56087309 233.63963135 67.32421875 233.48828125 C65.93648003 233.47766914 65.93648003 233.47766914 64.52070618 233.46684265 C61.57546997 233.43892815 58.63215827 233.37619557 55.6875 233.3125 C53.68687648 233.2874133 51.68622306 233.26460078 49.68554688 233.24414062 C44.78903282 233.19336798 39.89666152 233.09551355 35 233 C35 243.23 35 253.46 35 264 C52.82 264 70.64 264 89 264 C89 264.33 89 264.66 89 265 C59.63 265 30.26 265 0 265 C0 177.55 0 90.1 0 0 Z " fill="#E8DCD7" transform="translate(46,15)"/>
<path d="M0 0 C0.14695312 0.69222656 0.29390625 1.38445312 0.4453125 2.09765625 C3.18227713 14.03648471 7.62311415 24.90079529 13.5625 35.5625 C13.92617676 36.21702148 14.28985352 36.87154297 14.66455078 37.54589844 C16.48748874 40.7178595 18.2818978 43.34332441 20.83984375 45.96484375 C23 49 23 49 22.94140625 52.8671875 C22.66247894 54.25227398 22.34766901 55.63055075 22 57 C21.76385986 58.00981934 21.76385986 58.00981934 21.52294922 59.04003906 C20.8574215 61.7664078 20.11774534 64.47012939 19.37304688 67.17578125 C17.87849394 72.83646892 16.89497844 77.01858202 19.8125 82.25 C22.32316907 85.40626969 23.81780226 86.85845796 27.87109375 87.34375 C33.76415267 87.17037921 39.44222399 85.12551813 45.0625 83.5 C47.36384189 82.83661931 49.66718102 82.18012011 51.97265625 81.53125 C53.49258179 81.09135742 53.49258179 81.09135742 55.04321289 80.64257812 C60.06089971 79.5521189 63.91442018 79.65417424 68.5625 81.8125 C73.72735088 84.03275602 78.91824588 85.23963362 84.41015625 86.38671875 C87 87 87 87 88 88 C87.78024505 100.1541394 85.86886123 110.89143312 81 122 C80.030625 122.02578125 79.06125 122.0515625 78.0625 122.078125 C61.65444905 122.69218638 43.92768987 125.99014967 30.86328125 136.76171875 C28.34940872 138.4323636 26.88764399 138.15937141 23.9375 137.75 C22.65166016 137.58757812 22.65166016 137.58757812 21.33984375 137.421875 C19 137 19 137 16 136 C10.64519163 135.65452849 7.3615957 135.53637989 3 139 C0.00321331 143.49518003 0.52703303 147.72303993 1 153 C1.69536275 155.89225055 2.53290631 158.71376085 3.38671875 161.5625 C4.811329 167.22464522 2.53011445 171.04234331 0 176 C-20.693139 177.15246442 -40.73539576 170.91939377 -56.640625 157.17578125 C-57.41921875 156.45777344 -58.1978125 155.73976563 -59 155 C-59.90234375 154.18917969 -60.8046875 153.37835938 -61.734375 152.54296875 C-72.75605733 142.14544247 -79.67929172 130.09551572 -85 116 C-85.34160156 115.1028125 -85.68320313 114.205625 -86.03515625 113.28125 C-92.63163206 90.84789097 -89.90686589 67.21174744 -79.22460938 46.58227539 C-67.662982 25.47265287 -48.29426945 9.31601276 -25.0546875 2.51953125 C-24.37664062 2.34808594 -23.69859375 2.17664063 -23 2 C-21.85917969 1.69642578 -21.85917969 1.69642578 -20.6953125 1.38671875 C-13.8000449 -0.23245751 -7.05317415 -0.19899237 0 0 Z " fill="#C7EEFD" transform="translate(270,178)"/>
<path d="M0 0 C2.54434886 2.22010651 4.9619442 4.51725071 7.35546875 6.8984375 C7.98195313 7.49011719 8.6084375 8.08179688 9.25390625 8.69140625 C20.94027705 20.66861433 25.83227193 37.62286034 25.71191406 53.90917969 C25.53718865 60.27272983 24.60778398 65.91815223 22.35546875 71.8984375 C22.07703125 72.73375 21.79859375 73.5690625 21.51171875 74.4296875 C19.15112111 81.02308091 15.62964744 86.38366034 11.35546875 91.8984375 C10.80890625 92.61128906 10.26234375 93.32414062 9.69921875 94.05859375 C-0.03409524 105.97272101 -15.47038305 113.84837164 -30.64453125 115.8984375 C-49.69347522 116.90406703 -65.60030593 113.21972611 -80.64453125 100.8984375 C-82.12953125 99.815625 -82.12953125 99.815625 -83.64453125 98.7109375 C-95.00245247 88.98880385 -102.41123209 72.59037434 -103.84082031 57.87841797 C-104.69899349 45.87748675 -103.10073425 34.47738614 -97.49609375 23.6875 C-95.43006108 19.34693594 -96.45949004 14.18870037 -97.64453125 9.7109375 C-98.4815374 6.51985157 -98.84778112 4.15043539 -98.64453125 0.8984375 C-95.91015625 1.6796875 -95.91015625 1.6796875 -93.17578125 2.4609375 C-86.92864176 3.54069 -82.88236517 3.66683151 -77.57373047 -0.04858398 C-76.74252686 -0.66262085 -76.74252686 -0.66262085 -75.89453125 -1.2890625 C-52.87098016 -17.09105609 -22.34490464 -17.75710295 0 0 Z " fill="#FB7B42" transform="translate(384.64453125,328.1015625)"/>
<path d="M0 0 C0.97646484 0.00322266 1.95292969 0.00644531 2.95898438 0.00976562 C3.96638672 0.01814453 4.97378906 0.02652344 6.01171875 0.03515625 C7.03845703 0.03966797 8.06519531 0.04417969 9.12304688 0.04882812 C11.64849757 0.06057441 14.1738278 0.0770006 16.69921875 0.09765625 C14.39482329 2.40205171 12.35104815 3.2470214 9.38671875 4.59765625 C2.02593373 8.20275794 -3.98327812 12.9205855 -10.30078125 18.09765625 C-11.30625 18.89171875 -12.31171875 19.68578125 -13.34765625 20.50390625 C-16.52787869 23.2971175 -19.09200254 26.20053586 -21.67578125 29.53515625 C-22.14910889 30.14496338 -22.62243652 30.75477051 -23.11010742 31.38305664 C-40.47323958 54.24534541 -48.20825164 81.66304374 -44.53149414 110.18920898 C-41.52514132 130.54450795 -32.84461841 148.66990189 -19.30078125 164.09765625 C-18.33011719 165.35449219 -18.33011719 165.35449219 -17.33984375 166.63671875 C-9.13426464 176.54000388 7.81318316 189.20265102 20.69921875 191.09765625 C20.69921875 191.42765625 20.69921875 191.75765625 20.69921875 192.09765625 C1.53419281 192.77807137 -15.92644709 190.78482333 -33.30078125 182.09765625 C-39.77785618 182.20818951 -45.98271873 183.91652587 -52.17578125 185.66015625 C-53.83891788 186.12313063 -55.50294797 186.58291064 -57.16796875 187.0390625 C-57.89097168 187.24217041 -58.61397461 187.44527832 -59.35888672 187.65454102 C-61.30078125 188.09765625 -61.30078125 188.09765625 -64.30078125 188.09765625 C-63.634374 182.36655389 -62.32552769 176.87571262 -60.921875 171.28125 C-60.2749751 167.96537946 -59.84997784 165.45460979 -60.30078125 162.09765625 C-61.89718978 159.77934239 -63.44810059 157.8098726 -65.30078125 155.72265625 C-74.77095718 144.34836723 -80.31035507 131.26609254 -84.30078125 117.09765625 C-84.54699219 116.22496094 -84.79320312 115.35226563 -85.046875 114.453125 C-89.54441139 94.75701734 -86.11154079 73.06277041 -77.30078125 55.09765625 C-76.52927734 53.49664062 -76.52927734 53.49664062 -75.7421875 51.86328125 C-71.79644053 44.09936343 -67.12998937 37.55314293 -61.30078125 31.09765625 C-60.55183594 30.25460938 -59.80289062 29.4115625 -59.03125 28.54296875 C-44.61825235 13.19778717 -21.45444518 -0.12546459 0 0 Z " fill="#FDC143" transform="translate(368.30078125,60.90234375)"/>
<path d="M0 0 C0 5.28 0 10.56 0 16 C-2.619375 16.226875 -5.23875 16.45375 -7.9375 16.6875 C-34.61121066 19.47692357 -59.65360232 32.3889713 -77 53 C-94.7820124 75.53410192 -102.73362817 102.40698322 -100 131 C-96.16882812 157.80920982 -83.37218824 183.17687179 -61.78125 199.9765625 C-42.90903386 213.70662986 -23.83371538 219.94723153 -1 223 C-1 227.95 -1 232.9 -1 238 C-31.40869989 239.44803333 -58.57369428 226.02010473 -80.78125 206.0625 C-100.85375796 187.36612143 -115.39631466 158.41845078 -117.20483398 130.88110352 C-117.30341852 127.56359584 -117.32889968 124.25641535 -117.3125 120.9375 C-117.30758545 119.75446289 -117.3026709 118.57142578 -117.29760742 117.35253906 C-117.00135509 95.00751671 -111.24781204 74.26636832 -99.27734375 55.265625 C-97.47572759 52.07009786 -97.6664851 49.60196092 -98 46 C-98.66 45.01 -99.32 44.02 -100 43 C-98.23381453 40.87098186 -96.462356 38.74676985 -94.6875 36.625 C-94.18798828 36.02171875 -93.68847656 35.4184375 -93.17382812 34.796875 C-92.68720703 34.21679688 -92.20058594 33.63671875 -91.69921875 33.0390625 C-91.25408936 32.50490723 -90.80895996 31.97075195 -90.3503418 31.42041016 C-89 30 -89 30 -86 28 C-84.515 28.99 -84.515 28.99 -83 30 C-77.73119485 29.82485966 -75.08087317 27.82909846 -71.125 24.5 C-50.65634002 8.00598163 -26.16179908 -0.24915999 0 0 Z " fill="#01BDF6" transform="translate(267,147)"/>
<path d="M0 0 C0 0.66 0 1.32 0 2 C-1.74895933 3.11188136 -3.5526122 4.13806454 -5.375 5.125 C-11.43998555 8.55801069 -16.69462176 12.50541046 -22 17 C-22.98355469 17.77988281 -23.96710938 18.55976563 -24.98046875 19.36328125 C-38.30421813 30.48755454 -46.21299929 47.7062987 -51 64 C-51.19867676 64.67200439 -51.39735352 65.34400879 -51.60205078 66.03637695 C-53.38686422 72.91194709 -53.29531609 79.74696702 -53.25 86.8125 C-53.25773437 88.00681641 -53.26546875 89.20113281 -53.2734375 90.43164062 C-53.21772002 116.01989381 -43.29129334 138.32997494 -25.4765625 156.5859375 C-19.46022627 162.31998229 -13.03030211 166.78713475 -5.96875 171.08984375 C-3.61303488 172.60556045 -1.82988396 173.91523934 0 176 C-20.693139 177.15246442 -40.73539576 170.91939377 -56.640625 157.17578125 C-57.41921875 156.45777344 -58.1978125 155.73976563 -59 155 C-59.90234375 154.18917969 -60.8046875 153.37835938 -61.734375 152.54296875 C-72.75605733 142.14544247 -79.67929172 130.09551572 -85 116 C-85.34160156 115.1028125 -85.68320313 114.205625 -86.03515625 113.28125 C-92.63163206 90.84789097 -89.90686589 67.21174744 -79.22460938 46.58227539 C-67.662982 25.47265287 -48.29426945 9.31601276 -25.0546875 2.51953125 C-24.37664062 2.34808594 -23.69859375 2.17664063 -23 2 C-21.85917969 1.69642578 -21.85917969 1.69642578 -20.6953125 1.38671875 C-13.8000449 -0.23245751 -7.05317415 -0.19899237 0 0 Z " fill="#98E4FA" transform="translate(270,178)"/>
<path d="M0 0 C3.19722241 1.33257182 5.40764346 3.79605447 7.82052708 6.20801449 C8.36976841 6.7496423 8.91900974 7.2912701 9.48489475 7.84931087 C10.64180824 8.99543403 11.79478507 10.14554273 12.94406223 11.29932308 C14.70505759 13.06129163 16.48628123 14.80086026 18.26974583 16.54004574 C19.39213845 17.65723191 20.51327601 18.77568071 21.63302708 19.89551449 C22.16732334 20.41341549 22.70161961 20.93131649 23.25210667 21.46491146 C25.34693724 23.59971938 26.82260258 25.37233276 27.71798801 28.24854183 C26.46899025 32.48788199 23.35591772 34.8885362 20.17990208 37.84082699 C18.76692407 39.20518502 17.35417057 40.56977558 15.94162083 41.93457699 C13.70181084 44.06871238 11.45653062 46.1967478 9.20578098 48.31934261 C7.03637706 50.37401616 4.8888728 52.44974636 2.74240208 54.52832699 C1.72527134 55.46773632 1.72527134 55.46773632 0.68759251 56.42612362 C-2.55627241 59.5828756 -3.92921362 60.96794375 -4.52517605 65.58545589 C-4.13267862 68.82180164 -4.13267862 68.82180164 -3.03884792 71.81738949 C-4.96499388 74.04242017 -6.92145145 76.21550364 -8.91384792 78.37988949 C-9.45009792 79.00830746 -9.98634792 79.63672543 -10.53884792 80.28418636 C-12.30209313 82.16019725 -13.774431 83.57953773 -16.03884792 84.81738949 C-18.31130886 84.60547543 -18.31130886 84.60547543 -20.76541042 84.02442074 C-23.3537549 83.45713375 -23.3537549 83.45713375 -26.03884792 83.81738949 C-30.4688829 86.93948356 -33.95311305 90.91663594 -37.53884792 94.94238949 C-52.78067739 111.7200601 -52.78067739 111.7200601 -64.28884792 112.31738949 C-70.75833439 111.95291138 -75.3224891 109.15134084 -80.03884792 104.81738949 C-83.284109 100.18130224 -84.20586279 96.16698926 -84.41384792 90.56738949 C-84.4628323 89.67535824 -84.51181667 88.78332699 -84.56228542 87.86426449 C-83.21609007 80.02820197 -76.89041965 74.22619218 -71.46633816 68.82495785 C-70.72100826 68.07115841 -69.97567837 67.31735897 -69.20776272 66.54071712 C-66.7620413 64.07174881 -64.3054283 61.61398696 -61.84744167 59.15723324 C-60.13751748 57.44020507 -58.42789157 55.72287982 -56.71855068 54.00527096 C-53.14534011 50.41864757 -49.56628465 46.83797933 -45.983428 43.260993 C-41.3840245 38.66751236 -36.80321481 34.05596115 -32.22697258 29.4394207 C-28.70723056 25.89390155 -25.17615751 22.35984161 -21.64167881 18.82901859 C-19.94677982 17.13242206 -18.25588077 15.43182006 -16.5690279 13.7272234 C-14.2183488 11.35453181 -11.85249098 8.9981079 -9.48196316 6.64527035 C-8.78419262 5.93423656 -8.08642208 5.22320278 -7.36750698 4.49062252 C-6.72134426 3.8556686 -6.07518154 3.22071468 -5.40943813 2.56651974 C-4.85179492 2.00816401 -4.29415171 1.44980829 -3.71961021 0.8745327 C-2.03884792 -0.18261051 -2.03884792 -0.18261051 0 0 Z " fill="#00C6F8" transform="translate(123.03884792327881,385.1826105117798)"/>
<path d="M0 0 C0 0.33 0 0.66 0 1 C-1.8253125 0.9690625 -1.8253125 0.9690625 -3.6875 0.9375 C-12.47503904 1.8953834 -21.45568054 9.57270894 -27.3203125 15.875 C-42.15943969 34.64822138 -47.50462003 54.56260706 -44.72753906 78.33203125 C-41.64974072 96.57212796 -30.56254695 111.89099937 -15.9375 122.6875 C-11.90403283 125.48257122 -9.25777281 127.07422272 -4.375 127.5625 C-3.14910156 127.68818359 -3.14910156 127.68818359 -1.8984375 127.81640625 C-1.27195312 127.87699219 -0.64546875 127.93757813 0 128 C0 128.33 0 128.66 0 129 C-19.18508171 129.62035594 -34.76420351 126.47818627 -50 114 C-51.485 112.9171875 -51.485 112.9171875 -53 111.8125 C-64.35792122 102.09036635 -71.76670084 85.69193684 -73.19628906 70.97998047 C-74.05446224 58.97904925 -72.456203 47.57894864 -66.8515625 36.7890625 C-64.78552983 32.44849844 -65.81495879 27.29026287 -67 22.8125 C-67.83700615 19.62141407 -68.20324987 17.25199789 -68 14 C-65.265625 14.78125 -65.265625 14.78125 -62.53125 15.5625 C-56.28411051 16.6422525 -52.23783392 16.76839401 -46.92919922 13.05297852 C-46.09799561 12.43894165 -46.09799561 12.43894165 -45.25 11.8125 C-30.89231954 1.95824364 -17.25114103 -0.45934991 0 0 Z " fill="#FA672F" transform="translate(354,315)"/>
<path d="M0 0 C9.26189722 7.05117916 15.90253085 15.68237206 19 27 C19.423685 30.30350999 19.47736659 33.54740494 19.4375 36.875 C19.42992676 37.75905518 19.42235352 38.64311035 19.41455078 39.55395508 C19.24981376 46.06828222 18.40850926 51.3437741 15 57 C14.55269531 57.7734375 14.10539062 58.546875 13.64453125 59.34375 C7.77683691 68.78240041 -0.3225953 76.92615485 -11.484375 79.59375 C-13.6875 79.875 -13.6875 79.875 -17 80 C-16.95359375 80.88042969 -16.9071875 81.76085937 -16.859375 82.66796875 C-16.80523437 84.41013672 -16.80523437 84.41013672 -16.75 86.1875 C-16.70359375 87.33605469 -16.6571875 88.48460937 -16.609375 89.66796875 C-17.07771458 93.66290537 -18.11840333 95.24102446 -21 98 C-24.81961761 98.61386712 -26.94542038 98.71245219 -30.19140625 96.51953125 C-32.85483871 92.80913398 -32.54904809 89.57972705 -32.4375 85.125 C-32.44458984 84.33480469 -32.45167969 83.54460937 -32.45898438 82.73046875 C-32.40534361 77.77076086 -31.7348281 74.28456402 -29 70 C-25.17054683 66.79394618 -21.8069315 65.60279603 -17.07421875 64.5390625 C-8.74114032 62.3734037 -3.39697623 57.4568448 1.1015625 50.23046875 C4.45763833 43.03215657 4.32699111 33.49997429 2.12109375 26.01953125 C-1.31486161 18.52393226 -6.27038584 14.04828346 -13.6875 10.625 C-20.94206424 8.00100868 -28.52175136 7.68861801 -35.75 10.5625 C-42.44889779 14.02744713 -48.14461308 18.71052307 -51.26953125 25.68359375 C-52.46331147 29.46921766 -52.95648389 33.33039956 -53.41015625 37.265625 C-54.06445307 40.29878908 -54.79514849 41.82570071 -57 44 C-59.70624604 44.69292993 -62.25898213 44.48640192 -65 44 C-67.17476401 42.45661909 -67.81832637 41.36334727 -69 39 C-70.01177408 26.45400135 -64.99746836 16.48282267 -57.328125 6.9140625 C-42.92491988 -9.15105091 -17.96691849 -11.86299416 0 0 Z " fill="#040301" transform="translate(403,99)"/>
<path d="M0 0 C1.18466858 -0.00990463 2.36933716 -0.01980927 3.58990479 -0.03001404 C4.88612259 -0.02551239 6.18234039 -0.02101074 7.51783752 -0.01637268 C8.89946546 -0.02207618 10.28108868 -0.02904036 11.66270447 -0.03717041 C15.41275162 -0.05511977 19.16256502 -0.05393013 22.91264224 -0.04822803 C26.04390241 -0.04513861 29.17511751 -0.05122589 32.30637127 -0.05726677 C39.69379264 -0.07131632 47.08109839 -0.06974727 54.46852112 -0.05836487 C62.08828931 -0.04688386 69.70770552 -0.06095783 77.32742733 -0.08776134 C83.87108159 -0.10991731 90.41462537 -0.11655596 96.95831448 -0.11068493 C100.86586469 -0.10731378 104.77318928 -0.10974062 108.68070793 -0.12693596 C112.35557059 -0.1424015 116.02991185 -0.13845453 119.70475388 -0.11963081 C121.69451456 -0.11418679 123.68429862 -0.12846213 125.67401123 -0.14332581 C126.86149963 -0.13349167 128.04898804 -0.12365753 129.27246094 -0.11352539 C130.81742831 -0.11321146 130.81742831 -0.11321146 132.39360714 -0.1128912 C135.97551445 0.5260704 137.65903948 1.82032844 140.19972229 4.38768005 C140.76222229 7.88768005 140.76222229 7.88768005 140.19972229 11.38768005 C138.10229954 14.13806369 136.91941707 15.25347274 133.48542023 15.89383793 C131.91694714 15.89804831 131.91694714 15.89804831 130.31678772 15.90234375 C129.11384567 15.91506821 127.91090363 15.92779266 126.67150879 15.94090271 C125.35501846 15.93437683 124.03852814 15.92785095 122.68214417 15.92112732 C121.27918592 15.92818597 119.87623528 15.93693077 118.47329712 15.94723511 C114.6654109 15.96974409 110.85794002 15.96678626 107.05001259 15.95791364 C103.87142534 15.95280538 100.69291626 15.96009487 97.51433706 15.96738571 C90.01665515 15.98438911 82.51917675 15.98081408 75.02149963 15.96409607 C67.28462017 15.9471679 59.54830461 15.96301742 51.81148672 15.99531895 C45.16931782 16.02200038 38.52732463 16.02929501 31.88510752 16.02080387 C27.91774384 16.01587111 23.95071961 16.01810887 19.98339844 16.03859138 C16.25344215 16.0569266 12.52429833 16.05101763 8.79438591 16.02639198 C6.77222817 16.01898477 4.75002735 16.03625559 2.72793579 16.05421448 C0.92352272 16.03523354 0.92352272 16.03523354 -0.91734314 16.01586914 C-1.96299187 16.01528283 -3.00864059 16.01469652 -4.08597565 16.01409245 C-6.80027771 15.38768005 -6.80027771 15.38768005 -9.16796112 13.07498074 C-10.80027771 10.38768005 -10.80027771 10.38768005 -10.80027771 6.76268005 C-9.05194898 0.8620706 -5.83452994 0.0137697 0 0 Z " fill="#030303" transform="translate(83.80027770996094,107.61231994628906)"/>
<path d="M0 0 C1.19308273 -0.0112793 2.38616547 -0.02255859 3.61540222 -0.03417969 C4.92097076 -0.02608276 6.22653931 -0.01798584 7.57167053 -0.00964355 C8.96315239 -0.01506486 10.35462851 -0.02218758 11.74609375 -0.03088379 C15.52307477 -0.04912114 19.2996188 -0.04204776 23.07660747 -0.02936745 C27.0300977 -0.01923977 30.98355053 -0.02863266 34.93704224 -0.03491211 C41.57736425 -0.04219007 48.21750834 -0.03259791 54.85780334 -0.0135498 C62.53211551 0.0082104 70.20600245 0.00117459 77.88030428 -0.02085543 C84.47067906 -0.03901599 91.06092593 -0.04156431 97.65131766 -0.03110075 C101.58679869 -0.02486822 105.52207998 -0.02402323 109.45754814 -0.0372467 C113.15869703 -0.04881396 116.85929871 -0.04076422 120.56038857 -0.01766968 C122.56444677 -0.00986933 124.56855133 -0.02173169 126.57258606 -0.03417969 C128.3664399 -0.01726074 128.3664399 -0.01726074 130.1965332 0 C131.75256209 0.00226215 131.75256209 0.00226215 133.3400259 0.00457001 C136.91655516 0.64258161 138.60537199 1.96852759 141.16175842 4.50793457 C141.97225167 8.31725281 141.56004591 9.88669563 139.46217346 13.15890503 C135.03443484 17.3123679 128.38970954 16.19922148 122.7301178 16.15490723 C121.34833627 16.16168605 119.96656378 16.17059069 118.58480835 16.18145752 C114.83879453 16.20422677 111.09347021 16.19542495 107.34744453 16.17956209 C103.42464993 16.16689051 99.50191378 16.17864668 95.57911682 16.18649292 C88.99181026 16.19558587 82.40478411 16.18361108 75.81752014 16.15979004 C68.20501976 16.13257917 60.59318895 16.1413936 52.98070478 16.16892207 C46.44124358 16.19162244 39.90198378 16.19480877 33.3624959 16.18172872 C29.45828815 16.1739392 25.55439498 16.17287855 21.65020752 16.18941116 C17.97929783 16.20387051 14.30925015 16.19380906 10.63843346 16.16493988 C8.65108801 16.15519024 6.66366953 16.17001689 4.67636108 16.18557739 C-5.03526815 16.07013014 -5.03526815 16.07013014 -8.14256287 13.15890503 C-10.22535663 9.90273114 -10.56461588 8.30122261 -9.83824158 4.50793457 C-6.83616028 0.64027423 -4.82201339 0.00701279 0 0 Z " fill="#010101" transform="translate(82.83824157714844,44.4920654296875)"/>
<path d="M0 0 C6.04215293 4.81324047 10.38094147 11.19751191 12.82421875 18.52734375 C13.66771273 29.81080417 12.95834433 39.82848692 5.57421875 48.90234375 C0.54705524 54.14480334 -4.76370284 57.97143787 -12.17578125 58.52734375 C-12.02109375 60.35265625 -12.02109375 60.35265625 -11.86328125 62.21484375 C-11.86956266 65.75127783 -12.13224406 66.46587947 -14.30078125 69.52734375 C-17.17578125 71.52734375 -17.17578125 71.52734375 -20.23828125 72.15234375 C-23.17578125 71.52734375 -23.17578125 71.52734375 -25.328125 69.45703125 C-27.66044233 65.75885366 -27.71055562 63.37413968 -27.67578125 59.02734375 C-27.68609375 57.73828125 -27.69640625 56.44921875 -27.70703125 55.12109375 C-27.0888972 50.93959873 -26.26568299 49.37799445 -23.17578125 46.52734375 C-20.1171875 45.12109375 -20.1171875 45.12109375 -16.73828125 44.02734375 C-11.61051052 42.18778474 -8.38173865 40.94935396 -5.17578125 36.52734375 C-2.70301403 31.21580405 -2.24827013 26.30210864 -3.17578125 20.52734375 C-5.14819002 16.43739915 -7.43243402 13.41650914 -11.51171875 11.3359375 C-17.54525884 9.50464307 -23.95652025 9.49697257 -29.67578125 12.15234375 C-34.05994584 16.31730011 -36.15971891 19.70351448 -37.11328125 25.65234375 C-37.72920446 29.23982633 -38.0012142 30.32918656 -40.48828125 33.15234375 C-43.46820924 34.67695807 -44.89551462 35.20021896 -48.17578125 34.52734375 C-50.77183976 32.45433584 -52.01883867 31.20403123 -52.77734375 27.93359375 C-52.8578018 17.95679525 -49.61952302 9.87904465 -42.80078125 2.52734375 C-31.11114825 -8.09959534 -12.90294404 -8.73323143 0 0 Z " fill="#040201" transform="translate(365.17578125,338.47265625)"/>
<path d="M0 0 C0.93864899 -0.00700928 1.87729797 -0.01401855 2.84439087 -0.02124023 C5.94807497 -0.03884916 9.05084759 -0.02718601 12.15454102 -0.01367188 C14.31161168 -0.01636618 16.46868117 -0.02024808 18.62574768 -0.02526855 C23.14758868 -0.03116773 27.66911369 -0.02258776 32.19091797 -0.00390625 C37.98615174 0.0188696 43.780644 0.00577113 49.57585049 -0.01819611 C54.03084392 -0.03265424 58.48566174 -0.02804772 62.94066048 -0.01768494 C65.07729238 -0.015017 67.21394024 -0.01828975 69.35055351 -0.02760315 C72.33829809 -0.03776718 75.3248446 -0.02226848 78.3125 0 C79.19526108 -0.00809692 80.07802216 -0.01619385 80.98753357 -0.02453613 C85.0620648 0.03169754 87.21413789 0.21027182 90.76991272 2.36633301 C92.72094727 4.51757812 92.72094727 4.51757812 93.34594727 7.45507812 C92.49151704 11.64178622 91.0955523 12.91191372 87.72094727 15.51757812 C84.61922451 16.24436271 81.59479644 16.20140497 78.42016602 16.16455078 C77.49112457 16.17331238 76.56208313 16.18207397 75.60488892 16.19110107 C72.53893098 16.21307825 69.47441944 16.19854796 66.40844727 16.18164062 C64.27522505 16.18500923 62.14200471 16.18986222 60.00878906 16.19613647 C55.53993439 16.20350555 51.07157972 16.19280079 46.6027832 16.16943359 C40.87581077 16.14094626 35.1500099 16.15734998 29.42308044 16.18729591 C25.01866841 16.20536767 20.61453394 16.19961131 16.21011353 16.18665695 C14.09860088 16.18332263 11.987063 16.18741092 9.87557983 16.19905472 C6.92361758 16.21176104 3.97354972 16.19238879 1.02172852 16.16455078 C-0.28603043 16.17973251 -0.28603043 16.17973251 -1.62020874 16.19522095 C-5.98965725 16.1189206 -7.75632094 15.92068218 -11.32519531 13.16854858 C-13.27905273 10.51757812 -13.27905273 10.51757812 -13.84155273 7.45507812 C-12.34699608 -0.34982885 -6.64647252 -0.06082377 0 0 Z " fill="#020202" transform="translate(86.279052734375,139.482421875)"/>
<path d="M0 0 C0.79395172 -0.0071553 1.58790344 -0.01431061 2.40591431 -0.02168274 C5.0277071 -0.03857773 7.64779179 -0.01916386 10.26953125 0.00219727 C12.0926935 0.00136863 13.91585567 -0.00109053 15.73901367 -0.00511169 C19.55898541 -0.00797023 23.37837099 0.00673669 27.19824219 0.03417969 C32.09460656 0.06826276 36.98992274 0.06224491 41.88633728 0.04351711 C45.65076431 0.0329482 49.41494745 0.04188392 53.17935181 0.05690193 C54.98466264 0.06208501 56.78999892 0.0616004 58.5953064 0.05535698 C61.11878211 0.04990598 63.64075773 0.0702746 66.1640625 0.09765625 C66.91015778 0.09113037 67.65625305 0.08460449 68.42495728 0.07788086 C71.86527545 0.14135416 73.75755943 0.38709547 76.54174805 2.48085022 C78.08203125 4.63110352 78.08203125 4.63110352 78.64453125 7.56860352 C77.879189 11.7354669 76.3741081 13.00955478 73.08203125 15.63110352 C70.29515285 16.12193567 68.12060819 16.30778352 65.34179688 16.26220703 C64.57856613 16.26936234 63.81533539 16.27651764 63.02897644 16.28388977 C60.51479601 16.30075086 58.00240537 16.28139126 55.48828125 16.26000977 C53.73620456 16.26083871 51.98412794 16.26329906 50.23205566 16.26731873 C46.56348203 16.27017494 42.89551953 16.25549325 39.22705078 16.22802734 C34.52921714 16.19394452 29.83247609 16.19996425 25.13459015 16.21868992 C21.51766892 16.22926839 17.90100107 16.22031445 14.28410339 16.2053051 C12.55218763 16.20012903 10.82024534 16.20059812 9.08833313 16.20685005 C6.66573371 16.21231268 4.2446879 16.19189579 1.82226562 16.16455078 C1.10938889 16.17107666 0.39651215 16.17760254 -0.33796692 16.18432617 C-5.11326978 16.0928658 -7.59691221 15.05997614 -10.91796875 11.63110352 C-11.98046875 8.69360352 -11.98046875 8.69360352 -11.91796875 5.63110352 C-8.87913937 0.29069028 -5.74822521 -0.09008152 0 0 Z " fill="#080707" transform="translate(145.91796875,76.368896484375)"/>
<path d="M0 0 C0.68666245 -0.00700928 1.37332489 -0.01401855 2.08079529 -0.02124023 C4.34529338 -0.038812 6.6085366 -0.02720182 8.87304688 -0.01367188 C10.4495874 -0.01636706 12.0261263 -0.0202497 13.60266113 -0.02526855 C16.90470221 -0.03116244 20.2063101 -0.02260466 23.50830078 -0.00390625 C27.73880748 0.01888381 31.96829915 0.00576006 36.19876862 -0.01819611 C39.4536299 -0.03265739 42.70825094 -0.02804671 45.96311951 -0.01768494 C47.52282329 -0.01501853 49.08254895 -0.01828442 50.64222717 -0.02760315 C52.8232695 -0.0377749 55.00267334 -0.02226229 57.18359375 0 C58.42395386 0.00318237 59.66431396 0.00636475 60.94226074 0.00964355 C64.67326563 0.61135323 65.86325874 1.51484281 68.09179688 4.51757812 C68.59179688 7.51757812 68.59179688 7.51757812 68.09179688 10.51757812 C65.86325874 13.52031344 64.67326563 14.42380302 60.94226074 15.0255127 C59.08172058 15.03028625 59.08172058 15.03028625 57.18359375 15.03515625 C56.4969313 15.04216553 55.81026886 15.0491748 55.10279846 15.05639648 C52.83830037 15.07396825 50.57505715 15.06235807 48.31054688 15.04882812 C46.73400635 15.05152331 45.15746745 15.05540595 43.58093262 15.0604248 C40.27889154 15.06631869 36.97728365 15.05776091 33.67529297 15.0390625 C29.44478627 15.01627244 25.2152946 15.02939619 20.98482513 15.05335236 C17.72996385 15.06781364 14.47534281 15.06320296 11.22047424 15.05284119 C9.66077046 15.05017478 8.1010448 15.05344067 6.54136658 15.0627594 C4.36032425 15.07293115 2.18092041 15.05741854 0 15.03515625 C-1.24036011 15.03197388 -2.48072021 15.0287915 -3.75866699 15.0255127 C-7.48967188 14.42380302 -8.67966499 13.52031344 -10.90820312 10.51757812 C-11.40820312 7.51757812 -11.40820312 7.51757812 -10.90820312 4.51757812 C-7.723883 0.22702086 -5.19625618 0.01333196 0 0 Z " fill="#010101" transform="translate(83.908203125,171.482421875)"/>
<path d="M0 0 C1.04465927 -0.01591187 2.08931854 -0.03182373 3.16563416 -0.04821777 C4.28861404 -0.04841919 5.41159393 -0.04862061 6.56860352 -0.04882812 C8.30691185 -0.06024841 8.30691185 -0.06024841 10.08033752 -0.07189941 C12.53058722 -0.08270259 14.98088297 -0.08555266 17.43115234 -0.08105469 C21.18022442 -0.08008261 24.92724896 -0.12170094 28.67602539 -0.16601562 C31.0568805 -0.17122272 33.43774272 -0.17391082 35.81860352 -0.17382812 C36.93955917 -0.19022339 38.06051483 -0.20661865 39.21543884 -0.22351074 C46.95252189 -0.15479914 46.95252189 -0.15479914 51.00634766 2.73046875 C52.76000977 5.41992188 52.76000977 5.41992188 52.76000977 9.04492188 C51.77069361 12.3838639 51.45525368 13.41747387 48.76000977 15.41992188 C46.33815002 15.81433105 46.33815002 15.81433105 43.43408203 15.83984375 C42.34607803 15.85575562 41.25807404 15.87166748 40.13710022 15.88806152 C38.96207443 15.88826294 37.78704865 15.88846436 36.57641602 15.88867188 C35.36936508 15.8962854 34.16231415 15.90389893 32.91868591 15.91174316 C30.36410594 15.92255651 27.80948172 15.9253923 25.25488281 15.92089844 C21.34112988 15.9199265 17.42933866 15.96153085 13.51586914 16.00585938 C11.03605553 16.01106635 8.55623509 16.01375457 6.07641602 16.01367188 C4.31691368 16.03826477 4.31691368 16.03826477 2.52186584 16.06335449 C-5.55120443 15.99450705 -5.55120443 15.99450705 -9.00976562 13.109375 C-10.70043786 9.41331521 -10.38442069 7.28237468 -9.23999023 3.41992188 C-6.2581938 0.52458587 -4.09274981 0.0375529 0 0 Z " fill="#040404" transform="translate(83.239990234375,201.580078125)"/>
<path d="M0 0 C1.00349991 -0.0038269 2.00699982 -0.00765381 3.04090881 -0.01159668 C5.16164148 -0.01431674 7.28240763 -0.006949 9.40307617 0.00976562 C12.64513222 0.0311509 15.88496653 0.00997805 19.12695312 -0.015625 C21.18880697 -0.0129813 23.25065943 -0.00785546 25.3125 0 C26.2803392 -0.00809692 27.24817841 -0.01619385 28.24534607 -0.02453613 C32.55544469 0.03533664 35.06807396 0.14214718 38.83422852 2.38085938 C40.72265625 4.53125 40.72265625 4.53125 41.34765625 7.46875 C40.48702077 11.68586387 39.15013514 12.92928535 35.72265625 15.53125 C32.33669128 16.2679417 29.02110993 16.23239835 25.56640625 16.1953125 C24.09657288 16.20248795 24.09657288 16.20248795 22.5970459 16.20980835 C20.52936189 16.21320441 18.46162397 16.20402263 16.39404297 16.18310547 C13.23282923 16.15633615 10.07516607 16.18286371 6.9140625 16.21484375 C4.90233593 16.2115396 2.89061156 16.20513326 0.87890625 16.1953125 C-0.06392212 16.20543365 -1.00675049 16.21555481 -1.97814941 16.22598267 C-6.5546433 16.14442706 -8.63425481 16.0188346 -12.37695312 13.18115234 C-14.27734375 10.53125 -14.27734375 10.53125 -14.83984375 7.46875 C-13.27237244 -0.71693349 -6.90388748 -0.05763724 0 0 Z " fill="#020202" transform="translate(87.27734375,232.46875)"/>
<path d="M0 0 C0.87269531 -0.0038269 1.74539062 -0.00765381 2.64453125 -0.01159668 C4.48699092 -0.0143149 6.32948924 -0.00695994 8.171875 0.00976562 C10.99045934 0.03117752 13.80649485 0.00996199 16.625 -0.015625 C18.41667229 -0.01298171 20.20834299 -0.00785669 22 0 C22.84175781 -0.00809692 23.68351562 -0.01619385 24.55078125 -0.02453613 C28.38449811 0.03683628 30.36823722 0.07058964 33.53125 2.37695312 C35.54425173 5.32953412 35.5835898 7.02971121 35 10.53125 C33.35231373 12.94800259 32.05148548 14.32256343 29.11914062 14.90454102 C26.73715051 15.06207863 24.38713833 15.08546204 22 15.0625 C21.12730469 15.0663269 20.25460938 15.07015381 19.35546875 15.07409668 C17.51300908 15.0768149 15.67051076 15.06945994 13.828125 15.05273438 C11.00954066 15.03132248 8.19350515 15.05253801 5.375 15.078125 C3.58332771 15.07548171 1.79165701 15.07035669 0 15.0625 C-0.84175781 15.07059692 -1.68351562 15.07869385 -2.55078125 15.08703613 C-6.38449811 15.02566372 -8.36823722 14.99191036 -11.53125 12.68554688 C-13.54425173 9.73296588 -13.5835898 8.03278879 -13 4.53125 C-9.57562358 -0.49147233 -5.56196949 -0.05350095 0 0 Z " fill="#020202" transform="translate(86,76.46875)"/>
<path d="M0 0 C5.28 0 10.56 0 16 0 C16.15447433 10.81320277 15.23606792 20.29305871 11.9375 30.625 C11.65583984 31.53378906 11.37417969 32.44257813 11.08398438 33.37890625 C10.39777317 35.58873894 9.70307008 37.79548541 9 40 C4.92722012 39.43267729 1.41537885 38.52536141 -2.375 36.9375 C-3.24898438 36.57527344 -4.12296875 36.21304688 -5.0234375 35.83984375 C-5.67570312 35.56269531 -6.32796875 35.28554688 -7 35 C-6.81824219 34.46375 -6.63648438 33.9275 -6.44921875 33.375 C-2.98615551 22.57734642 -1.00756618 11.28474119 0 0 Z " fill="#00BCF5" transform="translate(373,268)"/>
<path d="M0 0 C2.31 1.98 4.62 3.96 7 6 C8.65975389 7.34192868 10.32346641 8.67909475 12 10 C10.39626852 14.00517396 7.57886014 16.6771098 4.5546875 19.640625 C4.02481232 20.16767029 3.49493713 20.69471558 2.94900513 21.23773193 C1.26232175 22.91325675 -0.43119564 24.58167722 -2.125 26.25 C-3.27259388 27.38755851 -4.41973461 28.52557436 -5.56640625 29.6640625 C-8.37238137 32.44803465 -11.18450464 35.2256576 -14 38 C-15.06816445 37.13192399 -16.12918085 36.25505217 -17.1875 35.375 C-18.07501953 34.64410156 -18.07501953 34.64410156 -18.98046875 33.8984375 C-21.54686166 31.48592888 -23.74508093 28.70590288 -26 26 C-17.42 17.42 -8.84 8.84 0 0 Z " fill="#DCCFCA" transform="translate(168,356)"/>
<path d="M0 0 C3.18533648 2.69528471 3.90100875 4.38405445 4.5625 8.5 C4 12 4 12 1.875 14.9375 C-1 17 -1 17 -4.0625 17.5625 C-7 17 -7 17 -9.375 15.5625 C-11.7776838 11.77365246 -11.77693727 8.36526609 -11 4 C-8.2228864 -0.5544663 -5.08853596 -0.81780042 0 0 Z " fill="#050401" transform="translate(382,204)"/>
<path d="M0 0 C2.875 1.5 2.875 1.5 5 4 C5.79601977 9.01492456 5.77842337 10.84415924 2.9375 15.0625 C0 17 0 17 -3.625 17.125 C-7 16 -7 16 -8.9375 13.875 C-10.26038902 10.29541796 -10.48224883 7.78909795 -10 4 C-7.25657347 -0.1151398 -4.81370572 -0.78591114 0 0 Z " fill="#0B0503" transform="translate(348,414)"/>
<path d="M0 0 C0.66 0.33 1.32 0.66 2 1 C1.72285156 1.53367187 1.44570313 2.06734375 1.16015625 2.6171875 C-1.66786404 8.43425414 -2.73088945 13.5548024 -3 20 C-3.33 20 -3.66 20 -4 20 C-4.144375 19.05125 -4.28875 18.1025 -4.4375 17.125 C-4.82935399 14.1065506 -4.82935399 14.1065506 -6 12 C-5.29296875 9.6875 -5.29296875 9.6875 -4.1875 7 C-3.83042969 6.113125 -3.47335937 5.22625 -3.10546875 4.3125 C-2 2 -2 2 0 0 Z " fill="#E9713C" transform="translate(316,347)"/>
</svg>
