<?xml version="1.0" encoding="UTF-8"?>
<svg version="1.1" xmlns="http://www.w3.org/2000/svg" width="512" height="512">
<path d="M0 0 C0.68663727 0.16808167 1.37327454 0.33616333 2.08071899 0.50933838 C3.51213753 0.86334358 4.94211628 1.22322072 6.37060547 1.58886719 C8.5513392 2.14374877 10.73766441 2.67039906 12.92578125 3.1953125 C14.32593876 3.54520684 15.72569487 3.89671224 17.125 4.25 C19.00904541 4.72131348 19.00904541 4.72131348 20.93115234 5.20214844 C24.40683269 6.47987173 26.00119954 7.40310138 28.1640625 10.390625 C28.4940625 12.370625 28.8240625 14.350625 29.1640625 16.390625 C34.1140625 17.380625 39.0640625 18.370625 44.1640625 19.390625 C44.8240625 18.070625 45.4840625 16.750625 46.1640625 15.390625 C53.38720195 11.77905527 63.31728549 15.89431629 70.5859375 17.75 C71.97729005 18.09956598 73.36875117 18.44870012 74.76031494 18.79742432 C77.66333976 19.52743997 80.56440416 20.26470922 83.46435547 21.00683594 C87.17477309 21.95542664 90.89021236 22.88240744 94.60749435 23.80367661 C97.47706953 24.51795592 100.34324058 25.24519622 103.20859528 25.97620392 C104.57738592 26.32343005 105.94729644 26.66627303 107.31832123 27.00457001 C109.23349762 27.47885941 111.14374692 27.97291134 113.05371094 28.46777344 C114.13988708 28.74312927 115.22606323 29.01848511 116.34515381 29.30218506 C119.47752925 30.51166111 121.04247766 31.81484614 123.1640625 34.390625 C123.6953125 36.390625 123.6953125 36.390625 123.6640625 38.390625 C123.67953125 39.380625 123.67953125 39.380625 123.6953125 40.390625 C122.91902722 43.31311074 121.46209515 44.44818367 119.1640625 46.390625 C116.23144531 47.48730469 116.23144531 47.48730469 112.8671875 48.3125 C111.78083008 48.58674805 110.69447266 48.86099609 109.57519531 49.14355469 C108.20202148 49.47258789 106.82884766 49.80162109 105.4140625 50.140625 C101.0415625 51.213125 96.6690625 52.285625 92.1640625 53.390625 C91.8340625 64.280625 91.5040625 75.170625 91.1640625 86.390625 C100.19921527 86.23262206 100.19921527 86.23262206 109.23339844 86.03027344 C110.92384277 86.01528809 110.92384277 86.01528809 112.6484375 86 C113.80053711 85.97905273 114.95263672 85.95810547 116.13964844 85.93652344 C119.88542351 86.49893397 120.81666536 87.48016316 123.1640625 90.390625 C123.66742706 92.74572754 123.66742706 92.74572754 123.67199707 95.40039062 C123.68891602 96.91451538 123.68891602 96.91451538 123.70617676 98.45922852 C123.69403137 100.11136353 123.69403137 100.11136353 123.68164062 101.796875 C123.69215454 103.5437561 123.69215454 103.5437561 123.70288086 105.32592773 C123.72050682 109.18106833 123.70882091 113.03547674 123.6953125 116.890625 C123.69800607 119.56576453 123.70188103 122.24088169 123.70690918 124.91601562 C123.71418447 130.5248205 123.70460121 136.13341463 123.68554688 141.7421875 C123.66377807 148.22480407 123.67082955 154.70691742 123.6928525 161.18952179 C123.71101009 166.75739089 123.71356316 172.32510859 123.70309782 177.89299774 C123.69686472 181.2175817 123.69759448 184.54187752 123.70924377 187.86645508 C123.71937998 191.57277657 123.70394735 195.27812607 123.68164062 198.984375 C123.68973755 200.08579834 123.69783447 201.18722168 123.70617676 202.32202148 C123.68925781 203.83614624 123.68925781 203.83614624 123.67199707 205.38085938 C123.66973492 206.6949176 123.66973492 206.6949176 123.66742706 208.03552246 C122.98617101 211.22292972 121.73230082 212.43758695 119.1640625 214.390625 C117.8440625 214.390625 116.5240625 214.390625 115.1640625 214.390625 C115.1640625 219.670625 115.1640625 224.950625 115.1640625 230.390625 C117.1440625 230.720625 119.1240625 231.050625 121.1640625 231.390625 C123.41912228 234.77321467 123.41813754 235.92445683 123.43148804 239.88755798 C123.44428299 241.60156044 123.44428299 241.60156044 123.45733643 243.35018921 C123.45643005 244.60481964 123.45552368 245.85945007 123.45458984 247.15209961 C123.46057377 248.48594032 123.46737901 249.81977756 123.47494507 251.15361023 C123.49262508 254.77757101 123.49730125 258.40143738 123.49857664 262.02543712 C123.50047511 265.04986526 123.50783195 268.07427138 123.51492083 271.09869105 C123.5312096 278.23336722 123.5360893 285.36799292 123.53466797 292.50268555 C123.53346603 299.86512147 123.55457693 307.22726448 123.5861553 314.58962625 C123.6122954 320.90903159 123.62303624 327.22834112 123.62175715 333.54780012 C123.62124689 337.32288981 123.62696506 341.09771917 123.64811325 344.87275505 C123.66745811 348.42282668 123.66764648 351.97238864 123.65307999 355.5224781 C123.64998736 357.44685452 123.66669416 359.37123078 123.68395996 361.29553223 C123.67557098 362.44102036 123.66718201 363.58650848 123.65853882 364.76670837 C123.65962835 365.76203551 123.66071789 366.75736265 123.66184044 367.78285122 C123.01345371 371.17963879 121.81402826 372.21750552 119.1640625 374.390625 C116.83342814 374.89383101 116.83342814 374.89383101 114.20530319 374.89843369 C113.20108786 374.90988127 112.19687253 374.92132886 111.16222644 374.93312335 C110.06106659 374.92536293 108.95990674 374.91760252 107.82537842 374.90960693 C106.65406474 374.91710819 105.48275107 374.92460944 104.27594304 374.932338 C101.02394549 374.94914424 97.77251667 374.94803683 94.52050495 374.93943048 C91.01401643 374.93449284 87.5076383 374.9525615 84.00119019 374.96784973 C77.92580402 374.99118339 71.85053728 374.99990933 65.77510834 374.99874115 C56.99106533 374.99707323 48.20718173 375.01739311 39.42318121 375.04309645 C25.17210253 375.08419943 10.92105249 375.10749593 -3.33007812 375.11962891 C-17.17450717 375.13145368 -31.0188823 375.15164323 -44.86328125 375.18310547 C-45.71651109 375.18504157 -46.56974093 375.18697767 -47.44882622 375.18897244 C-51.72918839 375.19873688 -56.00955015 375.20866602 -60.28991175 375.21867704 C-95.80522918 375.30152811 -131.32054203 375.35549557 -166.8359375 375.390625 C-164.83887778 378.85807828 -162.84107783 382.325104 -160.84266663 385.79177856 C-159.83895718 387.5332557 -158.8357909 389.27504585 -157.8326416 391.0168457 C-152.76927643 399.79918147 -147.65269876 408.5487745 -142.4941864 417.27566528 C-139.67256302 422.06138099 -136.97536434 426.90190517 -134.40625 431.828125 C-133.9023877 432.79363281 -133.39852539 433.75914062 -132.87939453 434.75390625 C-131.80525076 437.46816754 -131.57016381 438.72268548 -132.2734375 441.515625 C-133.8359375 444.390625 -133.8359375 444.390625 -136.8359375 446.390625 C-144.18133167 447.29966826 -148.89306897 444.82806681 -155.2734375 441.390625 C-157.21133524 440.3823745 -159.1501498 439.37588434 -161.08984375 438.37109375 C-162.05035645 437.86884277 -163.01086914 437.3665918 -164.00048828 436.84912109 C-168.18862318 434.69483163 -172.44034889 432.68768994 -176.7109375 430.703125 C-177.43595459 430.36474609 -178.16097168 430.02636719 -178.90795898 429.67773438 C-180.54945983 428.912873 -182.19249925 428.15131459 -183.8359375 427.390625 C-184.63387784 431.74729613 -185.07224221 436.02127289 -185.3359375 440.44140625 C-185.37654297 441.0996489 -185.41714844 441.75789154 -185.45898438 442.43608093 C-185.58759256 444.52492828 -185.71215104 446.61398678 -185.8359375 448.703125 C-187.2369734 472.16773997 -187.2369734 472.16773997 -189.3359375 476.453125 C-192.47043396 478.88235976 -194.56007474 479.33331643 -198.48632812 479.02368164 C-204.08377101 477.5155593 -207.04623392 470.1470615 -209.7734375 465.421875 C-210.79937584 463.58096075 -211.81996927 461.7370603 -212.8359375 459.890625 C-213.97641746 457.84554648 -215.11839466 455.80130234 -216.26171875 453.7578125 C-216.84775879 452.70948242 -217.43379883 451.66115234 -218.03759766 450.58105469 C-220.97968448 445.36150669 -223.99825922 440.18733 -227.0234375 435.015625 C-227.60432129 434.02095215 -228.18520508 433.0262793 -228.78369141 432.00146484 C-231.48584929 427.38130171 -234.20100932 422.76946598 -236.94140625 418.171875 C-237.41231689 417.37958496 -237.88322754 416.58729492 -238.3684082 415.77099609 C-239.23926499 414.30800737 -240.11388213 412.84724798 -240.99291992 411.38916016 C-243.8359375 406.6126971 -243.8359375 406.6126971 -243.8359375 404.390625 C-244.4959375 404.390625 -245.1559375 404.390625 -245.8359375 404.390625 C-246.1134082 405.11918701 -246.39087891 405.84774902 -246.67675781 406.59838867 C-247.76409415 409.21756848 -248.98490765 411.60185242 -250.3828125 414.06640625 C-250.89086426 414.96456055 -251.39891602 415.86271484 -251.92236328 416.78808594 C-252.74583252 418.23103027 -252.74583252 418.23103027 -253.5859375 419.703125 C-254.15940918 420.7127832 -254.73288086 421.72244141 -255.32373047 422.76269531 C-260.63200673 432.08419535 -266.03218682 441.35145685 -271.45703125 450.60546875 C-273.67863793 454.39840926 -275.87910446 458.20223664 -278.05859375 462.01953125 C-278.56052246 462.89641602 -279.06245117 463.77330078 -279.57958984 464.67675781 C-280.51483079 466.31319226 -281.44638802 467.95173976 -282.37353516 469.59277344 C-282.78780762 470.31625977 -283.20208008 471.03974609 -283.62890625 471.78515625 C-283.9849292 472.41268799 -284.34095215 473.04021973 -284.70776367 473.68676758 C-286.44610467 476.31214775 -287.82173694 478.16649228 -290.95703125 478.859375 C-291.72144531 478.8696875 -292.48585938 478.88 -293.2734375 478.890625 C-294.41619141 478.93703125 -294.41619141 478.93703125 -295.58203125 478.984375 C-297.8359375 478.390625 -297.8359375 478.390625 -300.05078125 476.578125 C-302.70998294 471.82996619 -302.68953785 467.25664161 -302.9609375 461.890625 C-303.1052009 459.65224202 -303.25106362 457.41396159 -303.3984375 455.17578125 C-303.46804688 454.0480127 -303.53765625 452.92024414 -303.609375 451.75830078 C-303.95609571 446.6045665 -304.45178609 441.46795927 -304.9609375 436.328125 C-305.04875488 435.42449219 -305.13657227 434.52085937 -305.22705078 433.58984375 C-305.42810491 431.52325098 -305.63169947 429.45690554 -305.8359375 427.390625 C-306.55547607 427.7530127 -307.27501465 428.11540039 -308.01635742 428.48876953 C-310.75345518 429.86597249 -313.49153011 431.24120976 -316.23022461 432.61523438 C-317.97127106 433.48943169 -319.71123862 434.36577667 -321.45117188 435.2421875 C-327.24447952 438.1470939 -333.05604769 441.00928234 -338.9140625 443.78125 C-339.94305664 444.26883789 -340.97205078 444.75642578 -342.03222656 445.25878906 C-346.06144295 446.88535186 -348.55853435 447.16833466 -352.8359375 446.390625 C-355.55667912 444.50703465 -356.55591938 443.23356613 -357.59375 440.109375 C-357.91484977 436.50477117 -356.94704084 434.78418441 -355.2734375 431.578125 C-354.96970215 430.99409912 -354.6659668 430.41007324 -354.35302734 429.80834961 C-348.87541159 419.47315197 -342.7993984 409.44941201 -336.8359375 399.390625 C-335.89059649 397.78777723 -334.94528124 396.18491427 -334 394.58203125 C-333.19601415 393.2261462 -332.3913851 391.87064222 -331.5859375 390.515625 C-331.22773926 389.90984619 -330.86954102 389.30406738 -330.50048828 388.67993164 C-329.08762486 386.32226358 -327.788952 384.3436395 -325.8359375 382.390625 C-323.671875 382.1953125 -323.671875 382.1953125 -321.2109375 382.265625 C-320.39367187 382.28367187 -319.57640625 382.30171875 -318.734375 382.3203125 C-317.79464844 382.35511719 -317.79464844 382.35511719 -316.8359375 382.390625 C-316.5884375 381.730625 -316.3409375 381.070625 -316.0859375 380.390625 C-314.8359375 377.390625 -314.8359375 377.390625 -313.70703125 375.453125 C-312.55419224 373.44421742 -311.55278466 371.59493003 -310.8359375 369.390625 C-311.90114879 366.58732762 -311.90114879 366.58732762 -313.8359375 364.390625 C-315.02895032 360.95782683 -314.96935046 357.6247837 -314.9609375 354.015625 C-314.96351563 352.91476562 -314.96609375 351.81390625 -314.96875 350.6796875 C-314.8359375 347.390625 -314.8359375 347.390625 -314.2890625 344.1796875 C-313.70840582 340.60564553 -314.22257989 338.61734022 -315.8359375 335.390625 C-317.47826522 334.66606865 -319.15218585 334.01288105 -320.8359375 333.390625 C-326.88276309 329.23117837 -331.11787386 324.62570047 -332.8359375 317.390625 C-333.94165722 308.39743791 -333.28623144 300.8216022 -327.8359375 293.390625 C-324.8932091 290.1730632 -322.21718855 287.82034755 -318.0234375 286.515625 C-315.71947375 285.61847095 -315.71947375 285.61847095 -315.05078125 283.640625 C-313.97071402 279.74952186 -313.8193257 277.28763689 -314.8359375 273.390625 C-315.03018505 271.18730274 -315.14720724 268.97657492 -315.2109375 266.765625 C-315.25992188 265.61835938 -315.30890625 264.47109375 -315.359375 263.2890625 C-314.84942567 259.49108163 -314.25171621 258.25741862 -312.34046936 255.12619019 C-308.81938154 248.22886713 -309.16000695 241.26206468 -309.23999023 233.72314453 C-309.23808321 232.16167283 -309.23392101 230.60020251 -309.22769165 229.03874207 C-309.21894441 225.69545137 -309.2255695 222.35268199 -309.24435234 219.00943375 C-309.27356957 213.72302278 -309.26561926 208.43705583 -309.25245667 203.15060425 C-309.23185041 192.89209696 -309.24737212 182.63380766 -309.26792908 172.37531281 C-309.2931235 159.29567526 -309.30595834 146.21615694 -309.27797276 133.1365155 C-309.26801577 127.88051162 -309.27815288 122.62504329 -309.30388057 117.36909795 C-309.3160358 114.10532813 -309.3118572 110.84172633 -309.30330276 107.57795143 C-309.30276697 106.06380533 -309.309124 104.54963892 -309.32284355 103.03555489 C-309.34065351 100.97008475 -309.33398509 98.90608144 -309.3212738 96.84060669 C-309.32408072 95.68476137 -309.32688765 94.52891605 -309.32977962 93.33804512 C-308.8359375 90.390625 -308.8359375 90.390625 -307.1566782 88.01924706 C-304.28654555 86.00507919 -302.70754839 85.8879835 -299.21875 85.88269043 C-298.07470703 85.87141113 -296.93066406 85.86013184 -295.75195312 85.84851074 C-293.87540039 85.86065613 -293.87540039 85.86065613 -291.9609375 85.87304688 C-290.62694535 85.86762532 -289.2929592 85.86050246 -287.95898438 85.85180664 C-284.33908402 85.83357387 -280.71963976 85.84064026 -277.09973145 85.85332298 C-273.3112668 85.86345105 -269.52284118 85.85405785 -265.734375 85.84777832 C-259.37232452 85.84050132 -253.01045978 85.85009087 -246.6484375 85.86914062 C-239.29333613 85.89090964 -231.93867827 85.88385829 -224.58358765 85.861835 C-218.26838383 85.84368238 -211.95331352 85.84112195 -205.63809204 85.85158968 C-201.86640147 85.85782544 -198.09491936 85.85865818 -194.32324219 85.84544373 C-190.77721397 85.83388765 -187.23175747 85.84190556 -183.68579102 85.86502075 C-181.76384263 85.87283186 -179.84184588 85.86094978 -177.91992188 85.84851074 C-176.20385742 85.86542969 -176.20385742 85.86542969 -174.453125 85.88269043 C-173.45909668 85.88419853 -172.46506836 85.88570663 -171.44091797 85.88726044 C-168.07272951 86.53810091 -166.86522614 87.66067932 -164.8359375 90.390625 C-164.8359375 91.710625 -164.8359375 93.030625 -164.8359375 94.390625 C-159.5559375 94.390625 -154.2759375 94.390625 -148.8359375 94.390625 C-148.85688477 92.59399414 -148.87783203 90.79736328 -148.89941406 88.94628906 C-148.96394017 83.00716919 -149.00988769 77.06814856 -149.04318619 71.12878799 C-149.06405263 67.52804214 -149.09235171 63.92767584 -149.13769531 60.32714844 C-149.18118875 56.85174587 -149.20508171 53.37670812 -149.21544647 49.90105438 C-149.22642365 47.93116716 -149.2576445 45.96142653 -149.28912354 43.99176025 C-149.28942566 42.79081726 -149.28972778 41.58987427 -149.29003906 40.35253906 C-149.29892151 39.29552795 -149.30780396 38.23851685 -149.31695557 37.1494751 C-148.69784514 33.59860461 -147.71283254 32.52541223 -144.8359375 30.390625 C-142.03631592 29.32046509 -142.03631592 29.32046509 -138.75292969 28.50634766 C-137.51056046 28.1909906 -136.26819122 27.87563354 -134.98817444 27.55072021 C-133.61978005 27.2184638 -132.25132411 26.88646078 -130.8828125 26.5546875 C-129.44825321 26.19591675 -128.01400954 25.83588192 -126.58006287 25.47467041 C-122.72004304 24.50604361 -118.85595966 23.55469189 -114.99077988 22.60689545 C-110.97507374 21.61956739 -106.9629135 20.61804241 -102.95043945 19.61767578 C-98.05119726 18.39725331 -93.15151238 17.17871231 -88.24995422 15.96762085 C-78.49183197 13.55601337 -68.74498605 11.1051345 -59.00934219 8.60434341 C-54.54855366 7.45968731 -50.08553066 6.32376407 -45.6229248 5.18621826 C-43.23911622 4.57654307 -40.85620465 3.96334883 -38.47424316 3.34649658 C-35.1743494 2.49332167 -31.87098712 1.65511818 -28.56640625 0.8203125 C-27.6184166 0.57122131 -26.67042694 0.32213013 -25.69371033 0.06549072 C-16.78043023 -2.15691677 -8.9031836 -2.18347823 0 0 Z M-132.8359375 49.390625 C-132.8359375 64.240625 -132.8359375 79.090625 -132.8359375 94.390625 C-127.5559375 94.390625 -122.2759375 94.390625 -116.8359375 94.390625 C-116.8359375 80.860625 -116.8359375 67.330625 -116.8359375 53.390625 C-125.3887239 50.2415538 -125.3887239 50.2415538 -132.8359375 49.390625 Z " fill="#464A51" transform="translate(372.8359375,17.609375)"/>
<path d="M0 0 C5.28 0 10.56 0 16 0 C16 7.92 16 15.84 16 24 C13.26428711 24.0093457 10.52857422 24.01869141 7.70996094 24.02832031 C-1.32267387 24.06206763 -10.35507965 24.11760395 -19.38753128 24.18390274 C-24.86464904 24.22343408 -30.34160467 24.25559482 -35.81884766 24.27099609 C-41.10342246 24.28612538 -46.38755168 24.3205046 -51.67192841 24.36830902 C-53.68932983 24.38316134 -55.70679487 24.39104321 -57.72425079 24.39188385 C-60.54744636 24.39424368 -63.3694006 24.42124362 -66.19238281 24.45410156 C-67.02891891 24.4490712 -67.86545502 24.44404083 -68.7273407 24.43885803 C-72.38495151 24.50484419 -74.54979182 24.66221639 -77.51933289 26.89021301 C-79.28225066 29.40217599 -79.49707738 30.76083811 -79.50390625 33.80859375 C-79.52259766 34.72060547 -79.54128906 35.63261719 -79.56054688 36.57226562 C-79.56151367 37.99055664 -79.56151367 37.99055664 -79.5625 39.4375 C-79.61849855 51.12519716 -79.61849855 51.12519716 -83 55 C-85.8710464 55.95701547 -87.76044303 56.13591138 -90.74609375 56.17578125 C-91.66583984 56.19962891 -92.58558594 56.22347656 -93.53320312 56.24804688 C-95.46527176 56.29092399 -97.39763289 56.32222451 -99.33007812 56.34179688 C-100.25111328 56.36951172 -101.17214844 56.39722656 -102.12109375 56.42578125 C-102.9608374 56.44036377 -103.80058105 56.45494629 -104.66577148 56.4699707 C-107.83904638 57.19052083 -108.95025405 58.50333006 -111 61 C-111.5871781 63.50285151 -111.5871781 63.50285151 -111.48583984 66.25585938 C-111.4919931 67.30374634 -111.49814636 68.3516333 -111.50448608 69.43127441 C-111.49011505 70.55739136 -111.47574402 71.6835083 -111.4609375 72.84375 C-111.46002106 74.0049939 -111.45910461 75.16623779 -111.4581604 76.3626709 C-111.45211999 78.81718026 -111.43636101 81.27168211 -111.41162109 83.72607422 C-111.37513947 87.48562752 -111.37060158 91.24419452 -111.37109375 95.00390625 C-111.3612617 97.38802936 -111.34960431 99.77214579 -111.3359375 102.15625 C-111.33371185 103.28236694 -111.33148621 104.40848389 -111.32919312 105.56872559 C-111.31643341 106.61661255 -111.30367371 107.66449951 -111.29052734 108.74414062 C-111.28290375 109.66473267 -111.27528015 110.58532471 -111.26742554 111.53381348 C-110.98304688 114.15634095 -110.41420652 115.78446567 -109 118 C-106.22899606 119.38550197 -104.0665294 119.1877467 -101 119 C-97.75150023 117.27773504 -97.75150023 117.27773504 -97 114 C-96.88705254 112.60420727 -96.82410813 111.20400091 -96.79467773 109.80395508 C-96.77473251 108.96331009 -96.75478729 108.1226651 -96.73423767 107.25654602 C-96.70916893 105.90172371 -96.70916893 105.90172371 -96.68359375 104.51953125 C-96.66281265 103.59154221 -96.64203156 102.66355316 -96.62062073 101.70744324 C-96.55522677 98.7425376 -96.49628738 95.77754328 -96.4375 92.8125 C-96.39430513 90.8027252 -96.35069053 88.79295937 -96.30664062 86.78320312 C-96.19955573 81.85555968 -96.09825955 76.92782701 -96 72 C-94.67718018 71.91890991 -94.67718018 71.91890991 -93.32763672 71.83618164 C-92.16506348 71.75746826 -91.00249023 71.67875488 -89.8046875 71.59765625 C-88.65468262 71.52297119 -87.50467773 71.44828613 -86.31982422 71.37133789 C-78.37320629 70.48247145 -73.53456722 67.17984919 -68.41015625 61.1953125 C-64.07298439 54.44326102 -64.622399 48.09118704 -64 40 C-47.83 40 -31.66 40 -15 40 C-15 44.29 -15 48.58 -15 53 C-12.75809831 60.28618051 -9.34560559 64.73414596 -3 69 C2.92174532 71.85121071 9.12338464 71.96915384 15.46875 70.3828125 C21.3734818 68.09776218 25.58426735 64.31756718 29 59 C30.75684193 54.68829303 31.34140422 50.75706434 31.625 46.125 C31.74875 44.10375 31.8725 42.0825 32 40 C37.28 40 42.56 40 48 40 C48.29296875 43.28776042 48.5859375 46.57552083 48.87890625 49.86328125 C49.70177895 53.26896888 49.70177895 53.26896888 52.98657227 54.61157227 C57.3417637 56.30593752 61.71411168 56.84773031 66.3359375 57.3515625 C67.65411972 57.50810806 67.65411972 57.50810806 68.99893188 57.66781616 C71.78989308 57.99689119 74.5822892 58.31115802 77.375 58.625 C79.24230133 58.8427762 81.10949036 59.06151752 82.9765625 59.28125 C87.20859193 59.77677644 91.44142845 60.26403143 95.67588806 60.73835754 C97.24557685 60.91506901 98.81487946 61.0952401 100.38380432 61.27861023 C106.98338447 62.04037397 113.54778314 62.34724402 120.1875 62.5625 C122.11613892 62.6251001 122.11613892 62.6251001 124.08374023 62.68896484 C163.22749334 63.8678394 201.09038049 62.07516776 240 57 C240 104.19 240 151.38 240 200 C235.38 200.33 230.76 200.66 226 201 C219.27124374 203.36928037 215.05115049 207.12035727 211 213 C208.19516009 219.27671865 208.19516009 219.27671865 208 232 C140.35 232 72.7 232 3 232 C4.32 228.7 5.64 225.4 7 222 C8.26560249 214.73806019 7.17774546 208.58023563 3.5546875 202.18359375 C1.14928907 198.80515726 -1.68192585 196.44297767 -5 194 C-10.84859813 189.30280374 -10.84859813 189.30280374 -12 187 C-11.91031453 185.4955985 -11.75408617 183.99484518 -11.5625 182.5 C-10.37380517 171.33590664 -11.04929261 164.41989951 -17 154.75 C-21.36162738 149.88563053 -28.83392017 147.2631949 -35.1953125 146.734375 C-38.22113214 146.78176623 -38.22113214 146.78176623 -40.9375 149.125 C-43.30359785 151.83348118 -43.30359785 151.83348118 -43 155.125 C-41.80126173 158.71459191 -41.80126173 158.71459191 -39 161 C-37.72125 161.268125 -36.4425 161.53625 -35.125 161.8125 C-31.96328706 162.51834366 -30.19111841 163.33976975 -28 165.75 C-25.82329266 169.28714943 -25.44596242 170.93705772 -26 175 C-26.33 175.66 -26.66 176.32 -27 177 C-27.88775009 185.72531514 -27.22114945 192.78484373 -22 200 C-19.84124628 202.2792423 -17.5235237 204.14202101 -15 206 C-9.15140187 210.69719626 -9.15140187 210.69719626 -8 213 C-7.58298997 217.69136282 -7.9829515 220.34297152 -11 224 C-13.23598588 225.59229298 -15.53260953 227.0605803 -17.84765625 228.53515625 C-22.56572215 231.74618114 -25.63108344 236.47400595 -27 242 C-27.44728324 247.72682297 -27.17049806 253.22514708 -26.1875 258.875 C-25.84661766 261.40858499 -25.77567033 262.57467095 -26.9765625 264.8515625 C-28.74919605 267.03884718 -30.46996197 268.73498099 -33 270 C-35.10325368 269.76253588 -37.2063599 269.52367292 -39.30859375 269.27734375 C-48.70255774 268.30931553 -56.06417828 268.35580594 -64 274 C-67.16943079 276.94160701 -69.46708459 280.07764641 -71.625 283.8125 C-73.23200499 286.36909884 -74.13486952 287.09953042 -77 288 C-81.03517054 288.61404769 -82.56945534 288.28702977 -86 286 C-88.34305684 283.85829961 -90.15202646 281.51215063 -92 278.9375 C-95.66337337 273.85851499 -100.07554976 270.97199558 -106 269 C-109.2863748 268.72244993 -109.2863748 268.72244993 -112.6875 268.8125 C-113.82574219 268.81894531 -114.96398437 268.82539063 -116.13671875 268.83203125 C-118.94447181 268.80804161 -118.94447181 268.80804161 -121 270 C-123.96395382 270.40417552 -126.08904926 270.56382171 -128.69140625 268.953125 C-130.88450678 267.15636794 -132.7209562 265.55808759 -134 263 C-133.76253588 260.89674632 -133.52367292 258.7936401 -133.27734375 256.69140625 C-132.30931553 247.29744226 -132.35580594 239.93582172 -138 232 C-140.94136961 228.830825 -144.04046262 226.53307632 -147.8125 224.4375 C-150.63584486 222.58215909 -151.16931252 221.24723288 -152 218 C-152.4375 215 -152.4375 215 -152 212 C-149.38840667 208.73550833 -146.30126065 206.48315018 -142.9375 204.0625 C-137.61185757 200.14098175 -134.4421233 195.48955485 -133 189 C-132.69428466 183.45009069 -132.72096898 178.0826551 -133.8125 172.625 C-134 169 -134 169 -132 165.5625 C-128.49785079 162.57108089 -126.5559344 162.08436916 -122 162 C-121.01 162.33 -120.02 162.66 -119 163 C-110.26002938 163.85806163 -103.23536586 163.2299112 -96 158 C-92.83304405 155.05446258 -90.53354282 151.9234395 -88.375 148.1875 C-86.76799501 145.63090116 -85.86513048 144.90046958 -83 144 C-80.25 143.4375 -80.25 143.4375 -77 144 C-73.70703436 146.3685184 -70.86208605 149.13791395 -68 152 C-64.82184971 152.28250225 -62.5819821 152.24504509 -59.625 151 C-57.56227142 148.46125713 -57.31377904 146.36014015 -57.4921875 143.125 C-58.63210934 138.35486551 -61.99845032 135.2653475 -66.0390625 132.7109375 C-72.53601506 129.32862887 -78.6799711 128.08761817 -86 129 C-93.11116735 131.32520575 -97.63126 135.06633821 -102 141 C-106.69719626 146.84859813 -106.69719626 146.84859813 -109 148 C-111.06640625 147.9140625 -111.06640625 147.9140625 -113.5625 147.625 C-114.36816406 147.53476562 -115.17382812 147.44453125 -116.00390625 147.3515625 C-116.99261719 147.23554688 -117.98132813 147.11953125 -119 147 C-121.97 146.67 -124.94 146.34 -128 146 C-128 100.46 -128 54.92 -128 8 C-67.25 7.625 -67.25 7.625 -48.05957031 7.52197266 C-42.38875374 7.48206929 -42.38875374 7.48206929 -36.71795654 7.43954468 C-34.18982175 7.4218454 -31.66165784 7.40804631 -29.13348389 7.39730835 C-25.3066375 7.38030054 -21.48006568 7.35096447 -17.65332031 7.31884766 C-16.52477253 7.31667551 -15.39622475 7.31450336 -14.23347855 7.3122654 C-13.20359188 7.30111387 -12.17370522 7.28996235 -11.11260986 7.2784729 C-9.76863569 7.27017676 -9.76863569 7.27017676 -8.39751053 7.26171303 C-5.71869381 6.96929253 -4.19374177 6.5736167 -2 5 C-1.34 3.35 -0.68 1.7 0 0 Z " fill="#8EBB93" transform="translate(208,112)"/>
<path d="M0 0 C10.89 0 21.78 0 33 0 C33 4.29 33 8.58 33 13 C35.24190169 20.28618051 38.65439441 24.73414596 45 29 C50.92174532 31.85121071 57.12338464 31.96915384 63.46875 30.3828125 C69.3734818 28.09776218 73.58426735 24.31756718 77 19 C78.75684193 14.68829303 79.34140422 10.75706434 79.625 6.125 C79.74875 4.10375 79.8725 2.0825 80 0 C85.28 0 90.56 0 96 0 C96.29296875 3.28776042 96.5859375 6.57552083 96.87890625 9.86328125 C97.70177895 13.26896888 97.70177895 13.26896888 100.98657227 14.61157227 C105.3417637 16.30593752 109.71411168 16.84773031 114.3359375 17.3515625 C115.21472565 17.45592621 116.09351379 17.56028992 116.99893188 17.66781616 C119.78989308 17.99689119 122.5822892 18.31115802 125.375 18.625 C127.24230133 18.8427762 129.10949036 19.06151752 130.9765625 19.28125 C135.20859193 19.77677644 139.44142845 20.26403143 143.67588806 20.73835754 C145.24557685 20.91506901 146.81487946 21.0952401 148.38380432 21.27861023 C154.98338447 22.04037397 161.54778314 22.34724402 168.1875 22.5625 C170.11613892 22.6251001 170.11613892 22.6251001 172.08374023 22.68896484 C211.22749334 23.8678394 249.09038049 22.07516776 288 17 C288 56.27 288 95.54 288 136 C242.46204945 136.08060607 242.46204945 136.08060607 223.32617188 136.09765625 C210.13238972 136.10950665 196.93863317 136.12341043 183.74487305 136.15087891 C174.13437888 136.17087766 164.52390557 136.18373177 154.91339117 136.18817699 C149.82956806 136.19077342 144.74580457 136.19683172 139.66200066 136.21146011 C134.86613874 136.22514672 130.07036041 136.2292005 125.27448082 136.22621536 C123.52470189 136.22676061 121.77491983 136.2306715 120.02515793 136.23841095 C91.24604508 136.35934219 63.30349487 130.32105079 41 111 C40.01 110.16984375 39.02 109.3396875 38 108.484375 C16.80124741 90.25946304 2.89146496 63.87950514 0 36 C-0.29283624 29.75389053 -0.1906502 23.50039405 -0.125 17.25 C-0.11494397 15.57031787 -0.10582278 13.89062988 -0.09765625 12.2109375 C-0.07758436 8.14035725 -0.03840199 4.07061119 0 0 Z " fill="#A7D28B" transform="translate(160,152)"/>
<path d="M0 0 C3.29296564 2.3685184 6.13791395 5.13791395 9 8 C10.58387062 7.99413381 12.16767592 7.94522148 13.75 7.875 C18.24788525 7.81782349 20.18579118 8.61611948 24 11 C26.60567511 11.29921628 29.17110025 11.43713119 31.79296875 11.49609375 C32.88544922 11.74552734 32.88544922 11.74552734 34 12 C34.68045254 13.32635085 35.34663778 14.66009701 36 16 C38.23654158 16.91331397 38.23654158 16.91331397 40.8125 17.375 C46.12177878 18.79644222 48.20418297 20.24711105 51 25 C51.37239025 28.22738221 51.45147903 30.09704195 50 33 C49.11224991 41.72531514 49.77885055 48.78484373 55 56 C57.15875372 58.2792423 59.4764763 60.14202101 62 62 C67.84859813 66.69719626 67.84859813 66.69719626 69 69 C69.41701003 73.69136282 69.0170485 76.34297152 66 80 C63.76401412 81.59229298 61.46739047 83.0605803 59.15234375 84.53515625 C54.43427785 87.74618114 51.36891656 92.47400595 50 98 C49.55271676 103.72682297 49.82950194 109.22514708 50.8125 114.875 C51.15338234 117.40858499 51.22432967 118.57467095 50.0234375 120.8515625 C48.25080395 123.03884718 46.53003803 124.73498099 44 126 C41.89674632 125.76253588 39.7936401 125.52367292 37.69140625 125.27734375 C28.29744226 124.30931553 20.93582172 124.35580594 13 130 C9.83056921 132.94160701 7.53291541 136.07764641 5.375 139.8125 C3.76799501 142.36909884 2.86513048 143.09953042 0 144 C-4.03517054 144.61404769 -5.56945534 144.28702977 -9 142 C-11.34305684 139.85829961 -13.15202646 137.51215063 -15 134.9375 C-18.66337337 129.85851499 -23.07554976 126.97199558 -29 125 C-32.2863748 124.72244993 -32.2863748 124.72244993 -35.6875 124.8125 C-36.82574219 124.81894531 -37.96398437 124.82539063 -39.13671875 124.83203125 C-41.94447181 124.80804161 -41.94447181 124.80804161 -44 126 C-46.96395382 126.40417552 -49.08904926 126.56382171 -51.69140625 124.953125 C-53.88450678 123.15636794 -55.7209562 121.55808759 -57 119 C-56.76253588 116.89674632 -56.52367292 114.7936401 -56.27734375 112.69140625 C-55.30931553 103.29744226 -55.35580594 95.93582172 -61 88 C-63.94136961 84.830825 -67.04046262 82.53307632 -70.8125 80.4375 C-73.63584486 78.58215909 -74.16931252 77.24723288 -75 74 C-75.4375 71 -75.4375 71 -75 68 C-72.38840667 64.73550833 -69.30126065 62.48315018 -65.9375 60.0625 C-60.61185757 56.14098175 -57.4421233 51.48955485 -56 45 C-55.69428466 39.45009069 -55.72096898 34.0826551 -56.8125 28.625 C-57 25 -57 25 -55 21.5625 C-51.49785079 18.57108089 -49.5559344 18.08436916 -45 18 C-44.01 18.33 -43.02 18.66 -42 19 C-33.26002938 19.85806163 -26.23536586 19.2299112 -19 14 C-15.83304405 11.05446258 -13.53354282 7.9234395 -11.375 4.1875 C-8.65175693 -0.14493216 -4.89187357 -0.84667043 0 0 Z " fill="#FC6363" transform="translate(131,256)"/>
<path d="M0 0 C11.27071634 2.50460363 22.49453857 5.04744815 33.6875 7.85546875 C35.09184421 8.20621645 36.49622326 8.5568247 37.90063477 8.90730286 C40.79807167 9.63093602 43.69508924 10.35621694 46.59179688 11.08276367 C50.30527142 12.01402281 54.01981393 12.94094333 57.73466492 13.86669445 C60.61403677 14.58473643 63.49284792 15.30500512 66.37149048 16.02596474 C67.7428766 16.36914424 69.11443712 16.71162762 70.48617554 17.05339622 C72.38588308 17.52705836 74.28476055 18.004046 76.18359375 18.48120117 C77.26181396 18.75115402 78.34003418 19.02110687 79.45092773 19.29924011 C82 20 82 20 84 21 C92.53751464 20.94614683 100.64046981 19.11143514 108.859375 16.98046875 C110.04742737 16.68062576 111.23547974 16.38078278 112.45953369 16.07185364 C116.22534999 15.11930928 119.98767178 14.1537189 123.75 13.1875 C126.25758897 12.55055165 128.7654 11.91447682 131.2734375 11.27929688 C136.06825684 10.06373507 140.86185603 8.84355722 145.65429688 7.61865234 C153.09597173 5.71773884 160.54637957 3.85344333 168 2 C170.64 1.34 173.28 0.68 176 0 C176 26.07 176 52.14 176 79 C164.5793891 81.28412218 153.18883158 82.79861538 141.625 84.0625 C140.91996338 84.14177734 140.21492676 84.22105469 139.48852539 84.30273438 C123.6639645 85.97494905 107.83552592 86.2044263 91.9375 86.1875 C90.88474884 86.18689575 89.83199768 86.1862915 88.74734497 86.18566895 C28.36816398 86.09204099 28.36816398 86.09204099 0 79 C0 52.93 0 26.86 0 0 Z " fill="#007FFD" transform="translate(272,74)"/>
<path d="M0 0 C5.28 0 10.56 0 16 0 C16.00808685 1.31909363 16.01617371 2.63818726 16.02450562 3.99725342 C16.10192402 16.41652118 16.18965248 28.83567881 16.28752708 41.2548027 C16.33751498 47.63989837 16.38384492 54.02497728 16.421875 60.41015625 C16.45869611 66.56992297 16.50504763 72.72955042 16.55806351 78.8891983 C16.5766243 81.24154472 16.59172599 83.593921 16.60334396 85.94631195 C16.62017736 89.23616356 16.64920587 92.52569502 16.68115234 95.81542969 C16.68331253 96.79222687 16.68547272 97.76902405 16.68769836 98.77542114 C16.70444359 100.12151962 16.70444359 100.12151962 16.7215271 101.49481201 C16.72705786 102.27280529 16.73258862 103.05079857 16.73828697 103.8523674 C17.04862546 106.3990234 17.51995983 107.89332579 19 110 C20.65 110.66 22.3 111.32 24 112 C24 117.28 24 122.56 24 128 C22.02 128.99 20.04 129.98 18 131 C-0.6362848 168.2725696 16.33878555 214.3293775 16 256 C-77.06 256 -170.12 256 -266 256 C-266.66 250.72 -267.32 245.44 -268 240 C-266.81832874 239.99668985 -265.63665749 239.99337971 -264.41917801 239.98996925 C-236.38019186 239.91098273 -208.34125178 239.82177468 -180.30233915 239.71994839 C-176.85260137 239.70742924 -173.40286328 239.69499651 -169.953125 239.68261719 C-169.26633284 239.68015119 -168.57954069 239.6776852 -167.87193665 239.67514448 C-156.74576015 239.63540102 -145.61957347 239.60266071 -134.49336734 239.57250018 C-123.08019056 239.54140617 -111.66706352 239.50265717 -100.25393367 239.45720994 C-93.84195189 239.43192098 -87.43000084 239.41014677 -81.01798248 239.39665604 C-74.98685487 239.38385747 -68.9558325 239.36182688 -62.92476273 239.33261681 C-60.70757558 239.32352377 -58.49037149 239.3178468 -56.27316666 239.31578636 C-53.2528931 239.31247603 -50.23292017 239.29703182 -47.21270752 239.2784729 C-45.88780741 239.281375 -45.88780741 239.281375 -44.53614163 239.28433573 C-43.32242387 239.27313749 -43.32242387 239.27313749 -42.08418655 239.26171303 C-41.38702003 239.25943471 -40.6898535 239.25715638 -39.97156072 239.25480902 C-37.58680296 238.94659747 -36.01683715 238.30696905 -34 237 C-33.04123475 234.12370425 -32.87673176 232.27731728 -32.859375 229.2890625 C-32.84003906 228.37382812 -32.82070313 227.45859375 -32.80078125 226.515625 C-32.76706801 224.59656371 -32.74870868 222.67716812 -32.74609375 220.7578125 C-32.62934299 216.38273153 -32.40851133 213.67577755 -30.11328125 209.87890625 C-25.60381141 207.15738179 -21.61353532 207.29478598 -16.4375 207.3125 C-14.5611085 207.29587213 -12.68476612 207.27142917 -10.80859375 207.23828125 C-9.56807251 207.2388855 -9.56807251 207.2388855 -8.30249023 207.23950195 C-5.7301867 206.97193438 -4.15076147 206.43135754 -2 205 C-0.76202624 201.28607872 -0.84665001 197.83910331 -0.84178162 193.97053528 C-0.83437465 192.729374 -0.83437465 192.729374 -0.82681805 191.46313876 C-0.81141752 188.68091293 -0.80307551 185.89871022 -0.79467773 183.11645508 C-0.78510122 181.12588802 -0.77509127 179.135323 -0.76467896 177.14476013 C-0.73759928 171.73190032 -0.7166063 166.31903175 -0.69667697 160.90614152 C-0.6748363 155.25265289 -0.64743823 149.59919131 -0.62062073 143.94572449 C-0.57066786 133.23605067 -0.52573866 122.52636186 -0.48259836 111.81665868 C-0.43324815 99.62575119 -0.37832181 87.43487084 -0.32291877 75.24398959 C-0.2090589 50.16268485 -0.10242638 25.08135381 0 0 Z " fill="#F8B43D" transform="translate(464,120)"/>
<path d="M0 0 C0.67453043 -0.00638882 1.34906087 -0.01277764 2.04403162 -0.01936007 C4.29766372 -0.03458527 6.54953056 -0.01416828 8.80310059 0.00622559 C10.42132652 0.0027236 12.039549 -0.00293586 13.65776062 -0.0105896 C18.04838486 -0.02483627 22.43838272 -0.00777747 26.82894707 0.01569557 C31.42437378 0.03580428 36.01977448 0.029925 40.61523438 0.02758789 C48.33242115 0.02764146 56.04936309 0.04739822 63.76647949 0.07946777 C72.68759387 0.11636058 81.6083875 0.12514332 90.5295682 0.11817026 C99.11262625 0.11186423 107.69557436 0.12262141 116.27861023 0.14213562 C119.93081733 0.15030875 123.58296823 0.15301933 127.23518372 0.15144348 C131.53625924 0.1505643 135.83703013 0.16478968 140.13802528 0.19067001 C141.71622046 0.19782995 143.29444804 0.19991626 144.87265587 0.19655228 C147.02765731 0.19283514 149.18177086 0.20759174 151.33666992 0.22705078 C153.14516544 0.23264385 153.14516544 0.23264385 154.99019623 0.23834991 C158.47968144 0.65899135 160.37295768 1.52661727 163.16833496 3.62145996 C164.75840028 6.80159059 164.35250573 10.24116653 164.37145996 13.73474121 C164.37716003 14.54130661 164.38286011 15.34787201 164.38873291 16.17887878 C164.39818691 17.88783454 164.40471848 19.59680856 164.40856934 21.30578613 C164.41825816 23.91329037 164.44926996 26.52000074 164.48083496 29.12731934 C164.48736681 30.78812195 164.49261657 32.4489302 164.49645996 34.10974121 C164.50880676 34.88699051 164.52115356 35.66423981 164.53387451 36.46504211 C164.51527924 41.01261479 164.09183578 44.0604236 161.16833496 47.62145996 C157.76347822 48.75641221 155.16186989 48.75306399 151.57044983 48.76190186 C150.89692268 48.76487298 150.22339553 48.7678441 149.52945846 48.77090526 C147.26787678 48.77959138 145.00634803 48.78110041 142.74475098 48.78259277 C141.1252023 48.78722092 139.50565471 48.79224558 137.8861084 48.79763794 C133.48326574 48.81076221 129.08043833 48.81720668 124.67757916 48.8216486 C121.92819275 48.82457862 119.17881051 48.82868324 116.42942619 48.83315277 C107.83092345 48.84682632 99.23243025 48.85649429 90.63391739 48.86035466 C80.70086854 48.8648385 70.76795709 48.88240207 60.83495003 48.91135526 C53.16100231 48.93294915 45.48709332 48.94305768 37.81311554 48.94439578 C33.22765221 48.94544524 28.64231807 48.95138317 24.05688667 48.96921539 C19.74523011 48.98565703 15.4338004 48.98787071 11.12212372 48.97907639 C9.53865134 48.97830397 7.95516696 48.98267557 6.37172508 48.99253464 C4.21194566 49.00519496 2.05297694 48.99941048 -0.10679626 48.98895264 C-1.31597938 48.9904192 -2.52516249 48.99188576 -3.77098751 48.99339676 C-7.11465522 48.58707069 -8.4853603 47.9996775 -10.83166504 45.62145996 C-12.78988458 39.74680133 -12.1387279 33.02613825 -12.1817627 26.86169434 C-12.19833146 25.12164952 -12.22563393 23.38167301 -12.26379395 21.64196777 C-12.31863385 19.1269621 -12.34044364 16.61354589 -12.35510254 14.09802246 C-12.37777191 13.32391022 -12.40044128 12.54979797 -12.42379761 11.75222778 C-12.40893572 7.94186001 -12.0886859 5.95115258 -9.7221756 2.91551971 C-6.1808449 0.1049352 -4.47737929 -0.00264599 0 0 Z " fill="#464A51" transform="translate(203.8316650390625,191.3785400390625)"/>
<path d="M0 0 C5.28 0 10.56 0 16 0 C16 7.92 16 15.84 16 24 C13.26428711 24.0093457 10.52857422 24.01869141 7.70996094 24.02832031 C-1.32267387 24.06206763 -10.35507965 24.11760395 -19.38753128 24.18390274 C-24.86464904 24.22343408 -30.34160467 24.25559482 -35.81884766 24.27099609 C-41.10342246 24.28612538 -46.38755168 24.3205046 -51.67192841 24.36830902 C-53.68932983 24.38316134 -55.70679487 24.39104321 -57.72425079 24.39188385 C-60.54744636 24.39424368 -63.3694006 24.42124362 -66.19238281 24.45410156 C-67.02891891 24.4490712 -67.86545502 24.44404083 -68.7273407 24.43885803 C-72.38495151 24.50484419 -74.54979182 24.66221639 -77.51933289 26.89021301 C-79.28225066 29.40217599 -79.49707738 30.76083811 -79.50390625 33.80859375 C-79.52259766 34.72060547 -79.54128906 35.63261719 -79.56054688 36.57226562 C-79.56119141 37.51779297 -79.56183594 38.46332031 -79.5625 39.4375 C-79.61849855 51.12519716 -79.61849855 51.12519716 -83 55 C-85.8710464 55.95701547 -87.76044303 56.13591138 -90.74609375 56.17578125 C-91.66583984 56.19962891 -92.58558594 56.22347656 -93.53320312 56.24804688 C-95.46527176 56.29092399 -97.39763289 56.32222451 -99.33007812 56.34179688 C-100.25111328 56.36951172 -101.17214844 56.39722656 -102.12109375 56.42578125 C-102.9608374 56.44036377 -103.80058105 56.45494629 -104.66577148 56.4699707 C-107.83904638 57.19052083 -108.95025405 58.50333006 -111 61 C-111.5871781 63.50285151 -111.5871781 63.50285151 -111.48583984 66.25585938 C-111.4919931 67.30374634 -111.49814636 68.3516333 -111.50448608 69.43127441 C-111.49011505 70.55739136 -111.47574402 71.6835083 -111.4609375 72.84375 C-111.46002106 74.0049939 -111.45910461 75.16623779 -111.4581604 76.3626709 C-111.45211999 78.81718026 -111.43636101 81.27168211 -111.41162109 83.72607422 C-111.37513947 87.48562752 -111.37060158 91.24419452 -111.37109375 95.00390625 C-111.3612617 97.38802936 -111.34960431 99.77214579 -111.3359375 102.15625 C-111.33371185 103.28236694 -111.33148621 104.40848389 -111.32919312 105.56872559 C-111.31005356 107.14055603 -111.31005356 107.14055603 -111.29052734 108.74414062 C-111.28290375 109.66473267 -111.27528015 110.58532471 -111.26742554 111.53381348 C-110.98140126 114.1715168 -110.4498375 115.78630367 -109 118 C-106.46229997 119.28254644 -106.46229997 119.28254644 -104 120 C-103.85477066 123.91627663 -103.76595243 127.83186153 -103.6875 131.75 C-103.64560547 132.86117187 -103.60371094 133.97234375 -103.56054688 135.1171875 C-103.43735776 143.29694441 -103.43735776 143.29694441 -106.22265625 146.77734375 C-109.20026651 148.08816233 -110.57718017 148.33611896 -113.75 147.8125 C-114.52859375 147.69519531 -115.3071875 147.57789063 -116.109375 147.45703125 C-117.54023437 147.23080078 -117.54023437 147.23080078 -119 147 C-121.97 146.67 -124.94 146.34 -128 146 C-128 100.46 -128 54.92 -128 8 C-67.25 7.625 -67.25 7.625 -48.05957031 7.52197266 C-42.38875374 7.48206929 -42.38875374 7.48206929 -36.71795654 7.43954468 C-34.18982175 7.4218454 -31.66165784 7.40804631 -29.13348389 7.39730835 C-25.3066375 7.38030054 -21.48006568 7.35096447 -17.65332031 7.31884766 C-16.52477253 7.31667551 -15.39622475 7.31450336 -14.23347855 7.3122654 C-13.20359188 7.30111387 -12.17370522 7.28996235 -11.11260986 7.2784729 C-10.21662708 7.27294214 -9.3206443 7.26741138 -8.39751053 7.26171303 C-5.71869381 6.96929253 -4.19374177 6.5736167 -2 5 C-1.34 3.35 -0.68 1.7 0 0 Z " fill="#F8B43D" transform="translate(208,112)"/>
<path d="M0 0 C0 15.51 0 31.02 0 47 C-10.14132926 49.25362872 -10.14132926 49.25362872 -14.6875 49.78125 C-15.70191162 49.90008545 -16.71632324 50.0189209 -17.76147461 50.14135742 C-18.83018799 50.25970947 -19.89890137 50.37806152 -21 50.5 C-22.14154541 50.62673096 -23.28309082 50.75346191 -24.45922852 50.8840332 C-27.97183679 51.26604357 -31.48558409 51.63502798 -35 52 C-36.52536377 52.16314697 -36.52536377 52.16314697 -38.08154297 52.32958984 C-50.68701619 53.64383527 -63.26507814 54.2101314 -75.93313599 54.29653931 C-77.45260304 54.3070068 -78.97204774 54.32180983 -80.49142456 54.34140015 C-98.77052911 54.54626863 -114.65615782 50.803459 -128.26953125 37.88671875 C-135.28396069 30.23893225 -143 18.69536954 -143 8 C-133.91018217 9.93187207 -124.88233798 11.96691136 -115.9296875 14.46484375 C-113.66690785 15.08197936 -111.40354431 15.69693951 -109.14013672 16.31176758 C-107.62346421 16.73074059 -106.1097437 17.16054241 -104.59912109 17.60083008 C-93.07888291 20.93771813 -84.56999463 21.19337035 -73 18 C-72.12617676 17.77965088 -71.25235352 17.55930176 -70.35205078 17.33227539 C-68.25998542 16.78704956 -66.19436799 16.18769055 -64.125 15.5625 C-57.33075438 13.59449628 -50.51828514 11.94048156 -43.60546875 10.44726562 C-36.77094299 8.96744222 -29.99967542 7.29043941 -23.22314453 5.56494141 C-18.83858067 4.45074409 -14.45046842 3.35069618 -10.0625 2.25 C-8.73726318 1.91560913 -8.73726318 1.91560913 -7.38525391 1.57446289 C-6.56847168 1.36942139 -5.75168945 1.16437988 -4.91015625 0.953125 C-4.17933838 0.76911133 -3.44852051 0.58509766 -2.69555664 0.39550781 C-1 0 -1 0 0 0 Z " fill="#289BFC" transform="translate(448,82)"/>
<path d="M0 0 C7.7799067 6.4607703 11.85561208 14.16839875 15.02734375 23.68359375 C15.96358273 36.35882915 13.83202328 47.45267689 6.02734375 57.68359375 C-1.58183498 65.84232428 -10.30116465 70.88007478 -21.515625 72.0546875 C-33.86643087 72.27972898 -43.78248983 69.0907415 -52.97265625 60.68359375 C-60.71608827 53.04820962 -64.8858272 43.80228864 -65.28515625 32.93359375 C-64.99432059 21.77919062 -61.5295656 11.63154487 -53.86328125 3.42578125 C-38.55769835 -10.87702208 -17.17071484 -12.45109702 0 0 Z " fill="#484B51" transform="translate(152.97265625,296.31640625)"/>
<path d="M0 0 C1.35472412 0.32641479 1.35472412 0.32641479 2.73681641 0.65942383 C6.92087762 1.68985697 11.08231574 2.79955309 15.24414062 3.91601562 C23.02912911 5.97638333 23.02912911 5.97638333 31 6 C33.47208796 3.64167228 33.47208796 3.64167228 35 1 C36.73030291 1.28484846 38.45920714 1.57819938 40.1875 1.875 C41.15042969 2.03742187 42.11335937 2.19984375 43.10546875 2.3671875 C45.9655664 2.99247201 48.39975251 3.64934141 51 5 C52.1875 8.5 52.1875 8.5 53 12 C55.73204405 14.73204405 58.76281242 15.10029134 62.4140625 15.9453125 C63.14370209 16.12005096 63.87334167 16.29478943 64.62509155 16.474823 C66.95685259 17.03161443 69.29082916 17.5784086 71.625 18.125 C73.20588514 18.50064627 74.7866165 18.87694039 76.3671875 19.25390625 C80.24304685 20.1767991 84.12092255 21.09073262 88 22 C88 22.66 88 23.32 88 24 C76.11180853 27.02997817 64.22046779 30.04723288 52.32494164 33.04829502 C46.80144537 34.44221452 41.27912874 35.84048936 35.75927734 37.2487793 C30.43209328 38.60774231 25.10211602 39.95518318 19.77000809 41.29469109 C17.73641935 41.80770679 15.70387046 42.32486281 13.67240524 42.84622383 C10.82640222 43.57587682 7.97705457 44.29070843 5.12646484 45.00219727 C4.28776855 45.22085953 3.44907227 45.43952179 2.58496094 45.66481018 C-1.98022478 46.78605294 -5.34305854 47.17552133 -10 46 C-11.28390625 45.73703125 -12.5678125 45.4740625 -13.890625 45.203125 C-22.47985778 43.34492504 -30.95872409 41.24544542 -39.4140625 38.85205078 C-49.36219399 36.03698685 -59.39033732 33.59879074 -69.4609375 31.265625 C-70.12762451 31.11096771 -70.79431152 30.95631042 -71.48120117 30.79696655 C-74.85914974 30.01383881 -78.23788887 29.23445062 -81.61816406 28.46142578 C-82.87081055 28.17251465 -84.12345703 27.88360352 -85.4140625 27.5859375 C-86.5376416 27.3286084 -87.6612207 27.0712793 -88.81884766 26.80615234 C-91.94159455 26.01480083 -94.95855872 25.05856615 -98 24 C-98 23.34 -98 22.68 -98 22 C-85.13596953 18.32920343 -72.20233332 15.00328401 -59.21582031 11.79516602 C-46.48330788 8.64846677 -46.48330788 8.64846677 -33.78463745 5.36872864 C-31.04522708 4.64669703 -28.30306117 3.93548045 -25.56054688 3.2253418 C-24.1712435 2.86270728 -22.78323461 2.49508144 -21.39648438 2.12280273 C-7.05395912 -1.71799211 -7.05395912 -1.71799211 0 0 Z " fill="#1EBDFC" transform="translate(366,33)"/>
<path d="M0 0 C3.29296564 2.3685184 6.13791395 5.13791395 9 8 C10.58387062 7.99413381 12.16767592 7.94522148 13.75 7.875 C18.24788525 7.81782349 20.18579118 8.61611948 24 11 C26.60567511 11.29921628 29.17110025 11.43713119 31.79296875 11.49609375 C32.88544922 11.74552734 32.88544922 11.74552734 34 12 C34.68045254 13.32635085 35.34663778 14.66009701 36 16 C38.23654158 16.91331397 38.23654158 16.91331397 40.8125 17.375 C46.12177878 18.79644222 48.20418297 20.24711105 51 25 C51.37239025 28.22738221 51.45147903 30.09704195 50 33 C49.11224991 41.72531514 49.77885055 48.78484373 55 56 C57.15875372 58.2792423 59.4764763 60.14202101 62 62 C67.84859813 66.69719626 67.84859813 66.69719626 69 69 C69.41701003 73.69136282 69.0170485 76.34297152 66 80 C63.75967952 81.59537974 61.46503617 83.06054334 59.12890625 84.51171875 C56.77947661 85.97674315 56.77947661 85.97674315 55 88.8125 C52.25611202 91.81362748 50.14899389 91.46040237 46.234375 91.72265625 C41.73618325 92.28099823 39.03340692 94.69526477 36.2890625 98.16015625 C35.10413126 99.75127571 33.91923496 101.3424212 32.734375 102.93359375 C30.47680322 105.62335833 28.33688258 106.93826463 25 108 C23.515 107.505 23.515 107.505 22 107 C22.43082886 106.29037109 22.43082886 106.29037109 22.87036133 105.56640625 C24.19134398 103.38171441 25.50193617 101.1909565 26.8125 99 C27.49022461 97.88431641 27.49022461 97.88431641 28.18164062 96.74609375 C34.41634967 86.27906397 37.20893645 76.25421947 36 64 C32.92216271 53.01530483 26.87541072 43.85917854 17 38 C4.73676922 32.21929031 -6.05214984 31.46739724 -19 36 C-27.38613334 39.84015521 -32.93395205 45.40092808 -38 53 C-41.90604537 51.73317448 -43.90166803 50.56716435 -46 47 C-47.48370046 43.22330792 -47.64269274 38.98320033 -47 35 C-43.40494962 26.98673349 -34.41689295 21.43897204 -26.68359375 17.95703125 C-19.49891859 14.64844016 -15.32813205 11.02945932 -11.375 4.1875 C-8.65175693 -0.14493216 -4.89187357 -0.84667043 0 0 Z " fill="#FD8A7A" transform="translate(131,256)"/>
<path d="M0 0 C5.28 0 10.56 0 16 0 C16.01213028 1.97864044 16.01213028 1.97864044 16.02450562 3.99725342 C16.10192402 16.41652118 16.18965248 28.83567881 16.28752708 41.2548027 C16.33751498 47.63989837 16.38384492 54.02497728 16.421875 60.41015625 C16.45869611 66.56992297 16.50504763 72.72955042 16.55806351 78.8891983 C16.5766243 81.24154472 16.59172599 83.593921 16.60334396 85.94631195 C16.62017736 89.23616356 16.64920587 92.52569502 16.68115234 95.81542969 C16.68331253 96.79222687 16.68547272 97.76902405 16.68769836 98.77542114 C16.69886185 99.67282013 16.71002533 100.57021912 16.7215271 101.49481201 C16.72705786 102.27280529 16.73258862 103.05079857 16.73828697 103.8523674 C17.04862546 106.3990234 17.51995983 107.89332579 19 110 C20.65 110.66 22.3 111.32 24 112 C24 117.28 24 122.56 24 128 C22.02 128.99 20.04 129.98 18 131 C16.44504302 134.10991396 16.75923044 137.43344049 16.68359375 140.8515625 C16.66281265 141.62559418 16.64203156 142.39962585 16.62062073 143.19711304 C16.55516552 145.67298392 16.49625913 148.14896202 16.4375 150.625 C16.39431093 152.30209448 16.35069652 153.97917807 16.30664062 155.65625 C16.19868658 159.77072498 16.09958386 163.88527977 16 168 C10.72 168 5.44 168 0 168 C0 112.56 0 57.12 0 0 Z " fill="#F8D323" transform="translate(464,120)"/>
<path d="M0 0 C0.67453043 -0.00638882 1.34906087 -0.01277764 2.04403162 -0.01936007 C4.29766372 -0.03458527 6.54953056 -0.01416828 8.80310059 0.00622559 C10.42132652 0.0027236 12.039549 -0.00293586 13.65776062 -0.0105896 C18.04838486 -0.02483627 22.43838272 -0.00777747 26.82894707 0.01569557 C31.42437378 0.03580428 36.01977448 0.029925 40.61523438 0.02758789 C48.33242115 0.02764146 56.04936309 0.04739822 63.76647949 0.07946777 C72.68759387 0.11636058 81.6083875 0.12514332 90.5295682 0.11817026 C99.11262625 0.11186423 107.69557436 0.12262141 116.27861023 0.14213562 C119.93081733 0.15030875 123.58296823 0.15301933 127.23518372 0.15144348 C131.53625924 0.1505643 135.83703013 0.16478968 140.13802528 0.19067001 C141.71622046 0.19782995 143.29444804 0.19991626 144.87265587 0.19655228 C147.02765731 0.19283514 149.18177086 0.20759174 151.33666992 0.22705078 C153.14516544 0.23264385 153.14516544 0.23264385 154.99019623 0.23834991 C158.47968144 0.65899135 160.37295768 1.52661727 163.16833496 3.62145996 C164.57291233 6.4306147 164.41728653 8.5095653 164.16833496 11.62145996 C162.38849091 14.75737566 161.64525289 15.46248732 158.16833496 16.62145996 C155.9730797 16.72404425 153.77480639 16.76521869 151.57717896 16.77536011 C150.90435737 16.77974236 150.23153579 16.78412462 149.53832567 16.78863966 C147.27908764 16.80201667 145.01988861 16.80820397 142.76062012 16.81433105 C141.14269332 16.82223272 139.52476828 16.83050171 137.90684509 16.83911133 C132.59037964 16.86531812 127.27390636 16.88063495 121.95739746 16.89489746 C120.12771983 16.90025719 118.29804225 16.9056347 116.46836472 16.91102982 C108.85925542 16.93265418 101.25014825 16.95139223 93.64101601 16.96265221 C82.73178044 16.97890168 71.82290044 17.01210862 60.91379893 17.06905305 C53.24493387 17.10772157 45.57616404 17.12728107 37.90720403 17.13257277 C33.32551335 17.13622971 28.74420202 17.14828759 24.16261673 17.18067551 C19.85331237 17.21070295 15.54461799 17.21708726 11.2352314 17.20529175 C9.65377468 17.20507058 8.07229008 17.21341129 6.49093056 17.23094559 C4.33103645 17.25359126 2.17336314 17.24536739 0.01345825 17.22946167 C-1.19480307 17.23277182 -2.40306438 17.23608196 -3.64793968 17.23949242 C-7.76363251 16.44054419 -9.25238403 14.85832424 -11.83166504 11.62145996 C-12.45666504 8.62145996 -12.45666504 8.62145996 -11.83166504 5.62145996 C-8.15131482 1.00611587 -5.84732703 -0.00345559 0 0 Z " fill="#464A51" transform="translate(227.8316650390625,287.3785400390625)"/>
<path d="M0 0 C1.25335648 -0.0112088 2.50671295 -0.0224176 3.79804993 -0.03396606 C5.17929541 -0.0210561 6.56053626 -0.00764202 7.94177246 0.00622559 C9.40236556 0.00272308 10.86295485 -0.00293697 12.3235321 -0.0105896 C16.28444302 -0.02482899 20.24465901 -0.00778496 24.20550346 0.01569557 C28.35249436 0.03581408 32.49945667 0.0299245 36.64648438 0.02758789 C43.61042735 0.02764145 50.5740989 0.04739183 57.53796387 0.07946777 C65.58658225 0.11636019 73.63484511 0.12514323 81.68353701 0.11817026 C89.4293882 0.11186269 97.1751176 0.12262425 104.92094421 0.14213562 C108.21589393 0.15030552 111.51078136 0.15301992 114.80574036 0.15144348 C118.68659242 0.15056384 122.56710719 0.16480184 126.44787025 0.19067001 C127.87125831 0.19782561 129.29468227 0.19991834 130.71808434 0.19655228 C132.6625838 0.19283137 134.60709037 0.20944302 136.55151367 0.22705078 C138.18302494 0.23264385 138.18302494 0.23264385 139.84749603 0.23834991 C143.1860126 0.67513452 145.07926517 1.63601755 147.77575684 3.62145996 C149.18033421 6.4306147 149.02470841 8.5095653 148.77575684 11.62145996 C146.99591279 14.75737566 146.25267477 15.46248732 142.77575684 16.62145996 C140.78311742 16.72325096 138.78723426 16.76515567 136.79202271 16.77536011 C135.54141556 16.78396057 134.29080841 16.79256104 133.00230408 16.80142212 C131.61380046 16.80585718 130.22529641 16.81015555 128.83679199 16.81433105 C127.37649847 16.82223344 125.91620689 16.83050247 124.45591736 16.83911133 C119.6589036 16.86530987 114.8618812 16.88063413 110.06481934 16.89489746 C108.41344573 16.90025753 106.76207219 16.90563504 105.1106987 16.91102982 C98.2427604 16.93265298 91.37482444 16.95139077 84.50686073 16.96265221 C74.66261755 16.97890028 64.81876847 17.01210499 54.97467387 17.06905305 C48.05314869 17.10773055 41.13172904 17.12728212 34.21009862 17.13257277 C30.07552121 17.13622851 25.94136435 17.14827325 21.80690384 17.18067551 C17.91781774 17.21071899 14.02940752 17.21708175 10.14023018 17.20529175 C8.71357645 17.20507071 7.28689169 17.21340069 5.86034584 17.23094559 C3.91151501 17.25360808 1.96237812 17.24236682 0.01345825 17.22946167 C-1.07681356 17.23277182 -2.16708538 17.23608196 -3.29039574 17.23949242 C-7.21830711 16.41205446 -8.73050354 14.69569406 -11.22424316 11.62145996 C-11.84924316 8.62145996 -11.84924316 8.62145996 -11.22424316 5.62145996 C-7.69844518 1.27800404 -5.57552245 -0.00365239 0 0 Z " fill="#464A51" transform="translate(259.2242431640625,255.3785400390625)"/>
<path d="M0 0 C5.16981269 0.99184108 10.38815913 1.555755 15.61376953 2.171875 C16.64308594 2.29755859 17.67240234 2.42324219 18.73291016 2.55273438 C30.45201415 3.9508286 42.0835305 4.765245 53.88720703 4.77734375 C55.05724274 4.78067215 56.22727844 4.78400055 57.43276978 4.78742981 C59.89495455 4.79245718 62.35714604 4.79483944 64.81933594 4.79467773 C68.50744436 4.7968492 72.19524563 4.81500935 75.88330078 4.83398438 C94.84281841 4.87938544 113.5311243 3.78841862 132.30126953 1.046875 C133.20490234 0.92119141 134.10853516 0.79550781 135.03955078 0.66601562 C139.9481524 -0.0101356 139.9481524 -0.0101356 144.77392578 -1.1015625 C148.54309086 -1.55508805 151.86599954 -0.45351457 155.48876953 0.546875 C156.59961914 0.83981445 156.59961914 0.83981445 157.73291016 1.13867188 C159.54993066 1.6193031 161.36347567 2.11304014 163.17626953 2.609375 C163.17626953 3.269375 163.17626953 3.929375 163.17626953 4.609375 C151.28807807 7.63935317 139.39673732 10.65660788 127.50121117 13.65767002 C121.9777149 15.05158952 116.45539827 16.44986436 110.93554688 17.8581543 C105.60836281 19.21711731 100.27838555 20.56455818 94.94627762 21.90406609 C92.91268888 22.41708179 90.88013999 22.93423781 88.84867477 23.45559883 C86.00267176 24.18525182 83.1533241 24.90008343 80.30273438 25.61157227 C79.46403809 25.83023453 78.6253418 26.04889679 77.76123047 26.27418518 C73.19604475 27.39542794 69.83321099 27.78489633 65.17626953 26.609375 C63.89236328 26.34640625 62.60845703 26.0834375 61.28564453 25.8125 C52.69641175 23.95430004 44.21754544 21.85482042 35.76220703 19.46142578 C25.81407554 16.64636185 15.78593221 14.20816574 5.71533203 11.875 C5.04864502 11.72034271 4.38195801 11.56568542 3.69506836 11.40634155 C0.31711979 10.62321381 -3.06161934 9.84382562 -6.44189453 9.07080078 C-7.69454102 8.78188965 -8.9471875 8.49297852 -10.23779297 8.1953125 C-11.36137207 7.9379834 -12.48495117 7.6806543 -13.64257812 7.41552734 C-16.76532502 6.62417583 -19.78228918 5.66794115 -22.82373047 4.609375 C-22.82373047 3.949375 -22.82373047 3.289375 -22.82373047 2.609375 C-20.75202254 1.86772808 -18.66530661 1.16798538 -16.57373047 0.484375 C-15.41357422 0.08992188 -14.25341797 -0.30453125 -13.05810547 -0.7109375 C-8.52397089 -1.77249854 -4.51175506 -0.8764807 0 0 Z " fill="#299AF8" transform="translate(290.82373046875,52.390625)"/>
<path d="M0 0 C47.52 0 95.04 0 144 0 C144 5.28 144 10.56 144 16 C96.48 16 48.96 16 0 16 C0 10.72 0 5.44 0 0 Z " fill="#F9D423" transform="translate(208,208)"/>
<path d="M0 0 C2.42488571 1.14621699 4.19583566 2.16863626 6.25 3.9375 C12.41537825 8.56153369 18.4287151 9.5964517 26 9 C27.38832031 8.79697266 27.38832031 8.79697266 28.8046875 8.58984375 C36.2353791 7.55276891 36.2353791 7.55276891 40.3125 9.9375 C43.0582879 12.76264593 45.36240343 15.99872449 47.60546875 19.23046875 C49.05952104 21.26368682 49.05952104 21.26368682 52 23 C50.63393308 26.6116842 49.02028368 29.92427163 47.12890625 33.2890625 C46.27474121 34.81285522 46.27474121 34.81285522 45.40332031 36.36743164 C44.79584961 37.4424292 44.18837891 38.51742676 43.5625 39.625 C42.94084961 40.7277124 42.31919922 41.8304248 41.67871094 42.96655273 C40.40565642 45.22109648 39.13075244 47.4745969 37.85400391 49.72705078 C36.66551541 51.82513832 35.48001872 53.9249251 34.29833984 56.02685547 C32.78988533 58.70983183 31.27175541 61.3870513 29.75 64.0625 C29.2969751 64.87090332 28.8439502 65.67930664 28.37719727 66.51220703 C27.30854918 68.37539589 26.16247317 70.19386114 25 72 C24.34 72 23.68 72 23 72 C22.93268677 70.5773584 22.93268677 70.5773584 22.86401367 69.12597656 C22.69052646 65.59919541 22.50461616 62.07352281 22.31030273 58.54785156 C22.22883074 57.0233697 22.15228392 55.49861616 22.08081055 53.97363281 C21.97705893 51.77839168 21.85548463 49.58474534 21.73046875 47.390625 C21.70220505 46.7113092 21.67394135 46.03199341 21.64482117 45.33209229 C21.39819818 41.36553873 20.94770909 38.77300788 18 36 C6.72504362 33.70678853 -5.10486612 42.66954266 -14.3984375 48.28515625 C-14.92695312 48.52105469 -15.45546875 48.75695312 -16 49 C-16.66 48.67 -17.32 48.34 -18 48 C-17.33613281 46.87722656 -16.67226563 45.75445312 -15.98828125 44.59765625 C-13.72234821 40.76141877 -11.46848737 36.9182215 -9.21826172 33.07275391 C-8.22945831 31.39040102 -7.22795338 29.71551804 -6.22265625 28.04296875 C-5.77792969 27.28628906 -5.33320312 26.52960938 -4.875 25.75 C-4.50117187 25.12609375 -4.12734375 24.5021875 -3.7421875 23.859375 C-2.33897904 20.34396854 -2.82713444 17.51859667 -4 14 C-4.66 14 -5.32 14 -6 14 C-5.41892368 10.2397015 -4.34800504 7.46964968 -2.4375 4.1875 C-1.75494141 3.00220703 -1.75494141 3.00220703 -1.05859375 1.79296875 C-0.70925781 1.20128906 -0.35992187 0.60960937 0 0 Z " fill="#D83156" transform="translate(62,388)"/>
<path d="M0 0 C2.99866747 1.36900424 3.81189584 3.36174999 5.40722656 6.21362305 C6.03105225 7.31335449 6.65487793 8.41308594 7.29760742 9.54614258 C7.95419801 10.7333365 8.61052506 11.9206762 9.26660156 13.1081543 C9.93798271 14.30139067 10.61059134 15.49393722 11.28442383 16.68579102 C12.60620862 19.0276338 13.91998222 21.37340399 15.22998047 23.72192383 C17.44115952 27.68077433 19.69379017 31.61474782 21.95410156 35.5456543 C22.97554402 37.33697377 23.99668369 39.12846634 25.01660156 40.9206543 C24.02660156 41.4156543 24.02660156 41.4156543 23.01660156 41.9206543 C20.62158203 40.93261719 20.62158203 40.93261719 17.63378906 39.39331055 C16.54839844 38.84868164 15.46300781 38.30405273 14.34472656 37.74291992 C12.06282009 36.58002528 9.78409781 35.41085877 7.50878906 34.23510742 C-0.85804997 29.94713814 -0.85804997 29.94713814 -9.98339844 29.9206543 C-13.5042963 33.22585008 -13.52980907 36.96376152 -13.71386719 41.5300293 C-13.75401443 42.25683899 -13.79416168 42.98364868 -13.83552551 43.73248291 C-13.96027696 46.04474403 -14.06583899 48.35742312 -14.17089844 50.6706543 C-14.25231506 52.24233496 -14.33498328 53.81395131 -14.41894531 55.38549805 C-14.62160538 59.22995607 -14.80706622 63.07490242 -14.98339844 66.9206543 C-17.87742935 64.36150175 -19.53733816 61.45120603 -21.42480469 58.1003418 C-21.74907944 57.52840088 -22.07335419 56.95645996 -22.40745544 56.3671875 C-23.45803227 54.51247454 -24.50199482 52.65412993 -25.54589844 50.7956543 C-26.98258053 48.25278564 -28.42237091 45.71168271 -29.86230469 43.1706543 C-30.21636383 42.54480438 -30.57042297 41.91895447 -30.93521118 41.2741394 C-34.28098322 35.37017248 -37.7248891 29.52603571 -41.23950195 23.72094727 C-43.98339844 19.13361694 -43.98339844 19.13361694 -43.98339844 16.9206543 C-42.56312455 15.77090877 -41.14114812 14.62319255 -39.70996094 13.48706055 C-37.16242083 11.17583072 -35.26751565 8.48407715 -33.28027344 5.69018555 C-31.98339844 3.9206543 -31.98339844 3.9206543 -29.98339844 1.9206543 C-26.89459921 1.74905434 -24.07044398 1.64062431 -21.05761719 2.41674805 C-15.75748794 3.70435007 -10.07216 3.70602424 -5.10839844 1.3581543 C-1.98339844 -0.0793457 -1.98339844 -0.0793457 0 0 Z " fill="#FD6263" transform="translate(185.9833984375,394.079345703125)"/>
<path d="M0 0 C5.7451493 3.25327731 10.65807763 7.68001804 13.3203125 13.80078125 C14.98237727 19.91925717 14.99526937 26.55143844 12.4453125 32.4140625 C8.891786 38.46261824 2.59652951 43.92712617 -4.0546875 46.1015625 C-11.44581507 46.93908404 -18.01031982 46.75207815 -24.0546875 42.1015625 C-30.31146473 36.28629173 -34.10878598 30.36248449 -34.4921875 21.6640625 C-34.25525412 14.99347647 -32.56364046 10.73689929 -27.9609375 5.90234375 C-19.7156089 -1.75206963 -10.78488932 -4.67199659 0 0 Z " fill="#F9B63B" transform="translate(138.0546875,305.8984375)"/>
<path d="M0 0 C5.28 0 10.56 0 16 0 C16 7.92 16 15.84 16 24 C-5.12 24 -26.24 24 -48 24 C-48 18.72 -48 13.44 -48 8 C-46.74864258 7.98018066 -45.49728516 7.96036133 -44.20800781 7.93994141 C-39.563598 7.86384707 -34.91949992 7.77513537 -30.27539062 7.68261719 C-28.26568762 7.64434331 -26.25591649 7.60948764 -24.24609375 7.578125 C-21.3565232 7.53244009 -18.46742104 7.47445113 -15.578125 7.4140625 C-14.68007141 7.40251129 -13.78201782 7.39096008 -12.85675049 7.37905884 C-12.01618103 7.35918915 -11.17561157 7.33931946 -10.30957031 7.31884766 C-9.20370575 7.29886215 -9.20370575 7.29886215 -8.07550049 7.2784729 C-5.5771396 6.94326421 -4.07665076 6.44651092 -2 5 C-1.34 3.35 -0.68 1.7 0 0 Z " fill="#F8D323" transform="translate(208,112)"/>
<path d="M0 0 C6.39283244 2.80678535 8.92172135 6.20226175 12.1875 12.25 C12.59935547 12.97574219 13.01121094 13.70148438 13.43554688 14.44921875 C16.11883743 19.22045806 18.58348091 24.08918879 21 29 C13.71179042 26.82938809 7.29869168 23.72706535 0.66210938 20.05273438 C-4.49217344 17.33971948 -8.15795822 16.16362588 -14 17 C-17.53961726 20.2779755 -17.54684027 24.05376606 -17.73046875 28.609375 C-17.770616 29.33618469 -17.81076324 30.06299438 -17.85212708 30.81182861 C-17.97687852 33.12408973 -18.08244055 35.43676882 -18.1875 37.75 C-18.26891662 39.32168066 -18.35158484 40.89329702 -18.43554688 42.46484375 C-18.63820694 46.30930178 -18.82366778 50.15424812 -19 54 C-21.89403091 51.44084745 -23.55393972 48.53055174 -25.44140625 45.1796875 C-25.765681 44.60774658 -26.08995575 44.03580566 -26.42405701 43.4465332 C-27.47463383 41.59182024 -28.51859638 39.73347563 -29.5625 37.875 C-30.9991821 35.33213134 -32.43897247 32.79102842 -33.87890625 30.25 C-34.23296539 29.62415009 -34.58702454 28.99830017 -34.95181274 28.35348511 C-38.29758478 22.44951818 -41.74149066 16.60538141 -45.25610352 10.80029297 C-48 6.21296265 -48 6.21296265 -48 4 C-47.01 3.67 -46.02 3.34 -45 3 C-44.43732422 4.21236328 -44.43732422 4.21236328 -43.86328125 5.44921875 C-39.67152224 14.72984457 -39.67152224 14.72984457 -32 21 C-27.76609838 21.40710593 -25.48411648 21.25575965 -21.6875 19.25 C-18.5842334 16.65191634 -17.38956281 15.10275381 -16.65625 11.14453125 C-15.87303611 7.13056007 -15.17518628 5.20509613 -12.4375 2 C-8.16351278 -0.48668347 -4.83366178 -1.12140953 0 0 Z " fill="#D63155" transform="translate(190,407)"/>
<path d="M0 0 C0.515625 0.165 1.03125 0.33 1.5625 0.5 C5.52359489 1.31253228 9.41471239 1.33374476 13.375 0.5 C18.92531641 -0.55720313 23.96535587 -0.96684827 29.0625 1.8125 C34.08718445 5.35515631 38.39664361 10.44191397 41 16 C40.37109375 18.57421875 40.37109375 18.57421875 39 21 C38.37931641 22.10794922 38.37931641 22.10794922 37.74609375 23.23828125 C37.31425781 23.92277344 36.88242188 24.60726563 36.4375 25.3125 C36.00308594 26.00988281 35.56867188 26.70726562 35.12109375 27.42578125 C34.75113281 27.94527344 34.38117188 28.46476562 34 29 C33.67 29 33.34 29 33 29 C32.7525 27.9275 32.505 26.855 32.25 25.75 C30.94585788 21.83757363 30.39819339 20.26546226 27 18 C21.38916413 16.70474266 21.38916413 16.70474266 16 18 C11.91444146 18.51436888 7.78152373 18.92098732 4.04296875 16.98828125 C1.40615066 14.85188119 0.07788274 13.23364822 -1 10 C-1.47469459 2.94938918 -1.47469459 2.94938918 0 0 Z " fill="#FD6363" transform="translate(68,404)"/>
<path d="M0 0 C5.7451493 3.25327731 10.65807763 7.68001804 13.3203125 13.80078125 C14.98237727 19.91925717 14.99526937 26.55143844 12.4453125 32.4140625 C8.891786 38.46261824 2.59652951 43.92712617 -4.0546875 46.1015625 C-11.44581507 46.93908404 -18.01031982 46.75207815 -24.0546875 42.1015625 C-30.31146473 36.28629173 -34.10878598 30.36248449 -34.4921875 21.6640625 C-34.25525412 14.99347647 -32.56364046 10.73689929 -27.9609375 5.90234375 C-19.7156089 -1.75206963 -10.78488932 -4.67199659 0 0 Z M-26.4921875 10.1640625 C-30.3162308 15.59274523 -30.73921204 20.60339995 -30.0546875 27.1015625 C-27.97997586 33.95403865 -23.90454624 37.85581157 -17.8046875 41.4140625 C-11.0715722 43.09734132 -4.88980567 42.84782703 1.19140625 39.37109375 C5.45425097 36.28551573 8.6297472 32.24422686 9.9453125 27.1015625 C10.7182357 19.80019874 9.18801578 14.67327513 5.2578125 8.4140625 C0.830581 3.986831 -3.77437419 1.88176109 -10.0546875 1.6015625 C-17.31323306 1.95781013 -22.0460212 4.42945846 -26.4921875 10.1640625 Z " fill="#F1CE25" transform="translate(138.0546875,305.8984375)"/>
<path d="M0 0 C5.7676773 0.09845253 10.02845168 0.99279921 14.32421875 5.125 C18.56286606 9.80212807 20.51895778 12.87633242 20.5 19.3125 C20.50386719 20.62927734 20.50386719 20.62927734 20.5078125 21.97265625 C20.375 24.25 20.375 24.25 19.375 26.25 C11.12847216 25.80822172 5.6440839 22.99406976 0.0625 16.875 C-3.22270779 12.75730086 -5.4104814 8.71696384 -5.875 3.375 C-5.41715947 -0.51664446 -3.51157395 0.06365391 0 0 Z " fill="#F9D323" transform="translate(120.625,314.75)"/>
<path d="M0 0 C5.28 0 10.56 0 16 0 C16 7.92 16 15.84 16 24 C10.72 24 5.44 24 0 24 C0 16.08 0 8.16 0 0 Z " fill="#F9D423" transform="translate(240,112)"/>
<path d="M0 0 C1.8046875 0.640625 1.8046875 0.640625 3.8046875 2.328125 C5.10888306 5.34407723 5.21189969 7.38292747 4.8046875 10.640625 C3.8046875 12.953125 3.8046875 12.953125 1.8046875 14.640625 C-1.89512811 15.78748929 -4.99215762 16.10337688 -8.6328125 14.703125 C-11.01371087 11.56033915 -11.62081384 8.5537177 -11.1953125 4.640625 C-8.1181485 -0.22327939 -5.38557002 -1.09743691 0 0 Z " fill="#2999F6" transform="translate(219.1953125,152.359375)"/>
<path d="M0 0 C0.90685547 0.25330078 0.90685547 0.25330078 1.83203125 0.51171875 C4.67333163 1.15165127 7.34104648 1.09411906 10.25 1.0625 C11.86648437 1.04896484 11.86648437 1.04896484 13.515625 1.03515625 C14.74539062 1.01775391 14.74539062 1.01775391 16 1 C14.0998972 5.37849776 11.35539379 7.2428526 7 9 C0.15372321 10.79215155 -6.21134555 9.53537792 -13 8 C-9.27033311 1.42868214 -7.90795222 -0.55494402 0 0 Z " fill="#DA3156" transform="translate(163,396)"/>
<path d="M0 0 C0.53625 0.721875 1.0725 1.44375 1.625 2.1875 C3.46556057 4.3671112 5.0708545 5.9787988 7.25 7.75 C8.1575 8.4925 9.065 9.235 10 10 C10 10.33 10 10.66 10 11 C6.6875 10.8125 6.6875 10.8125 3 10 C0.69094583 7.31851774 0.04742424 5.71136356 -0.1875 2.1875 C-0.125625 1.465625 -0.06375 0.74375 0 0 Z " fill="#067CF2" transform="translate(208,157)"/>
</svg>
