<?xml version="1.0" encoding="UTF-8"?>
<svg version="1.1" xmlns="http://www.w3.org/2000/svg" width="512" height="512">
<path d="M0 0 C0.96839735 -0.00397441 1.93679469 -0.00794881 2.93453741 -0.01204365 C6.18815518 -0.02168864 9.44134053 -0.00983503 12.69494629 0.00190735 C15.02399356 -0.00051988 17.35303979 -0.00423853 19.68208313 -0.00915527 C26.01461293 -0.01857723 32.34698852 -0.00912778 38.6795063 0.00417686 C44.62822176 0.01433035 50.57692243 0.01187925 56.52564424 0.00997434 C68.3130614 0.00678405 80.10041814 0.01845438 91.88781738 0.03804016 C103.32826579 0.05704449 114.76864338 0.06412776 126.20910645 0.05854797 C138.66407518 0.05249137 151.11901276 0.05266508 163.5739789 0.06403381 C170.1681158 0.07002267 176.76222937 0.07369978 183.35636902 0.0710659 C189.55497087 0.06918567 195.75348155 0.07726655 201.95206261 0.0931263 C204.23053803 0.09737777 206.50902269 0.09821393 208.78750038 0.0954361 C211.89074241 0.09222607 214.99371002 0.10126649 218.09692383 0.11352539 C219.00469873 0.10974607 219.91247363 0.10596674 220.84775686 0.10207289 C222.09435009 0.11082118 222.09435009 0.11082118 223.36612701 0.11974621 C224.44052088 0.12104637 224.44052088 0.12104637 225.53661966 0.12237281 C227.91664745 0.42031247 229.51154032 1.11991332 231.54846191 2.3742218 C233.22725133 5.73180062 232.73323254 9.52055278 232.75158691 13.21406555 C232.75728699 14.09196243 232.76298706 14.96985931 232.76885986 15.87435913 C232.77831342 17.73294365 232.78484526 19.59154496 232.78869629 21.45014954 C232.79841127 24.29688119 232.8294347 27.14289378 232.86096191 29.98945618 C232.86749097 31.79348834 232.87274182 33.59752567 232.87658691 35.40156555 C232.88893372 36.25475876 232.90128052 37.10795197 232.91400146 37.98699951 C232.8919567 43.82046619 232.8919567 43.82046619 231.46368408 46.12301636 C229.54846191 47.3742218 229.54846191 47.3742218 222.54846191 47.3742218 C222.54846191 71.7942218 222.54846191 96.2142218 222.54846191 121.3742218 C232.18678223 121.33941711 241.82510254 121.30461243 251.75549316 121.26875305 C257.84859452 121.25343092 263.94168197 121.2388656 270.03479004 121.22773743 C279.71363072 121.20991879 289.3923932 121.18894269 299.07116699 121.14790344 C306.11937206 121.11803236 313.16751384 121.09865426 320.21578044 121.09195632 C323.94893932 121.08804014 327.68191714 121.07881555 331.41501808 121.05703163 C335.57912912 121.03292898 339.74292396 121.03225033 343.90710449 121.03364563 C345.14931763 121.0228598 346.39153076 121.01207397 347.67138672 121.0009613 C349.36881767 121.00714729 349.36881767 121.00714729 351.10054016 121.01345825 C352.57863521 121.00931018 352.57863521 121.00931018 354.08659077 121.00507832 C356.54846191 121.3742218 356.54846191 121.3742218 358.36469555 122.67191601 C360.39810633 125.59604619 359.97426754 129.00004807 359.94689941 132.4367218 C359.94976959 133.22441956 359.95263977 134.01211731 359.95559692 134.82368469 C359.95763713 136.48799865 359.95211024 138.15233661 359.9395752 139.81660461 C359.92352 142.36500127 359.93942435 144.91181201 359.95861816 147.4601593 C359.95663572 149.0773503 359.95279203 150.69454032 359.94689941 152.3117218 C359.95297211 153.07428284 359.9590448 153.83684387 359.96530151 154.62251282 C359.89496172 159.90990825 359.89496172 159.90990825 358.27493286 162.08076477 C356.17213243 163.65616458 355.13801671 163.72586589 352.53674316 163.66719055 C351.77941895 163.65752258 351.02209473 163.64785461 350.24182129 163.63789368 C349.4561377 163.61275696 348.6704541 163.58762024 347.86096191 163.5617218 C347.06367676 163.54818665 346.2663916 163.53465149 345.44494629 163.52070618 C343.47916224 163.48539269 341.51372609 163.43158627 339.54846191 163.3742218 C339.30185991 183.46788509 339.15292952 203.56021708 339.11061859 223.6553688 C339.08884258 232.99275145 339.03831758 242.32812166 338.91418457 251.66474915 C338.37238269 293.67510253 338.75748223 331.12403879 354.41610718 370.75767517 C358.04734967 380.08263081 360.83800895 389.70441436 363.75856209 399.26976585 C365.48675473 404.89778512 367.27027219 410.50858075 369.06291771 416.11636925 C370.53246825 420.81663463 370.87077285 423.77874464 368.54846191 428.3742218 C366.38089019 429.45800766 364.82598597 429.66830335 362.42736816 429.9523468 C329.03534055 434.1482872 299.80907445 447.18232581 270.48596191 463.3742218 C246.026282 476.8787398 221.87316379 487.94109855 194.74133301 494.91133118 C187.18341573 496.86665904 179.968983 499.22412333 172.72033691 502.11250305 C166.67218788 504.51835544 162.04576446 506.10778822 155.54846191 505.3742218 C152.28087965 501.95459672 150.25104375 498.1448924 148.15686035 493.93159485 C147.84416199 493.3066362 147.53146362 492.68167755 147.20928955 492.03778076 C146.18641776 489.98996225 145.1720914 487.93803879 144.15783691 485.88594055 C143.44663145 484.45792908 142.73489248 483.03018321 142.02264404 481.60269165 C140.15637278 477.85873655 138.29733941 474.11123321 136.43981934 470.3629303 C134.54030994 466.53313336 132.6339374 462.70675649 130.72814941 458.88008118 C126.99488308 451.38144765 123.26926055 443.87904951 119.54846191 436.3742218 C119.00330118 436.37286527 118.45814045 436.37150874 117.8964597 436.37011111 C85.61345641 436.28952855 53.33050132 436.19860186 21.04756684 436.09417019 C17.1746558 436.08165074 13.30174449 436.06921806 9.42883301 436.05683899 C8.65777902 436.054373 7.88672503 436.051907 7.09230576 436.04936628 C-5.40612689 436.00960075 -17.90456863 435.97687024 -30.40302776 435.94672199 C-43.21966545 435.9156503 -56.03626444 435.87705941 -68.85285866 435.83143175 C-76.7666795 435.80349688 -84.6804719 435.78148562 -92.5943289 435.76695929 C-98.65417879 435.75520915 -104.71394364 435.73301717 -110.77375031 435.70683861 C-113.26591349 435.69772959 -115.75809186 435.69206492 -118.25027084 435.69000816 C-121.63907297 435.686709 -125.02760388 435.6712957 -128.41635132 435.6526947 C-129.4143903 435.65462944 -130.41242927 435.65656417 -131.44071186 435.65855753 C-132.34341001 435.65109204 -133.24610817 435.64362655 -134.17616081 435.63593483 C-134.95914413 435.63365651 -135.74212745 435.63137819 -136.54883754 435.62903082 C-138.45153809 435.3742218 -138.45153809 435.3742218 -140.45153809 433.3742218 C-140.7122345 431.51472473 -140.7122345 431.51472473 -140.72619629 429.23164368 C-140.7357283 428.37735779 -140.74526031 427.5230719 -140.75508118 426.64289856 C-140.75416977 425.71892273 -140.75325836 424.7949469 -140.75231934 423.8429718 C-140.75660446 422.89611511 -140.76088959 421.94925842 -140.76530457 420.97370911 C-140.7710534 418.96968893 -140.77154407 416.96564788 -140.76721191 414.96162415 C-140.76405077 411.88655728 -140.78750835 408.81245093 -140.81286621 405.73750305 C-140.81513893 403.79349385 -140.81584283 401.84948206 -140.81481934 399.9054718 C-140.82402908 398.98149597 -140.83323883 398.05752014 -140.84272766 397.10554504 C-140.83649887 396.25125916 -140.83027008 395.39697327 -140.82385254 394.51679993 C-140.82448196 393.76338318 -140.82511139 393.00996643 -140.82575989 392.23371887 C-140.45153809 390.3742218 -140.45153809 390.3742218 -137.45153809 388.3742218 C-132.17153809 388.3742218 -126.89153809 388.3742218 -121.45153809 388.3742218 C-121.45153809 314.1242218 -121.45153809 239.8742218 -121.45153809 163.3742218 C-126.73153809 163.3742218 -132.01153809 163.3742218 -137.45153809 163.3742218 C-138.44153809 162.7142218 -139.43153809 162.0542218 -140.45153809 161.3742218 C-140.74312958 158.4892825 -140.84744346 155.82234243 -140.81481934 152.9367218 C-140.81531784 152.10084534 -140.81581635 151.26496887 -140.81632996 150.40376282 C-140.81398767 148.63510259 -140.80425005 146.86643914 -140.78771973 145.09785461 C-140.76413169 142.38498748 -140.76715675 139.67310285 -140.77380371 136.9601593 C-140.76822698 135.24400759 -140.76111713 133.52786003 -140.75231934 131.8117218 C-140.75323074 130.99711487 -140.75414215 130.18250793 -140.75508118 129.34321594 C-140.68255966 123.60524338 -140.68255966 123.60524338 -138.45153809 121.3742218 C-136.11271477 121.12812614 -136.11271477 121.12812614 -133.12387085 121.13371277 C-131.42850189 121.12958878 -131.42850189 121.12958878 -129.69888306 121.12538147 C-128.45307465 121.13257202 -127.20726624 121.13976257 -125.92370605 121.14717102 C-123.96280029 121.14673294 -123.96280029 121.14673294 -121.96228027 121.14628601 C-118.37154952 121.14571079 -114.78095163 121.1574924 -111.19025183 121.17143393 C-107.43996188 121.18391312 -103.68966908 121.18510956 -99.93936157 121.18748474 C-92.83495567 121.1937078 -85.73061112 121.21012975 -78.62623227 121.23018372 C-69.02797459 121.2566908 -59.42970021 121.26750869 -49.83141518 121.27918816 C-34.7047435 121.29800979 -19.57820131 121.33784992 -4.45153809 121.3742218 C-4.45153809 96.9542218 -4.45153809 72.5342218 -4.45153809 47.3742218 C-6.76153809 47.3742218 -9.07153809 47.3742218 -11.45153809 47.3742218 C-13.81331652 45.01244337 -13.70871978 44.54386144 -13.74206543 41.33930969 C-13.75482513 40.50827225 -13.76758484 39.6772348 -13.7807312 38.8210144 C-13.78295685 37.92204941 -13.7851825 37.02308441 -13.78747559 36.09687805 C-13.79746078 34.7134446 -13.79746078 34.7134446 -13.80764771 33.30206299 C-13.81778341 31.34932961 -13.82246444 29.39656153 -13.82214355 27.44380188 C-13.82651586 24.45193053 -13.86282288 21.46153497 -13.90075684 18.46992493 C-13.90662491 16.57474769 -13.91059437 14.67956344 -13.91247559 12.78437805 C-13.92684662 11.88743729 -13.94121765 10.99049652 -13.95602417 10.06637573 C-13.94987091 9.23218613 -13.94371765 8.39799652 -13.93737793 7.53852844 C-13.94022797 6.8050972 -13.943078 6.07166595 -13.9460144 5.31600952 C-13.45153809 3.3742218 -13.45153809 3.3742218 -12.01135445 1.77624893 C-8.09900014 -0.36657153 -4.39236893 -0.03568129 0 0 Z M59.54846191 253.3742218 C59.54846191 297.9242218 59.54846191 342.4742218 59.54846191 388.3742218 C71.42846191 388.3742218 83.30846191 388.3742218 95.54846191 388.3742218 C94.03089895 383.82153291 92.61934183 380.50857644 90.25549316 376.4992218 C89.27965091 373.56630365 89.88595952 371.34493319 90.54846191 368.3742218 C91.40311035 368.09707336 92.25775879 367.81992493 93.13830566 367.53437805 C94.79539551 366.99103821 94.79539551 366.99103821 96.48596191 366.4367218 C98.13918457 365.89724915 98.13918457 365.89724915 99.82580566 365.34687805 C102.42969667 364.63565512 102.42969667 364.63565512 103.54846191 363.3742218 C103.6440059 361.94475709 103.6703463 360.51059515 103.66871643 359.07794189 C103.67009109 358.15101028 103.67146576 357.22407867 103.67288208 356.26905823 C103.6692868 355.24407227 103.66569153 354.2190863 103.6619873 353.16304016 C103.66213333 352.09000137 103.66227936 351.01696259 103.66242981 349.91140747 C103.66173015 346.34560664 103.6539353 342.77985731 103.64611816 339.21406555 C103.64425417 336.74926787 103.64283018 334.28446982 103.64183044 331.81967163 C103.63800378 325.31768275 103.62817224 318.81571605 103.61712646 312.31373596 C103.60637939 305.68481363 103.60233351 299.05588487 103.59729004 292.42695618 C103.5865501 279.40936672 103.56895211 266.39179957 103.54846191 253.3742218 C89.02846191 253.3742218 74.50846191 253.3742218 59.54846191 253.3742218 Z M115.54846191 253.3742218 C115.54846191 288.0242218 115.54846191 322.6742218 115.54846191 358.3742218 C121.9323399 356.24626247 127.2937443 354.17637579 133.04846191 350.9367218 C133.72393066 350.57385071 134.39939941 350.21097961 135.09533691 349.83711243 C137.32815981 348.62841559 137.32815981 348.62841559 139.6072998 347.09443665 C142.08815791 345.64344252 144.22054624 344.75105095 146.8939209 343.78291321 C152.44432266 341.39106845 156.57185977 338.76812012 159.54846191 333.3742218 C162.84915209 321.42313661 161.21461012 307.69678102 160.71575928 295.46528625 C160.5098707 289.88363145 160.43297791 284.29884008 160.33405304 278.71446228 C160.17005911 270.26129015 159.84432005 261.82841624 159.54846191 253.3742218 C145.02846191 253.3742218 130.50846191 253.3742218 115.54846191 253.3742218 Z " fill="#010101" transform="translate(141.4515380859375,2.6257781982421875)"/>
<path d="M0 0 C67.65 0 135.3 0 205 0 C205.68515158 61.7084235 205.68515158 61.7084235 205.83007812 87.5703125 C205.86335961 93.47950031 205.89770714 99.38868045 205.93383789 105.29785156 C205.93832162 106.03842245 205.94280535 106.77899334 205.94742495 107.54200578 C206.02127203 119.48271511 206.15524065 131.42202617 206.31159753 143.36190763 C206.47083902 155.62477284 206.56505323 167.88690855 206.59950441 180.15076518 C206.62278027 187.71312316 206.69613812 195.27153087 206.83457994 202.83267173 C206.93547631 208.64076524 206.94567562 214.44635522 206.92283058 220.25514984 C206.92749406 222.6304907 206.96114065 225.00598587 207.02649307 227.38043213 C207.48382522 244.85930132 207.48382522 244.85930132 203.32574725 250.11702633 C199.30981808 253.82000451 194.84673427 256.46395362 189.99851787 258.93277121 C187.3026766 260.37237776 184.97992735 262.16991426 182.61328125 264.09375 C181.88302734 264.66867187 181.15277344 265.24359375 180.40039062 265.8359375 C179.36688477 266.65964844 179.36688477 266.65964844 178.3125 267.5 C173.6486889 271.1981762 169.00987881 274.78105425 164 278 C162.87951354 274.40492528 162.87952786 271.05495605 162.88647461 267.30371094 C162.88632858 266.63988403 162.88618256 265.97605713 162.8860321 265.29211426 C162.88672668 263.1061675 162.89449769 260.92030681 162.90234375 258.734375 C162.90420955 257.21551561 162.90563269 255.69665562 162.90663147 254.17779541 C162.9104439 250.18622161 162.9202633 246.19468438 162.93133545 242.203125 C162.94157697 238.1276092 162.94613496 234.05208747 162.95117188 229.9765625 C162.96188673 221.98435825 162.97894784 213.99218368 163 206 C164.13888672 205.94392578 164.13888672 205.94392578 165.30078125 205.88671875 C166.29464844 205.82097656 167.28851563 205.75523437 168.3125 205.6875 C169.79169922 205.60048828 169.79169922 205.60048828 171.30078125 205.51171875 C174.40873813 204.92251129 175.16382623 204.52440677 177 202 C177.41481581 199.09478296 177.41481581 199.09478296 177.29296875 195.80078125 C177.2784668 193.98803711 177.2784668 193.98803711 177.26367188 192.13867188 C177.23853516 190.87603516 177.21339844 189.61339844 177.1875 188.3125 C177.17396484 187.03826172 177.16042969 185.76402344 177.14648438 184.45117188 C177.11108199 181.30035943 177.0616979 178.15038955 177 175 C157.85085353 174.97667228 138.70170994 174.95902145 119.55255222 174.94818783 C110.66190174 174.9430246 101.77126006 174.9359814 92.88061523 174.92456055 C85.13438773 174.91461452 77.38816661 174.90814677 69.6419329 174.90591151 C65.53779081 174.90460426 61.43366698 174.90151753 57.32953072 174.89426994 C53.4710536 174.88751101 49.61260235 174.88538278 45.75411987 174.88689232 C44.3338755 174.88661593 42.91363031 174.88461005 41.49339104 174.88079453 C39.5625813 174.87585933 37.63175785 174.87760197 35.70094299 174.87974548 C34.07628286 174.87836279 34.07628286 174.87836279 32.41880131 174.87695217 C30.05002922 174.72654794 30.05002922 174.72654794 29 176 C28.91224395 178.14558827 28.89304781 180.29404421 28.90234375 182.44140625 C28.90717773 184.39916992 28.90717773 184.39916992 28.91210938 186.39648438 C28.92046599 187.7851569 28.92893095 189.17382877 28.9375 190.5625 C28.94251334 191.95507656 28.94707653 193.34765481 28.95117188 194.74023438 C28.96300558 198.16017451 28.98094169 201.5800925 29 205 C33.29 205.33 37.58 205.66 42 206 C42 250.88 42 295.76 42 342 C28.14 342 14.28 342 0 342 C0 229.14 0 116.28 0 0 Z " fill="#AFE2F6" transform="translate(148,50)"/>
<path d="M0 0 C1.52383995 1.92628288 1.52383995 1.92628288 2.80990601 4.50387573 C3.30624542 5.47695679 3.80258484 6.45003784 4.31396484 7.4526062 C5.10287109 9.06717209 5.10287109 9.06717209 5.90771484 10.71435547 C6.47575836 11.8410968 7.04380188 12.96783813 7.62905884 14.12872314 C9.18659627 17.21983981 10.72136021 20.32176467 12.25178862 23.42637396 C13.85542519 26.67129206 15.47785831 29.90679016 17.09780884 33.14358521 C19.81506428 38.580023 22.51814528 44.02332248 25.21240234 49.47119141 C28.32963075 55.7740205 31.46637987 62.06681598 34.61435926 68.35433662 C37.64020686 74.39851244 40.65463366 80.44830667 43.66301346 86.501194 C44.94445498 89.07933178 46.22944063 91.6556569 47.51719284 94.23064804 C49.31297083 97.82354198 51.09172623 101.42460084 52.86865234 105.02685547 C53.40673523 106.09918427 53.94481812 107.17151306 54.49920654 108.27633667 C54.97862701 109.25505737 55.45804749 110.23377808 55.95199585 111.24215698 C56.58520532 112.51919652 56.58520532 112.51919652 57.23120689 113.82203484 C58 116 58 116 57 119 C54.2552415 120.12230125 51.563042 121.08184664 48.75 122 C31.90606975 127.86581356 16.44853897 136.60449263 2 147 C1.25508301 147.5352832 0.51016602 148.07056641 -0.25732422 148.62207031 C-8.35343873 154.46843883 -16.35602804 160.42809912 -24.1875 166.625 C-85.87235085 215.43509705 -85.87235085 215.43509705 -110 215 C-117.56711174 199.91244716 -125.12967101 184.82262258 -132.68678284 169.73005867 C-136.19559472 162.72275813 -139.70590584 155.71621616 -143.21972656 148.71142578 C-146.28150162 142.60777758 -149.34048452 136.50273978 -152.3960886 130.39599979 C-154.01488186 127.16102607 -155.63508774 123.92677721 -157.25863647 120.69418716 C-159.06869364 117.09011687 -160.87251124 113.48295926 -162.67578125 109.87548828 C-163.21812408 108.79799316 -163.76046692 107.72049805 -164.31924438 106.61035156 C-164.80726532 105.63156036 -165.29528625 104.65276917 -165.7980957 103.64431763 C-166.22580765 102.79073732 -166.65351959 101.93715702 -167.0941925 101.05771065 C-168 99 -168 99 -168 97 C-167.43716309 96.82984375 -166.87432617 96.6596875 -166.29443359 96.484375 C-154.29302274 92.80593157 -143.57136497 88.88136021 -133 82 C-132.41089844 81.61972656 -131.82179688 81.23945313 -131.21484375 80.84765625 C-127.41474496 78.38687041 -123.65831197 75.86683214 -119.92089844 73.31201172 C-118.00655086 72.00447437 -116.08581538 70.70677824 -114.1640625 69.41015625 C-100.55027816 60.1833964 -87.36648192 50.37389054 -74.3125 40.375 C-73.60778564 39.8380249 -72.90307129 39.3010498 -72.17700195 38.74780273 C-68.8831523 36.23350385 -65.6155335 33.69877652 -62.40234375 31.08203125 C-50.71226216 21.72143192 -15.2640039 -5.12423852 0 0 Z " fill="#FCF2D2" transform="translate(412,281)"/>
<path d="M0 0 C35.31 0 70.62 0 107 0 C107 74.91 107 149.82 107 227 C71.69 227 36.38 227 0 227 C0 152.09 0 77.18 0 0 Z " fill="#5A8EB7" transform="translate(31,165)"/>
<path d="M0 0 C17.469375 -0.020625 34.93875 -0.04125 52.9375 -0.0625 C58.46234131 -0.071604 63.98718262 -0.08070801 69.67944336 -0.09008789 C76.40344238 -0.09460449 76.40344238 -0.09460449 79.54689026 -0.09544373 C81.75184836 -0.09698369 83.9568056 -0.10050967 86.16175842 -0.10557556 C89.49318922 -0.11284978 92.82456836 -0.11390753 96.15600586 -0.11352539 C97.64017832 -0.11892255 97.64017832 -0.11892255 99.15433407 -0.12442875 C100.04574376 -0.12305125 100.93715345 -0.12167376 101.85557556 -0.12025452 C102.63633422 -0.12117631 103.41709288 -0.1220981 104.22151089 -0.12304783 C106 0 106 0 107 1 C107.09603022 2.6195634 107.12187855 4.24333083 107.12025452 5.86573792 C107.12231651 7.4454538 107.12231651 7.4454538 107.12442017 9.05708313 C107.11902725 10.80495369 107.11902725 10.80495369 107.11352539 12.58813477 C107.11367142 13.80747711 107.11381744 15.02681946 107.1139679 16.28311157 C107.11338893 19.63627511 107.10835968 22.98937774 107.10139394 26.34253049 C107.09515983 29.84325562 107.09455656 33.34398148 107.09336853 36.8447113 C107.09025538 43.47809656 107.08204222 50.11146541 107.07201904 56.74484342 C107.06085739 64.29490207 107.05534732 71.84496149 107.05032361 79.39502633 C107.03985959 94.93002706 107.02226047 110.46501142 107 126 C104.47154472 124.73577236 104.23577236 123.47154472 103 121 C95.69472178 117.34736089 84.98926987 120.78099885 77.5 122.5 C75.38596156 122.97120134 73.27140019 123.44006451 71.15625 123.90625 C70.23650391 124.11572266 69.31675781 124.32519531 68.36914062 124.54101562 C66 125 66 125 63 125 C62.61328125 124.13117188 62.2265625 123.26234375 61.828125 122.3671875 C60.25761084 118.89184182 58.64153076 115.44231451 57 112 C56.66742188 111.27425781 56.33484375 110.54851562 55.9921875 109.80078125 C55.09704809 107.95875388 55.09704809 107.95875388 53 106 C46.9721478 105.51019619 42.22235075 106.50836141 36.5625 108.5 C35.78970703 108.76482178 35.01691406 109.02964355 34.22070312 109.30249023 C22.34403725 113.50056841 11.24826881 119.3758656 0 125 C0 83.75 0 42.5 0 0 Z " fill="#598EB6" transform="translate(364,165)"/>
<path d="M0 0 C76.89 0 153.78 0 233 0 C245 23 245 23 245 25 C164.15 25 83.3 25 0 25 C0 16.75 0 8.5 0 0 Z " fill="#2B4C65" transform="translate(11,402)"/>
<path d="M0 0 C73.92 0 147.84 0 224 0 C224 8.25 224 16.5 224 25 C150.08 25 76.16 25 0 25 C0 16.75 0 8.5 0 0 Z " fill="#2B4B64" transform="translate(139,14)"/>
<path d="M0 0 C7.07223318 21.64824786 13.85189276 43.37560177 20.47698975 65.16442871 C21.66704047 69.07633326 22.86002076 72.9873442 24.05273438 76.8984375 C25.66053065 82.17125933 27.26658058 87.4446059 28.87013435 92.71871948 C30.64929868 98.57031238 32.43422989 104.41999015 34.23291016 110.265625 C34.56503006 111.34767212 34.89714996 112.42971924 35.23933411 113.54455566 C35.84455264 115.51522635 36.45189854 117.48524551 37.06181335 119.45446777 C37.32154434 120.30158325 37.58127533 121.14869873 37.84887695 122.02148438 C38.18554131 123.11221252 38.18554131 123.11221252 38.52900696 124.22497559 C39 126 39 126 39 128 C38.4330542 128.08975098 37.8661084 128.17950195 37.28198242 128.27197266 C10.60245114 132.58300266 -13.07934598 141.61357637 -37 154 C-38.6718084 154.86041936 -40.34362947 155.72081419 -42.01565552 156.58081055 C-56.75906203 164.14426579 -56.75906203 164.14426579 -71.40234375 171.8984375 C-72.17457275 172.31424072 -72.94680176 172.73004395 -73.74243164 173.15844727 C-75.10313216 173.89479888 -76.46074795 174.6368995 -77.81420898 175.38647461 C-81.82565463 177.55977102 -85.60556725 178.89296259 -90 180 C-86.57092864 176.31917403 -82.72619675 173.46096825 -78.6875 170.5 C-73.23691539 166.46448294 -67.88712872 162.34037631 -62.625 158.0625 C-37.60129096 137.88486195 -11.54658636 122.15092553 19.22851562 112.62915039 C21.00056306 112.14266376 21.00056306 112.14266376 22 111 C21.67156081 104.71778819 19.32125375 99.97770864 16.48022461 94.44042969 C16.0119072 93.50788361 15.54358978 92.57533752 15.06108093 91.61453247 C13.51727116 88.54562902 11.9596804 85.48393291 10.40234375 82.421875 C9.32655546 80.28724948 8.25182765 78.1520892 7.17811584 76.01641846 C4.35393193 70.40409544 1.51883138 64.7973684 -1.31964111 59.19226074 C-5.86873134 50.20750883 -10.40635684 41.21701001 -14.93420219 32.22153473 C-16.51982554 29.07727548 -18.11323578 25.93704935 -19.70729065 22.79705811 C-20.6750334 20.87885408 -21.64249189 18.96050661 -22.60961914 17.04199219 C-23.05688354 16.16610443 -23.50414795 15.29021667 -23.96496582 14.38778687 C-24.36740005 13.5860202 -24.76983429 12.78425354 -25.1844635 11.95819092 C-25.71346803 10.91407106 -25.71346803 10.91407106 -26.25315952 9.84885788 C-27 8 -27 8 -27 5 C-18.19516081 2.40014591 -9.23114528 0 0 0 Z " fill="#EFBD21" transform="translate(460,294)"/>
<path d="M0 0 C41.91 0 83.82 0 127 0 C127 6.6 127 13.2 127 20 C85.09 20 43.18 20 0 20 C0 13.4 0 6.8 0 0 Z " fill="#2B4C65" transform="translate(11,135)"/>
<path d="M0 0 C41.58 0 83.16 0 126 0 C126 6.6 126 13.2 126 20 C84.42 20 42.84 20 0 20 C0 13.4 0 6.8 0 0 Z " fill="#2C4D66" transform="translate(364,135)"/>
<path d="M0 0 C42.57 0 85.14 0 129 0 C129 3.96 129 7.92 129 12 C86.43 12 43.86 12 0 12 C0 8.04 0 4.08 0 0 Z " fill="#588BB3" transform="translate(186,234)"/>
<path d="M0 0 C1.59423828 1.60620117 1.59423828 1.60620117 2.9453125 3.85546875 C3.45094727 4.68224121 3.95658203 5.50901367 4.47753906 6.36083984 C4.97995117 7.2317627 5.48236328 8.10268555 6 9 C6.47405273 9.80775879 6.94810547 10.61551758 7.43652344 11.44775391 C8.94204327 14.05543758 10.41163103 16.68094409 11.875 19.3125 C13.01360127 21.3441546 14.15295946 23.37538514 15.29296875 25.40625 C15.89157715 26.47359375 16.49018555 27.5409375 17.10693359 28.640625 C20.09637108 33.945585 23.12678593 39.22687682 26.15536499 44.509552 C27.18250971 46.3037829 28.20669747 48.09966547 29.22973633 49.89624023 C32.21470747 55.13748758 35.20973445 60.37064699 38.2734375 65.56640625 C39.20326265 67.16919098 40.13296119 68.77204918 41.0625 70.375 C41.48619873 71.07536377 41.90989746 71.77572754 42.34643555 72.49731445 C44.22453449 75.77187544 45.02465934 77.6623567 44.74609375 81.4765625 C44.49988281 82.30929687 44.25367188 83.14203125 44 84 C40.75 84.8125 40.75 84.8125 37 85 C34.07903375 81.91164314 32.0130573 78.49009211 29.96875 74.78125 C29.41195557 73.77779541 28.85516113 72.77434082 28.28149414 71.74047852 C27.69360107 70.67112061 27.10570801 69.6017627 26.5 68.5 C25.23900883 66.22746071 23.97727904 63.95533112 22.71484375 61.68359375 C22.08690918 60.55163574 21.45897461 59.41967773 20.81201172 58.25341797 C18.26018913 53.67168962 15.66770014 49.11403216 13.0625 44.5625 C12.35722168 43.325 12.35722168 43.325 11.63769531 42.0625 C9.11598986 37.64909432 6.56616232 33.25422754 3.97679138 28.88011169 C2.57304109 26.50663659 1.17721578 24.1285418 -0.21829224 21.75021362 C-1.22998756 20.03394958 -2.2534336 18.32462965 -3.27709961 16.61547852 C-3.89206299 15.56674561 -4.50702637 14.5180127 -5.140625 13.4375 C-5.69266602 12.50808594 -6.24470703 11.57867187 -6.81347656 10.62109375 C-8.09027025 7.80058819 -8.34011617 6.05710593 -8 3 C-5.83389453 -0.30616098 -3.79125101 -0.46481529 0 0 Z " fill="#040403" transform="translate(365,326)"/>
<path d="M0 0 C1.423125 0.37125 1.423125 0.37125 2.875 0.75 C4.26246781 3.52493563 4.00989257 5.79119947 4.02026367 8.89624023 C4.02664352 10.18775497 4.03302338 11.47926971 4.03959656 12.80992126 C4.04112516 14.22614505 4.04223916 15.64236933 4.04296875 17.05859375 C4.0461809 18.5058648 4.04954495 19.95313552 4.05305481 21.40040588 C4.05904731 24.43597161 4.06089458 27.47150885 4.06030273 30.50708008 C4.06020109 34.39892436 4.07385521 38.2905863 4.09107494 42.18238735 C4.10218724 45.17207174 4.10422218 48.16171194 4.10369301 51.15141487 C4.10487422 52.58635143 4.10930387 54.0212891 4.11702538 55.45620537 C4.12680946 57.46223482 4.12268707 59.46831759 4.11791992 61.47436523 C4.11934494 62.61638901 4.12076996 63.75841278 4.12223816 64.93504333 C3.875 67.75 3.875 67.75 1.875 70.75 C-1.125 71.0625 -1.125 71.0625 -4.125 70.75 C-6.90424704 67.97075296 -6.3844547 66.29732314 -6.3996582 62.40429688 C-6.40476913 61.75372818 -6.40988007 61.10315948 -6.41514587 60.43287659 C-6.4290692 58.27807468 -6.4280833 56.12359159 -6.42578125 53.96875 C-6.42966634 52.47424195 -6.43400062 50.979735 -6.43876648 49.48522949 C-6.44623432 46.35128196 -6.44593313 43.21744707 -6.44067383 40.08349609 C-6.43487466 36.06141347 -6.45181782 32.03979067 -6.4750185 28.01778412 C-6.48972754 24.93118582 -6.49063151 21.84469903 -6.48750877 18.7580719 C-6.4880233 17.27485746 -6.49328548 15.791637 -6.50332069 14.30845642 C-6.5156154 12.23723169 -6.50893704 10.16691263 -6.49731445 8.09570312 C-6.49794388 6.91592896 -6.4985733 5.73615479 -6.4992218 4.52062988 C-6.37572861 3.60632202 -6.25223541 2.69201416 -6.125 1.75 C-3.125 -0.25 -3.125 -0.25 0 0 Z " fill="#000101" transform="translate(188.125,87.25)"/>
<path d="M0 0 C2.5625 0.3125 2.5625 0.3125 4.19839478 1.4407959 C6.17771982 4.15665003 5.94368763 6.23368463 5.95068359 9.57226562 C5.96014008 10.86370483 5.96959656 12.15514404 5.9793396 13.48571777 C5.97396992 14.89673163 5.96781697 16.3077427 5.9609375 17.71875 C5.96295835 19.16459297 5.96586988 20.61043494 5.96963501 22.05627441 C5.97405789 25.08595487 5.96762877 28.11536993 5.95361328 31.14501953 C5.93652105 35.02912776 5.94636248 38.91261412 5.96433067 42.79669952 C5.9751697 45.78213184 5.97172171 48.76741664 5.9639473 51.75285339 C5.9619456 53.18499322 5.96440353 54.61714643 5.97138596 56.04927063 C5.97900144 58.05042262 5.96533662 60.05162154 5.95068359 62.05273438 C5.94829681 63.19174194 5.94591003 64.33074951 5.94345093 65.50427246 C5.5625 68.3125 5.5625 68.3125 4.19839478 70.1842041 C1.88900564 71.777017 0.30238269 71.66376701 -2.4375 71.3125 C-5.21841885 68.53158115 -4.69103599 66.86164775 -4.69628906 62.96679688 C-4.6997937 62.31622818 -4.70329834 61.66565948 -4.70690918 60.99537659 C-4.71572629 58.84055983 -4.70987763 56.68607022 -4.703125 54.53125 C-4.70447166 53.03674252 -4.7064122 51.54223547 -4.70892334 50.04772949 C-4.71187457 46.91377598 -4.70757707 43.77993638 -4.69824219 40.64599609 C-4.68684757 36.62399987 -4.69340706 32.60227055 -4.70538712 28.58028412 C-4.7126058 25.49369283 -4.71031777 22.40716507 -4.70513153 19.3205719 C-4.70379505 17.83736642 -4.70544269 16.35415522 -4.71009064 14.87095642 C-4.71515612 12.79988269 -4.70744584 10.72924434 -4.69628906 8.65820312 C-4.69469788 7.47842896 -4.69310669 6.29865479 -4.69146729 5.08312988 C-4.36138551 1.48213682 -3.6287441 0.4652236 0 0 Z " fill="#000001" transform="translate(314.4375,86.6875)"/>
<path d="M0 0 C2.4375 0.75 2.4375 0.75 4.4375 2.75 C4.69819641 5.43797302 4.69819641 5.43797302 4.7121582 8.89624023 C4.72169022 10.18775497 4.73122223 11.47926971 4.74104309 12.80992126 C4.74078167 14.2261457 4.73984466 15.64237015 4.73828125 17.05859375 C4.74216682 18.50586572 4.7465012 19.95313655 4.75126648 21.40040588 C4.75873473 24.43600152 4.7584332 27.47148088 4.75317383 30.50708008 C4.74737981 34.39903407 4.7643051 38.29051207 4.7875185 42.18238735 C4.80224435 45.17209155 4.80312912 48.16168083 4.80000877 51.15141487 C4.80052262 52.58635462 4.80577224 54.02130071 4.81582069 55.45620537 C4.82814341 57.46222181 4.8194657 59.46833416 4.80981445 61.47436523 C4.81044388 62.61638901 4.8110733 63.75841278 4.8117218 64.93504333 C4.4375 67.75 4.4375 67.75 3.0743866 69.62269592 C0.764153 71.21372597 -0.82275976 71.10124875 -3.5625 70.75 C-6.34174704 67.97075296 -5.8219547 66.29732314 -5.8371582 62.40429688 C-5.84226913 61.75372818 -5.84738007 61.10315948 -5.85264587 60.43287659 C-5.8665692 58.27807468 -5.8655833 56.12359159 -5.86328125 53.96875 C-5.86716634 52.47424195 -5.87150062 50.979735 -5.87626648 49.48522949 C-5.88373432 46.35128196 -5.88343313 43.21744707 -5.87817383 40.08349609 C-5.87237466 36.06141347 -5.88931782 32.03979067 -5.9125185 28.01778412 C-5.92722754 24.93118582 -5.92813151 21.84469903 -5.92500877 18.7580719 C-5.9255233 17.27485746 -5.93078548 15.791637 -5.94082069 14.30845642 C-5.9531154 12.23723169 -5.94643704 10.16691263 -5.93481445 8.09570312 C-5.93544388 6.91592896 -5.9360733 5.73615479 -5.9367218 4.52062988 C-5.81322861 3.60632202 -5.68973541 2.69201416 -5.5625 1.75 C-2.5625 -0.25 -2.5625 -0.25 0 0 Z " fill="#020303" transform="translate(283.5625,87.25)"/>
<path d="M0 0 C2.4375 0.75 2.4375 0.75 4.4375 2.75 C4.69819641 5.43797302 4.69819641 5.43797302 4.7121582 8.89624023 C4.72169022 10.18775497 4.73122223 11.47926971 4.74104309 12.80992126 C4.74078167 14.2261457 4.73984466 15.64237015 4.73828125 17.05859375 C4.74216682 18.50586572 4.7465012 19.95313655 4.75126648 21.40040588 C4.75873473 24.43600152 4.7584332 27.47148088 4.75317383 30.50708008 C4.74737981 34.39903407 4.7643051 38.29051207 4.7875185 42.18238735 C4.80224435 45.17209155 4.80312912 48.16168083 4.80000877 51.15141487 C4.80052262 52.58635462 4.80577224 54.02130071 4.81582069 55.45620537 C4.82814341 57.46222181 4.8194657 59.46833416 4.80981445 61.47436523 C4.81044388 62.61638901 4.8110733 63.75841278 4.8117218 64.93504333 C4.4375 67.75 4.4375 67.75 3.0743866 69.62269592 C0.764153 71.21372597 -0.82275976 71.10124875 -3.5625 70.75 C-6.34174704 67.97075296 -5.8219547 66.29732314 -5.8371582 62.40429688 C-5.84226913 61.75372818 -5.84738007 61.10315948 -5.85264587 60.43287659 C-5.8665692 58.27807468 -5.8655833 56.12359159 -5.86328125 53.96875 C-5.86716634 52.47424195 -5.87150062 50.979735 -5.87626648 49.48522949 C-5.88373432 46.35128196 -5.88343313 43.21744707 -5.87817383 40.08349609 C-5.87237466 36.06141347 -5.88931782 32.03979067 -5.9125185 28.01778412 C-5.92722754 24.93118582 -5.92813151 21.84469903 -5.92500877 18.7580719 C-5.9255233 17.27485746 -5.93078548 15.791637 -5.94082069 14.30845642 C-5.9531154 12.23723169 -5.94643704 10.16691263 -5.93481445 8.09570312 C-5.93544388 6.91592896 -5.9360733 5.73615479 -5.9367218 4.52062988 C-5.81322861 3.60632202 -5.68973541 2.69201416 -5.5625 1.75 C-2.5625 -0.25 -2.5625 -0.25 0 0 Z " fill="#000000" transform="translate(219.5625,87.25)"/>
<path d="M0 0 C2.4375 0.75 2.4375 0.75 4.4375 2.75 C4.69819641 5.43797302 4.69819641 5.43797302 4.7121582 8.89624023 C4.72169022 10.18775497 4.73122223 11.47926971 4.74104309 12.80992126 C4.74078167 14.2261457 4.73984466 15.64237015 4.73828125 17.05859375 C4.74216682 18.50586572 4.7465012 19.95313655 4.75126648 21.40040588 C4.75873473 24.43600152 4.7584332 27.47148088 4.75317383 30.50708008 C4.74737981 34.39903407 4.7643051 38.29051207 4.7875185 42.18238735 C4.80224435 45.17209155 4.80312912 48.16168083 4.80000877 51.15141487 C4.80052262 52.58635462 4.80577224 54.02130071 4.81582069 55.45620537 C4.82814341 57.46222181 4.8194657 59.46833416 4.80981445 61.47436523 C4.81044388 62.61638901 4.8110733 63.75841278 4.8117218 64.93504333 C4.4375 67.75 4.4375 67.75 3.0743866 69.62269592 C0.764153 71.21372597 -0.82275976 71.10124875 -3.5625 70.75 C-6.34174704 67.97075296 -5.8219547 66.29732314 -5.8371582 62.40429688 C-5.84226913 61.75372818 -5.84738007 61.10315948 -5.85264587 60.43287659 C-5.8665692 58.27807468 -5.8655833 56.12359159 -5.86328125 53.96875 C-5.86716634 52.47424195 -5.87150062 50.979735 -5.87626648 49.48522949 C-5.88373432 46.35128196 -5.88343313 43.21744707 -5.87817383 40.08349609 C-5.87237466 36.06141347 -5.88931782 32.03979067 -5.9125185 28.01778412 C-5.92722754 24.93118582 -5.92813151 21.84469903 -5.92500877 18.7580719 C-5.9255233 17.27485746 -5.93078548 15.791637 -5.94082069 14.30845642 C-5.9531154 12.23723169 -5.94643704 10.16691263 -5.93481445 8.09570312 C-5.93544388 6.91592896 -5.9360733 5.73615479 -5.9367218 4.52062988 C-5.81322861 3.60632202 -5.68973541 2.69201416 -5.5625 1.75 C-2.5625 -0.25 -2.5625 -0.25 0 0 Z " fill="#000000" transform="translate(251.5625,87.25)"/>
<path d="M0 0 C6.362488 2.87826838 9.36741751 12.46602479 12.234375 18.5078125 C12.64665344 19.37010468 13.05893188 20.23239685 13.48370361 21.12081909 C14.34660239 22.9297854 15.20698406 24.73995438 16.06494141 26.55126953 C17.3766443 29.31596572 18.70154357 32.0740728 20.02734375 34.83203125 C20.86799444 36.59857456 21.70786547 38.36548914 22.546875 40.1328125 C22.94163025 40.95169952 23.3363855 41.77058655 23.74310303 42.61428833 C25.704405 46.7856753 27.2980051 50.51933505 27.625 55.1875 C26.5625 57.0625 26.5625 57.0625 24.625 58.1875 C22.62550732 58.23254489 20.62440377 58.23633211 18.625 58.1875 C10.68833948 43.63994167 3.65422901 28.74938008 -3.22680664 13.68334961 C-3.92095862 12.17445834 -4.63222146 10.67305709 -5.375 9.1875 C-5.82337758 3.91906342 -5.82337758 3.91906342 -4.1875 1.25 C-2.375 0.1875 -2.375 0.1875 0 0 Z " fill="#050404" transform="translate(395.375,321.8125)"/>
<path d="M0 0 C2.98800847 0.44820127 3.67280065 1.02304308 5.5 3.375 C5.88818359 5.50390625 5.88818359 5.50390625 5.8984375 7.9375 C5.90230469 8.81664062 5.90617187 9.69578125 5.91015625 10.6015625 C5.89855469 11.51679688 5.88695313 12.43203125 5.875 13.375 C5.88660156 14.29023438 5.89820312 15.20546875 5.91015625 16.1484375 C5.90628906 17.02757812 5.90242188 17.90671875 5.8984375 18.8125 C5.89505371 19.61558594 5.89166992 20.41867187 5.88818359 21.24609375 C5.40752989 23.88213166 4.610545 24.76792832 2.5 26.375 C0 26.8125 0 26.8125 -2.5 26.375 C-4.57512306 24.55802622 -5.4064764 23.04873702 -5.78613281 20.3137207 C-5.90443727 17.80643782 -5.90889003 15.32224523 -5.875 12.8125 C-5.88660156 11.94947266 -5.89820312 11.08644531 -5.91015625 10.19726562 C-5.90628906 9.36775391 -5.90242188 8.53824219 -5.8984375 7.68359375 C-5.89505371 6.92876709 -5.89166992 6.17394043 -5.88818359 5.39624023 C-5.20959781 1.86289952 -3.47345185 0.52101778 0 0 Z " fill="#04070A" transform="translate(84.5,286.625)"/>
<path d="M0 0 C1.670625 0.4021875 1.670625 0.4021875 3.375 0.8125 C5.13252146 4.32754291 4.64453401 8.31483252 4.6875 12.1875 C4.71650391 13.05117187 4.74550781 13.91484375 4.77539062 14.8046875 C4.83914732 21.16073945 4.83914732 21.16073945 2.51953125 24.41796875 C0.375 25.8125 0.375 25.8125 -2.25 25.75 C-4.625 24.8125 -4.625 24.8125 -6.625 21.8125 C-7.05005754 18.65989543 -6.94930625 15.49074228 -6.9375 12.3125 C-6.95361328 11.44496094 -6.96972656 10.57742187 -6.98632812 9.68359375 C-6.98697266 8.84957031 -6.98761719 8.01554688 -6.98828125 7.15625 C-6.99126221 6.39505859 -6.99424316 5.63386719 -6.99731445 4.84960938 C-6.19523154 0.46103244 -4.24005062 -0.21931296 0 0 Z " fill="#040709" transform="translate(447.625,238.1875)"/>
<path d="M0 0 C1.670625 0.4021875 1.670625 0.4021875 3.375 0.8125 C5.13252146 4.32754291 4.64453401 8.31483252 4.6875 12.1875 C4.71650391 13.05117187 4.74550781 13.91484375 4.77539062 14.8046875 C4.83914732 21.16073945 4.83914732 21.16073945 2.51953125 24.41796875 C0.375 25.8125 0.375 25.8125 -2.25 25.75 C-4.625 24.8125 -4.625 24.8125 -6.625 21.8125 C-7.05005754 18.65989543 -6.94930625 15.49074228 -6.9375 12.3125 C-6.95361328 11.44496094 -6.96972656 10.57742187 -6.98632812 9.68359375 C-6.98697266 8.84957031 -6.98761719 8.01554688 -6.98828125 7.15625 C-6.99126221 6.39505859 -6.99424316 5.63386719 -6.99731445 4.84960938 C-6.19523154 0.46103244 -4.24005062 -0.21931296 0 0 Z " fill="#040709" transform="translate(388.625,238.1875)"/>
<path d="M0 0 C1.670625 0.4021875 1.670625 0.4021875 3.375 0.8125 C5.13252146 4.32754291 4.64453401 8.31483252 4.6875 12.1875 C4.71650391 13.05117187 4.74550781 13.91484375 4.77539062 14.8046875 C4.83914732 21.16073945 4.83914732 21.16073945 2.51953125 24.41796875 C0.375 25.8125 0.375 25.8125 -2.25 25.75 C-4.625 24.8125 -4.625 24.8125 -6.625 21.8125 C-7.05005754 18.65989543 -6.94930625 15.49074228 -6.9375 12.3125 C-6.95361328 11.44496094 -6.96972656 10.57742187 -6.98632812 9.68359375 C-6.98697266 8.84957031 -6.98761719 8.01554688 -6.98828125 7.15625 C-6.99126221 6.39505859 -6.99424316 5.63386719 -6.99731445 4.84960938 C-6.19523154 0.46103244 -4.24005062 -0.21931296 0 0 Z " fill="#040709" transform="translate(85.625,238.1875)"/>
<path d="M0 0 C3.5 -0.375 3.5 -0.375 7 0 C9.06935577 3.10403365 9.25517909 3.81900019 9.265625 7.34375 C9.26820313 8.17777344 9.27078125 9.01179687 9.2734375 9.87109375 C9.26570313 10.73863281 9.25796875 11.60617188 9.25 12.5 C9.25773437 13.36753906 9.26546875 14.23507813 9.2734375 15.12890625 C9.27085937 15.96292969 9.26828125 16.79695313 9.265625 17.65625 C9.26336914 18.41744141 9.26111328 19.17863281 9.25878906 19.96289062 C9 22 9 22 7 25 C3.5 25.375 3.5 25.375 0 25 C-2.06935577 21.89596635 -2.25517909 21.18099981 -2.265625 17.65625 C-2.26820313 16.82222656 -2.27078125 15.98820313 -2.2734375 15.12890625 C-2.26570313 14.26136719 -2.25796875 13.39382812 -2.25 12.5 C-2.25773437 11.63246094 -2.26546875 10.76492187 -2.2734375 9.87109375 C-2.26957031 8.62005859 -2.26957031 8.62005859 -2.265625 7.34375 C-2.26336914 6.58255859 -2.26111328 5.82136719 -2.25878906 5.03710938 C-2 3 -2 3 0 0 Z " fill="#04080A" transform="translate(443,189)"/>
<path d="M0 0 C3.5 -0.375 3.5 -0.375 7 0 C9.06935577 3.10403365 9.25517909 3.81900019 9.265625 7.34375 C9.26820313 8.17777344 9.27078125 9.01179687 9.2734375 9.87109375 C9.26570313 10.73863281 9.25796875 11.60617188 9.25 12.5 C9.25773437 13.36753906 9.26546875 14.23507813 9.2734375 15.12890625 C9.27085937 15.96292969 9.26828125 16.79695313 9.265625 17.65625 C9.26336914 18.41744141 9.26111328 19.17863281 9.25878906 19.96289062 C9 22 9 22 7 25 C3.5 25.375 3.5 25.375 0 25 C-2.06935577 21.89596635 -2.25517909 21.18099981 -2.265625 17.65625 C-2.26820313 16.82222656 -2.27078125 15.98820313 -2.2734375 15.12890625 C-2.26570313 14.26136719 -2.25796875 13.39382812 -2.25 12.5 C-2.25773437 11.63246094 -2.26546875 10.76492187 -2.2734375 9.87109375 C-2.26957031 8.62005859 -2.26957031 8.62005859 -2.265625 7.34375 C-2.26336914 6.58255859 -2.26111328 5.82136719 -2.25878906 5.03710938 C-2 3 -2 3 0 0 Z " fill="#04080A" transform="translate(384,189)"/>
<path d="M0 0 C3.5 -0.375 3.5 -0.375 7 0 C9.06935577 3.10403365 9.25517909 3.81900019 9.265625 7.34375 C9.26820312 8.17777344 9.27078125 9.01179687 9.2734375 9.87109375 C9.26570313 10.73863281 9.25796875 11.60617188 9.25 12.5 C9.25773437 13.36753906 9.26546875 14.23507813 9.2734375 15.12890625 C9.27085938 15.96292969 9.26828125 16.79695313 9.265625 17.65625 C9.26336914 18.41744141 9.26111328 19.17863281 9.25878906 19.96289062 C9 22 9 22 7 25 C3.5 25.375 3.5 25.375 0 25 C-2.06935577 21.89596635 -2.25517909 21.18099981 -2.265625 17.65625 C-2.26820312 16.82222656 -2.27078125 15.98820313 -2.2734375 15.12890625 C-2.26570313 14.26136719 -2.25796875 13.39382812 -2.25 12.5 C-2.25773437 11.63246094 -2.26546875 10.76492187 -2.2734375 9.87109375 C-2.26957031 8.62005859 -2.26957031 8.62005859 -2.265625 7.34375 C-2.26336914 6.58255859 -2.26111328 5.82136719 -2.25878906 5.03710938 C-2 3 -2 3 0 0 Z " fill="#04070A" transform="translate(81,189)"/>
<path d="M0 0 C3 0.25 3 0.25 5 2.25 C5.45091675 5.70943333 5.32406422 9.20204434 5.3125 12.6875 C5.32861328 13.65494141 5.34472656 14.62238281 5.36132812 15.61914062 C5.36229492 17.01229492 5.36229492 17.01229492 5.36328125 18.43359375 C5.36775269 19.71061157 5.36775269 19.71061157 5.37231445 21.01342773 C5 23.25 5 23.25 3.67260742 25.06274414 C2 26.25 2 26.25 -1.125 26.0625 C-2.07375 25.794375 -3.0225 25.52625 -4 25.25 C-5.88519529 21.47960943 -5.18475994 16.89845405 -5.1875 12.75 C-5.19974609 11.77417969 -5.21199219 10.79835937 -5.22460938 9.79296875 C-5.22654297 8.86097656 -5.22847656 7.92898437 -5.23046875 6.96875 C-5.23457764 6.11216797 -5.23868652 5.25558594 -5.24291992 4.37304688 C-4.82884434 0.75415115 -3.47533148 0.28961096 0 0 Z " fill="#010102" transform="translate(417,237.75)"/>
<path d="M0 0 C3 0.25 3 0.25 5 2.25 C5.45091675 5.70943333 5.32406422 9.20204434 5.3125 12.6875 C5.32861328 13.65494141 5.34472656 14.62238281 5.36132812 15.61914062 C5.36229492 17.01229492 5.36229492 17.01229492 5.36328125 18.43359375 C5.36775269 19.71061157 5.36775269 19.71061157 5.37231445 21.01342773 C5 23.25 5 23.25 3.67260742 25.06274414 C2 26.25 2 26.25 -1.125 26.0625 C-2.07375 25.794375 -3.0225 25.52625 -4 25.25 C-5.88519529 21.47960943 -5.18475994 16.89845405 -5.1875 12.75 C-5.19974609 11.77417969 -5.21199219 10.79835937 -5.22460938 9.79296875 C-5.22654297 8.86097656 -5.22847656 7.92898437 -5.23046875 6.96875 C-5.23457764 6.11216797 -5.23868652 5.25558594 -5.24291992 4.37304688 C-4.82884434 0.75415115 -3.47533148 0.28961096 0 0 Z " fill="#010102" transform="translate(114,237.75)"/>
<path d="M0 0 C3 0.25 3 0.25 5 2.25 C5.45091675 5.70943333 5.32406422 9.20204434 5.3125 12.6875 C5.32861328 13.65494141 5.34472656 14.62238281 5.36132812 15.61914062 C5.36229492 17.01229492 5.36229492 17.01229492 5.36328125 18.43359375 C5.36775269 19.71061157 5.36775269 19.71061157 5.37231445 21.01342773 C5 23.25 5 23.25 3.67260742 25.06274414 C2 26.25 2 26.25 -1.125 26.0625 C-2.07375 25.794375 -3.0225 25.52625 -4 25.25 C-5.88519529 21.47960943 -5.18475994 16.89845405 -5.1875 12.75 C-5.19974609 11.77417969 -5.21199219 10.79835937 -5.22460938 9.79296875 C-5.22654297 8.86097656 -5.22847656 7.92898437 -5.23046875 6.96875 C-5.23457764 6.11216797 -5.23868652 5.25558594 -5.24291992 4.37304688 C-4.82884434 0.75415115 -3.47533148 0.28961096 0 0 Z " fill="#010102" transform="translate(55,237.75)"/>
<path d="M0 0 C2.875 0.6875 2.875 0.6875 3.875 1.6875 C4.15398825 5.32576046 4.10677293 8.97730798 4.125 12.625 C4.145625 13.65302734 4.16625 14.68105469 4.1875 15.74023438 C4.19265625 16.72185547 4.1978125 17.70347656 4.203125 18.71484375 C4.21714355 20.07210571 4.21714355 20.07210571 4.23144531 21.45678711 C4.11381836 22.19292236 3.99619141 22.92905762 3.875 23.6875 C0.875 25.6875 0.875 25.6875 -2.25 25.4375 C-3.19875 25.19 -4.1475 24.9425 -5.125 24.6875 C-7.01300288 20.91149424 -6.35304484 16.3425143 -6.375 12.1875 C-6.395625 11.21167969 -6.41625 10.23585938 -6.4375 9.23046875 C-6.44265625 8.29847656 -6.4478125 7.36648438 -6.453125 6.40625 C-6.4624707 5.54966797 -6.47181641 4.69308594 -6.48144531 3.81054688 C-6.36381836 3.10994141 -6.24619141 2.40933594 -6.125 1.6875 C-3.125 -0.3125 -3.125 -0.3125 0 0 Z " fill="#000101" transform="translate(115.125,287.3125)"/>
<path d="M0 0 C2.875 0.6875 2.875 0.6875 3.875 1.6875 C4.15398825 5.32576046 4.10677293 8.97730798 4.125 12.625 C4.145625 13.65302734 4.16625 14.68105469 4.1875 15.74023438 C4.19265625 16.72185547 4.1978125 17.70347656 4.203125 18.71484375 C4.21714355 20.07210571 4.21714355 20.07210571 4.23144531 21.45678711 C4.11381836 22.19292236 3.99619141 22.92905762 3.875 23.6875 C0.875 25.6875 0.875 25.6875 -2.25 25.4375 C-3.19875 25.19 -4.1475 24.9425 -5.125 24.6875 C-7.01300288 20.91149424 -6.35304484 16.3425143 -6.375 12.1875 C-6.395625 11.21167969 -6.41625 10.23585938 -6.4375 9.23046875 C-6.44265625 8.29847656 -6.4478125 7.36648438 -6.453125 6.40625 C-6.4624707 5.54966797 -6.47181641 4.69308594 -6.48144531 3.81054688 C-6.36381836 3.10994141 -6.24619141 2.40933594 -6.125 1.6875 C-3.125 -0.3125 -3.125 -0.3125 0 0 Z " fill="#000101" transform="translate(56.125,287.3125)"/>
<path d="M0 0 C2.4375 0.8125 2.4375 0.8125 4.4375 2.8125 C4.69628906 4.93554688 4.69628906 4.93554688 4.703125 7.53125 C4.70570313 8.46324219 4.70828125 9.39523438 4.7109375 10.35546875 C4.70320313 11.33128906 4.69546875 12.30710938 4.6875 13.3125 C4.69523437 14.28832031 4.70296875 15.26414063 4.7109375 16.26953125 C4.70835937 17.20152344 4.70578125 18.13351563 4.703125 19.09375 C4.70086914 19.95033203 4.69861328 20.80691406 4.69628906 21.68945312 C4.4375 23.8125 4.4375 23.8125 2.4375 25.8125 C-0.5625 26.0625 -0.5625 26.0625 -3.5625 25.8125 C-6.49396333 22.88103667 -5.85411443 20.32809254 -5.88476562 16.31835938 C-5.88154297 15.34705078 -5.87832031 14.37574219 -5.875 13.375 C-5.89111328 12.40755859 -5.90722656 11.44011719 -5.92382812 10.44335938 C-5.92447266 9.51458984 -5.92511719 8.58582031 -5.92578125 7.62890625 C-5.92876221 6.77756104 -5.93174316 5.92621582 -5.93481445 5.04907227 C-5.31294542 1.31337247 -3.8031563 -0.27827973 0 0 Z " fill="#000101" transform="translate(417.5625,188.1875)"/>
<path d="M0 0 C3 0.25 3 0.25 5 2.25 C5.25878906 4.37304688 5.25878906 4.37304688 5.265625 6.96875 C5.26820312 7.90074219 5.27078125 8.83273438 5.2734375 9.79296875 C5.26570313 10.76878906 5.25796875 11.74460938 5.25 12.75 C5.25773437 13.72582031 5.26546875 14.70164063 5.2734375 15.70703125 C5.27085938 16.63902344 5.26828125 17.57101563 5.265625 18.53125 C5.26336914 19.38783203 5.26111328 20.24441406 5.25878906 21.12695312 C5 23.25 5 23.25 3 25.25 C0 25.5 0 25.5 -3 25.25 C-5.49057251 22.75942749 -5.2565813 21.96527341 -5.265625 18.53125 C-5.26820312 17.59925781 -5.27078125 16.66726562 -5.2734375 15.70703125 C-5.26570313 14.73121094 -5.25796875 13.75539062 -5.25 12.75 C-5.25773437 11.77417969 -5.26546875 10.79835937 -5.2734375 9.79296875 C-5.27085938 8.86097656 -5.26828125 7.92898437 -5.265625 6.96875 C-5.26336914 6.11216797 -5.26111328 5.25558594 -5.25878906 4.37304688 C-4.81826677 0.75910174 -3.47950297 0.28995858 0 0 Z " fill="#000000" transform="translate(114,188.75)"/>
<path d="M0 0 C3 0.25 3 0.25 5 2.25 C5.25878906 4.37304688 5.25878906 4.37304688 5.265625 6.96875 C5.26820312 7.90074219 5.27078125 8.83273438 5.2734375 9.79296875 C5.26570313 10.76878906 5.25796875 11.74460938 5.25 12.75 C5.25773437 13.72582031 5.26546875 14.70164063 5.2734375 15.70703125 C5.27085938 16.63902344 5.26828125 17.57101563 5.265625 18.53125 C5.26336914 19.38783203 5.26111328 20.24441406 5.25878906 21.12695312 C5 23.25 5 23.25 3 25.25 C0 25.5 0 25.5 -3 25.25 C-5.49057251 22.75942749 -5.2565813 21.96527341 -5.265625 18.53125 C-5.26820312 17.59925781 -5.27078125 16.66726562 -5.2734375 15.70703125 C-5.26570313 14.73121094 -5.25796875 13.75539062 -5.25 12.75 C-5.25773437 11.77417969 -5.26546875 10.79835937 -5.2734375 9.79296875 C-5.27085938 8.86097656 -5.26828125 7.92898437 -5.265625 6.96875 C-5.26336914 6.11216797 -5.26111328 5.25558594 -5.25878906 4.37304688 C-4.81826677 0.75910174 -3.47950297 0.28995858 0 0 Z " fill="#000000" transform="translate(55,188.75)"/>
<path d="M0 0 C0.66 0.33 1.32 0.66 2 1 C1.67 1.99 1.34 2.98 1 4 C-1.06640625 4.94921875 -1.06640625 4.94921875 -3.5625 5.6875 C-4.38878906 5.93886719 -5.21507812 6.19023437 -6.06640625 6.44921875 C-6.70449219 6.63097656 -7.34257812 6.81273437 -8 7 C-5.4837822 4.39391727 -2.94865641 2.10618315 0 0 Z " fill="#D6A91D" transform="translate(378,467)"/>
</svg>
