<?xml version="1.0" encoding="UTF-8"?>
<svg version="1.1" xmlns="http://www.w3.org/2000/svg" width="473" height="83">
<path d="M0 0 C156.09 0 312.18 0 473 0 C473 27.39 473 54.78 473 83 C316.91 83 160.82 83 0 83 C0 55.61 0 28.22 0 0 Z " fill="#D0031C" transform="translate(0,0)"/>
<path d="M0 0 C0.77399643 0.00718552 1.54799286 0.01437103 2.34544373 0.02177429 C3.5362278 0.02246162 3.5362278 0.02246162 4.75106812 0.02316284 C6.42975865 0.02618539 8.10844637 0.03407179 9.78709412 0.0464325 C12.36588906 0.06469419 14.94432524 0.06694217 17.5231781 0.06669617 C19.15143643 0.07161108 20.77969232 0.07743929 22.40794373 0.08427429 C23.57197472 0.08594353 23.57197472 0.08594353 24.75952148 0.08764648 C30.1942374 0.13619297 30.1942374 0.13619297 31.31028748 1.25224304 C31.56444297 5.89239629 31.49551545 10.5434561 31.49778748 15.18974304 C31.51003357 16.50394226 31.52227966 17.81814148 31.53489685 19.17216492 C31.53683044 20.42448914 31.53876404 21.67681335 31.54075623 22.96708679 C31.54486511 24.12329529 31.548974 25.27950378 31.5532074 26.4707489 C31.31028748 29.25224304 31.31028748 29.25224304 29.31028748 31.25224304 C26.68109444 31.46412285 24.15982332 31.55622558 21.52903748 31.55302429 C20.37510498 31.55945198 20.37510498 31.55945198 19.19786072 31.56600952 C17.57047002 31.57175561 15.94305364 31.57225103 14.31565857 31.56791687 C11.81993535 31.56475526 9.3253954 31.58821662 6.82981873 31.61357117 C5.25039314 31.61584391 3.67096436 31.61654777 2.09153748 31.61552429 C0.96805908 31.62933891 0.96805908 31.62933891 -0.17811584 31.64343262 C-2.2815094 31.6245575 -2.2815094 31.6245575 -5.68971252 31.25224304 C-7.99702023 27.79128149 -7.9466597 26.42283207 -7.95533752 22.34208679 C-7.95920471 20.61055359 -7.95920471 20.61055359 -7.96315002 18.84403992 C-7.95541565 17.63812195 -7.94768127 16.43220398 -7.93971252 15.18974304 C-7.9474469 13.97995789 -7.95518127 12.77017273 -7.96315002 11.52372742 C-7.9605719 10.37066101 -7.95799377 9.2175946 -7.95533752 8.02958679 C-7.95308167 6.96989685 -7.95082581 5.91020691 -7.94850159 4.81840515 C-7.42894506 -0.33353695 -4.48400293 0.01923087 0 0 Z " fill="#FDF8F9" transform="translate(30.689712524414063,26.747756958007813)"/>
<path d="M0 0 C0.66 0 1.32 0 2 0 C2.99 0 3.98 0 5 0 C5.0809313 2.60478883 5.14045434 5.20706653 5.1875 7.8125 C5.22520508 8.91948242 5.22520508 8.91948242 5.26367188 10.04882812 C5.33713463 15.46058459 5.33713463 15.46058459 3.75 18 C0.57389092 19.81491948 -2.41512388 19.17630538 -6 19 C-6.33 18.01 -6.66 17.02 -7 16 C-4.03 16 -1.06 16 2 16 C1.67 15.01 1.34 14.02 1 13 C0.67 13.33 0.34 13.66 0 14 C-2.69969684 14.28417861 -4.41135091 14.32477191 -6.8125 13 C-8.71020228 9.80386985 -8.55003751 6.616685 -8 3 C-5.9513671 -0.45032909 -3.79676654 -0.29205896 0 0 Z " fill="#F9E1E4" transform="translate(141,37)"/>
<path d="M0 0 C6.46192138 0 12.5947062 0.0331632 19 1 C19 5.29 19 9.58 19 14 C18.01 14 17.02 14 16 14 C16 10.37 16 6.74 16 3 C14.68 3.33 13.36 3.66 12 4 C11.67 7.3 11.34 10.6 11 14 C10.01 14 9.02 14 8 14 C7.67 10.7 7.34 7.4 7 4 C6.01 4 5.02 4 4 4 C3.67 7.3 3.34 10.6 3 14 C2.01 14 1.02 14 0 14 C0 9.38 0 4.76 0 0 Z " fill="#F8DDE0" transform="translate(280,37)"/>
<path d="M0 0 C0.99 0 1.98 0 3 0 C3.66 2.31 4.32 4.62 5 7 C5.99 4.69 6.98 2.38 8 0 C8.99 0 9.98 0 11 0 C10.01 4.62 9.02 9.24 8 14 C6.35 13.67 4.7 13.34 3 13 C2.34 10.69 1.68 8.38 1 6 C0.34 8.64 -0.32 11.28 -1 14 C-2.32 14 -3.64 14 -5 14 C-5.50512244 12.39743892 -6.00391627 10.79288208 -6.5 9.1875 C-6.7784375 8.29417969 -7.056875 7.40085937 -7.34375 6.48046875 C-8 4 -8 4 -8 1 C-7.01 1 -6.02 1 -5 1 C-3.64560332 3.70879335 -3.93498549 6.00933268 -4 9 C-3.34 9 -2.68 9 -2 9 C-1.855625 7.700625 -1.71125 6.40125 -1.5625 5.0625 C-1.125 1.125 -1.125 1.125 0 0 Z " fill="#F9E0E3" transform="translate(210,37)"/>
<path d="M0 0 C5.4679803 -0.36453202 5.4679803 -0.36453202 7.6875 1.15625 C10.2957814 4.82026435 9.15177967 9.69957597 9 14 C5.37 14 1.74 14 -2 14 C-2.33 12.02 -2.66 10.04 -3 8 C0.4352048 5.70986347 1.985331 5.82157027 6 6 C5.67 5.34 5.34 4.68 5 4 C2.69 4 0.38 4 -2 4 C-1.34 2.68 -0.68 1.36 0 0 Z " fill="#F9E0E3" transform="translate(305,37)"/>
<path d="M0 0 C2.73255991 0.06447056 3.77132266 0.11231558 6.0625 1.6875 C7.0625 3.3125 7.0625 3.3125 7.0625 5.3125 C6.505625 5.168125 5.94875 5.02375 5.375 4.875 C2.94865805 4.28480872 0.51343655 3.789071 -1.9375 3.3125 C-1.9375 4.3025 -1.9375 5.2925 -1.9375 6.3125 C2.5175 8.2925 2.5175 8.2925 7.0625 10.3125 C7.25 13.1875 7.25 13.1875 7.0625 16.3125 C3.27489377 18.83757082 0.50858422 18.93309926 -3.9375 18.3125 C-5.9375 16.9375 -5.9375 16.9375 -6.9375 15.3125 C-6.9375 14.6525 -6.9375 13.9925 -6.9375 13.3125 C-6.1021875 13.5290625 -6.1021875 13.5290625 -5.25 13.75 C-0.64413689 14.90733624 -0.64413689 14.90733624 4.0625 15.3125 C3.426103 12.2288615 3.426103 12.2288615 1.25 11.3984375 C0.528125 11.16382813 -0.19375 10.92921875 -0.9375 10.6875 C-4.86798128 9.38201872 -4.86798128 9.38201872 -5.9375 8.3125 C-6.125 5.375 -6.125 5.375 -5.9375 2.3125 C-3.9375 0.3125 -3.9375 0.3125 0 0 Z " fill="#FBEAEC" transform="translate(115.9375,32.6875)"/>
<path d="M0 0 C1.588125 -0.061875 3.17625 -0.12375 4.8125 -0.1875 C6.15248047 -0.23970703 6.15248047 -0.23970703 7.51953125 -0.29296875 C10 0 10 0 11.8125 1.15625 C13.47611355 3.73922894 13.29488288 5.64498508 13.1875 8.6875 C13.16042969 9.68136719 13.13335937 10.67523438 13.10546875 11.69921875 C13.07066406 12.45847656 13.03585938 13.21773437 13 14 C11.68 14 10.36 14 9 14 C9 10.37 9 6.74 9 3 C7.68 3.33 6.36 3.66 5 4 C4.67 7.3 4.34 10.6 4 14 C2.68 14 1.36 14 0 14 C0 9.38 0 4.76 0 0 Z " fill="#F2BAC1" transform="translate(179,37)"/>
<path d="M0 0 C4.51998557 1.63133282 7.90372163 3.98748087 11.71875 6.85546875 C13.93551741 8.19872884 13.93551741 8.19872884 16.41796875 7.8984375 C19.5584581 6.80568024 22.04213587 5.27328346 24.8125 3.4375 C25.78832031 2.79683594 26.76414062 2.15617187 27.76953125 1.49609375 C28.50558594 1.00238281 29.24164063 0.50867188 30 0 C30.33 1.32 30.66 2.64 31 4 C28.80682759 5.56826849 26.59989559 7.10293863 24.375 8.625 C23.75753906 9.07101563 23.14007813 9.51703125 22.50390625 9.9765625 C17.81448982 13.1357483 17.81448982 13.1357483 13.90625 12.484375 C10.90461412 10.9512814 7.98981593 9.4028939 5.125 7.625 C4.15820312 7.03976563 3.19140625 6.45453125 2.1953125 5.8515625 C1.47085937 5.24054687 0.74640625 4.62953125 0 4 C0 2.68 0 1.36 0 0 Z " fill="#D3142B" transform="translate(27,31)"/>
<path d="M0 0 C3 0.4375 3 0.4375 4.875 1.625 C6.34781139 3.99786279 6.22223194 5.69663944 6 8.4375 C3.03 8.4375 0.06 8.4375 -3 8.4375 C-2.01 9.9225 -2.01 9.9225 -1 11.4375 C2.58357241 11.68765873 2.58357241 11.68765873 6 11.4375 C5.01 12.9225 5.01 12.9225 4 14.4375 C0.60528797 14.80783222 -1.88907484 15.04671702 -4.9375 13.375 C-6.61903731 10.30866726 -6.36051184 7.86236249 -6 4.4375 C-4.4369108 1.05080673 -3.7186535 0.54230363 0 0 Z " fill="#FCEFF0" transform="translate(270,36.5625)"/>
<path d="M0 0 C0.99 0 1.98 0 3 0 C3 1.98 3 3.96 3 6 C6.465 5.505 6.465 5.505 10 5 C12.28062828 8.42094242 12.21925007 9.68187222 12.125 13.6875 C12.10695312 14.68136719 12.08890625 15.67523438 12.0703125 16.69921875 C12.03550781 17.83810547 12.03550781 17.83810547 12 19 C11.01 19 10.02 19 9 19 C8.67 15.7 8.34 12.4 8 9 C6.68 9 5.36 9 4 9 C3.67 12.3 3.34 15.6 3 19 C2.01 19 1.02 19 0 19 C0 12.73 0 6.46 0 0 Z " fill="#F8DDE1" transform="translate(242,32)"/>
<path d="M0 0 C2 2 2 2 2.1953125 4.8203125 C2.16050781 6.45613281 2.16050781 6.45613281 2.125 8.125 C2.10695312 9.22070312 2.08890625 10.31640625 2.0703125 11.4453125 C2.04710937 12.28835937 2.02390625 13.13140625 2 14 C1.01 14 0.02 14 -1 14 C-1.33 10.7 -1.66 7.4 -2 4 C-3.32 4 -4.64 4 -6 4 C-6.33 7.3 -6.66 10.6 -7 14 C-7.99 14 -8.98 14 -10 14 C-10 9.71 -10 5.42 -10 1 C-3.55769231 -0.28846154 -3.55769231 -0.28846154 0 0 Z " fill="#F9E3E6" transform="translate(160,37)"/>
<path d="M0 0 C0.99 0 1.98 0 3 0 C3.0809313 2.60478883 3.14045434 5.20706653 3.1875 7.8125 C3.22520508 8.91948242 3.22520508 8.91948242 3.26367188 10.04882812 C3.33713463 15.46058459 3.33713463 15.46058459 1.75 18 C-1.42610908 19.81491948 -4.41512388 19.17630538 -8 19 C-8.33 18.01 -8.66 17.02 -9 16 C-6.03 16 -3.06 16 0 16 C-0.08378906 15.09636719 -0.16757813 14.19273438 -0.25390625 13.26171875 C-0.35574219 12.08222656 -0.45757812 10.90273438 -0.5625 9.6875 C-0.71912109 7.92986328 -0.71912109 7.92986328 -0.87890625 6.13671875 C-1 3 -1 3 0 0 Z " fill="#FCF0F2" transform="translate(143,37)"/>
<path d="M0 0 C0.99 0 1.98 0 3 0 C3 0.99 3 1.98 3 3 C3.99 3 4.98 3 6 3 C6 3.99 6 4.98 6 6 C5.01 6 4.02 6 3 6 C3.12375 7.299375 3.2475 8.59875 3.375 9.9375 C3.44460937 10.66839844 3.51421875 11.39929688 3.5859375 12.15234375 C3.72257813 12.76207031 3.85921875 13.37179688 4 14 C4.66 14.33 5.32 14.66 6 15 C6 15.66 6 16.32 6 17 C4.33388095 17.042721 2.66617115 17.04063832 1 17 C0 16 0 16 -0.09765625 13.71484375 C-0.08025391 12.34005859 -0.08025391 12.34005859 -0.0625 10.9375 C-0.05347656 10.01839844 -0.04445312 9.09929688 -0.03515625 8.15234375 C-0.02355469 7.44207031 -0.01195312 6.73179688 0 6 C-0.66 6 -1.32 6 -2 6 C-2 5.34 -2 4.68 -2 4 C-1.34 4 -0.68 4 0 4 C0 2.68 0 1.36 0 0 Z " fill="#F9E0E4" transform="translate(232,34)"/>
<path d="M0 0 C5.4679803 -0.36453202 5.4679803 -0.36453202 7.6875 1.15625 C9.51962482 3.72994915 9.29770208 5.56510786 9.1875 8.6875 C9.16042969 9.68136719 9.13335937 10.67523438 9.10546875 11.69921875 C9.07066406 12.45847656 9.03585937 13.21773437 9 14 C8.01 14 7.02 14 6 14 C4.95994298 10.61981469 4.91995518 7.5219721 5 4 C2.69 4 0.38 4 -2 4 C-1.34 2.68 -0.68 1.36 0 0 Z " fill="#FDF5F6" transform="translate(305,37)"/>
<path d="M0 0 C0.99 0 1.98 0 3 0 C3 6.27 3 12.54 3 19 C2.01 19 1.02 19 0 19 C0 12.73 0 6.46 0 0 Z " fill="#FBEAEC" transform="translate(325,32)"/>
<path d="M0 0 C2.33944736 0.28730055 4.6739143 0.61936779 7 1 C7 5.29 7 9.58 7 14 C6.01 14 5.02 14 4 14 C4 10.37 4 6.74 4 3 C2.35 3.33 0.7 3.66 -1 4 C-1 1 -1 1 0 0 Z " fill="#F7D8DC" transform="translate(292,37)"/>
<path d="M0 0 C0.66 0 1.32 0 2 0 C2.96205088 6.37358711 3.10655578 12.55929529 3 19 C2.01 19 1.02 19 0 19 C0 12.73 0 6.46 0 0 Z " fill="#FCEFF0" transform="translate(242,32)"/>
<path d="M0 0 C1.67542976 0.28604898 3.34385343 0.61781233 5 1 C5.625 3.375 5.625 3.375 6 6 C5.34 6.66 4.68 7.32 4 8 C1.375 7.625 1.375 7.625 -1 7 C-1.04254356 5.00045254 -1.04080783 2.99958364 -1 1 C-0.67 0.67 -0.34 0.34 0 0 Z " fill="#D3162D" transform="translate(137,40)"/>
<path d="M0 0 C3.0625 0.375 3.0625 0.375 4.9375 2.375 C5.494375 3.365 5.494375 3.365 6.0625 4.375 C5.4025 4.375 4.7425 4.375 4.0625 4.375 C4.0625 5.035 4.0625 5.695 4.0625 6.375 C1.7525 6.375 -0.5575 6.375 -2.9375 6.375 C-3.5975 5.055 -4.2575 3.735 -4.9375 2.375 C-2.9375 0.375 -2.9375 0.375 0 0 Z " fill="#F6D2D7" transform="translate(269.9375,36.625)"/>
<path d="M0 0 C0.99 0 1.98 0 3 0 C4.35439668 2.70879335 4.06501451 5.00933268 4 8 C4.99 8 5.98 8 7 8 C7 9.65 7 11.3 7 13 C5.68 13 4.36 13 3 13 C2.49487756 11.39743892 1.99608373 9.79288208 1.5 8.1875 C1.2215625 7.29417969 0.943125 6.40085937 0.65625 5.48046875 C0 3 0 3 0 0 Z " fill="#FAE4E6" transform="translate(202,38)"/>
<path d="M0 0 C0.99 0 1.98 0 3 0 C3 4.62 3 9.24 3 14 C2.01 14 1.02 14 0 14 C0 9.38 0 4.76 0 0 Z " fill="#FDF7F8" transform="translate(318,37)"/>
<path d="M0 0 C0.99 0 1.98 0 3 0 C3 4.62 3 9.24 3 14 C2.01 14 1.02 14 0 14 C0 9.38 0 4.76 0 0 Z " fill="#F9E2E5" transform="translate(224,37)"/>
<path d="M0 0 C0.99 0 1.98 0 3 0 C3 4.62 3 9.24 3 14 C2.01 14 1.02 14 0 14 C0 9.38 0 4.76 0 0 Z " fill="#FCF1F2" transform="translate(173,37)"/>
<path d="M0 0 C0.99 0 1.98 0 3 0 C3 4.62 3 9.24 3 14 C2.01 14 1.02 14 0 14 C0 9.38 0 4.76 0 0 Z " fill="#FAE6E8" transform="translate(126,37)"/>
<path d="M0 0 C0.99 0 1.98 0 3 0 C3 4.29 3 8.58 3 13 C2.01 13 1.02 13 0 13 C0 8.71 0 4.42 0 0 Z " fill="#FEFDFD" transform="translate(150,38)"/>
<path d="M0 0 C0.66 0 1.32 0 2 0 C3.32229189 2.64458379 3.09677194 4.67761301 3.0625 7.625 C3.05347656 8.62789062 3.04445313 9.63078125 3.03515625 10.6640625 C3.02355469 11.43492188 3.01195312 12.20578125 3 13 C2.01 13 1.02 13 0 13 C0 8.71 0 4.42 0 0 Z " fill="#FEF9FA" transform="translate(280,38)"/>
<path d="M0 0 C0.66 0 1.32 0 2 0 C3.32229189 2.64458379 3.09677194 4.67761301 3.0625 7.625 C3.05347656 8.62789062 3.04445312 9.63078125 3.03515625 10.6640625 C3.02355469 11.43492188 3.01195312 12.20578125 3 13 C2.01 13 1.02 13 0 13 C0 8.71 0 4.42 0 0 Z " fill="#FAE7E9" transform="translate(180,38)"/>
<path d="M0 0 C0.33 0 0.66 0 1 0 C1.125 4.75 1.125 4.75 0 7 C-2.32156597 7.40729228 -4.6568787 7.74438677 -7 8 C-7.66 6.68 -8.32 5.36 -9 4 C-6.03 4 -3.06 4 0 4 C0 2.68 0 1.36 0 0 Z " fill="#D93347" transform="translate(276,41)"/>
<path d="M0 0 C3.37503669 1.1858237 5.64722731 2.27573689 8 5 C7.01 5.66 6.02 6.32 5 7 C2.5 5.75 2.5 5.75 0 4 C0 2.68 0 1.36 0 0 Z " fill="#D62238" transform="translate(27,31)"/>
<path d="M0 0 C1.2684375 0.12375 1.2684375 0.12375 2.5625 0.25 C3.2225 1.24 3.8825 2.23 4.5625 3.25 C1.86139598 4.60055201 -0.44539006 4.25 -3.4375 4.25 C-4.4275 4.745 -4.4275 4.745 -5.4375 5.25 C-3.04846606 0.31266319 -3.04846606 0.31266319 0 0 Z " fill="#F6D2D6" transform="translate(138.4375,36.75)"/>
<path d="M0 0 C0.33 1.32 0.66 2.64 1 4 C-2.43515002 4.62457273 -5.49064814 5 -9 5 C-9 4.34 -9 3.68 -9 3 C-6.03 2.01 -3.06 1.02 0 0 Z " fill="#D82D42" transform="translate(142,49)"/>
<path d="M0 0 C1.65 0 3.3 0 5 0 C4.34 1.32 3.68 2.64 3 4 C1.68 3.67 0.36 3.34 -1 3 C-0.67 2.01 -0.34 1.02 0 0 Z " fill="#D6263B" transform="translate(306,45)"/>
<path d="M0 0 C0.99 0 1.98 0 3 0 C2.625 2.4375 2.625 2.4375 2 5 C1.01 5.495 1.01 5.495 0 6 C-0.66 6.99 -1.32 7.98 -2 9 C-1.125 2.25 -1.125 2.25 0 0 Z " fill="#F4C7CC" transform="translate(218,37)"/>
<path d="M0 0 C1.98 0 3.96 0 6 0 C5.67 0.99 5.34 1.98 5 3 C2.69 3.33 0.38 3.66 -2 4 C-1.34 2.68 -0.68 1.36 0 0 Z " fill="#F5CBD0" transform="translate(305,37)"/>
<path d="M0 0 C1.65 0 3.3 0 5 0 C5 0.99 5 1.98 5 3 C3.02 3 1.04 3 -1 3 C-0.67 2.01 -0.34 1.02 0 0 Z " fill="#D7283D" transform="translate(268,40)"/>
</svg>
