<?xml version="1.0" encoding="UTF-8"?>
<svg version="1.1" xmlns="http://www.w3.org/2000/svg" width="512" height="512">
<path d="M0 0 C1.22503738 -0.01004562 2.45007477 -0.02009125 3.7122345 -0.03044128 C5.06710754 -0.03647103 6.42198123 -0.04235605 7.77685547 -0.04811096 C9.20623501 -0.05765389 10.63561227 -0.06754525 12.06498718 -0.07775879 C16.75797803 -0.10910448 21.45098636 -0.12941173 26.14404297 -0.14796448 C27.34389643 -0.15291046 27.34389643 -0.15291046 28.56798935 -0.15795636 C36.12033745 -0.18874449 43.67268969 -0.21543673 51.2250824 -0.23237514 C60.86359939 -0.25424992 70.50155712 -0.29615639 80.13985062 -0.36581272 C86.92816973 -0.41319335 93.71633876 -0.43732765 100.50481796 -0.44457203 C104.55306349 -0.44950863 108.60067825 -0.46439669 112.64874268 -0.50431633 C116.46407812 -0.54144448 120.27842944 -0.54950823 124.09391212 -0.5363102 C125.48538991 -0.53636372 126.87691423 -0.54648542 128.26822472 -0.56806183 C139.43756611 -0.73185121 148.49146719 1.77588731 156.95654297 9.34812927 C164.692788 18.00746255 165.75816765 27.62140328 165.68188477 38.80491638 C165.69031668 40.24519162 165.70085004 41.68545582 165.71330261 43.1257019 C165.74016985 47.00609655 165.73569849 50.88584348 165.72360206 54.76628947 C165.71642902 58.01904692 165.7249982 61.27168771 165.73350745 64.52443606 C165.75340319 72.20430111 165.74795492 79.88385447 165.72583008 87.56370544 C165.70347233 95.45800805 165.72106999 103.35149259 165.75887936 111.24571794 C165.79021612 118.05122943 165.79799841 124.85648906 165.78692561 131.66206366 C165.78047135 135.71458139 165.78228204 139.76662767 165.80624962 143.81908989 C165.82765699 147.6321818 165.81932587 151.44412919 165.78915596 155.25715065 C165.78288162 156.64697355 165.78655952 158.03688734 165.80156708 159.42664337 C165.90601277 169.96195533 163.9766349 178.58701863 156.81888866 186.63416958 C149.88986685 193.48414051 142.40388658 196.36144679 132.69873047 196.55125427 C130.09687844 196.52497294 127.4951626 196.47772164 124.89404297 196.41062927 C123.54250721 196.3905152 122.19094223 196.37227317 120.83935547 196.35594177 C117.56515606 196.3091675 114.29249049 196.24363067 111.01904297 196.16062927 C110.74213623 196.89708679 110.46522949 197.63354431 110.17993164 198.39231873 C109.11011097 200.94346418 107.9227341 203.12250569 106.44482422 205.45359802 C105.94523193 206.24451843 105.44563965 207.03543884 104.9309082 207.85032654 C104.40311768 208.67460144 103.87532715 209.49887634 103.33154297 210.34812927 C102.79279541 211.19367371 102.25404785 212.03921814 101.69897461 212.91038513 C91.13393375 229.41736875 91.13393375 229.41736875 87.01904297 232.16062927 C84.96826172 232.53172302 84.96826172 232.53172302 82.70654297 232.59812927 C81.96791016 232.63809021 81.22927734 232.67805115 80.46826172 232.71922302 C72.43914487 230.88802093 68.42935285 222.13380582 64.39404297 215.72312927 C63.08941712 213.68272527 61.78473137 211.64235956 60.47998047 209.60203552 C59.87895508 208.65215759 59.27792969 207.70227966 58.65869141 206.72361755 C57.32678996 204.64167869 55.96161318 202.59663965 54.55810547 200.56297302 C53.01904297 198.16062927 53.01904297 198.16062927 53.01904297 196.16062927 C38.82904297 196.16062927 24.63904297 196.16062927 10.01904297 196.16062927 C10.01904297 211.67062927 10.01904297 227.18062927 10.01904297 243.16062927 C13.31904297 242.17062927 16.61904297 241.18062927 20.01904297 240.16062927 C22.9675293 239.75657654 22.9675293 239.75657654 25.35107422 239.72703552 C26.69238403 239.70987488 26.69238403 239.70987488 28.06079102 239.69236755 C28.97513916 239.70251892 29.8894873 239.71267029 30.83154297 239.72312927 C32.27557495 239.73448914 32.27557495 239.73448914 33.7487793 239.74607849 C41.37457497 239.92179693 48.00242212 241.04321695 55.01904297 244.16062927 C55.94458984 244.56152771 56.87013672 244.96242615 57.82373047 245.37547302 C72.76583005 252.67720724 83.51186468 265.48311515 89.01904297 281.00828552 C94.20910295 297.36913867 93.19168401 314.68821808 85.26904297 330.03562927 C82.04507395 335.48331025 78.1251167 340.35631457 74.01904297 345.16062927 C74.96203247 345.17464783 74.96203247 345.17464783 75.92407227 345.18894958 C93.88413773 345.52406834 109.91782401 346.55742391 123.76904297 359.41062927 C136.91900949 373.58165201 137.69962357 389.88547334 137.59545898 408.22898865 C137.58145989 411.6811167 137.61591586 415.13059858 137.65380859 418.58250427 C137.65475873 420.78562993 137.65290663 422.98875898 137.64794922 425.19187927 C137.66120743 426.2189801 137.67446564 427.24608093 137.68812561 428.30430603 C137.6251253 433.12341248 137.58751225 435.41056484 134.60473633 439.34617615 C132.01904297 441.16062927 132.01904297 441.16062927 130.01904297 441.16062927 C130.01904297 447.43062927 130.01904297 453.70062927 130.01904297 460.16062927 C131.66904297 460.82062927 133.31904297 461.48062927 135.01904297 462.16062927 C138.29065611 467.06804898 137.39091756 472.87339766 137.38964844 478.61936951 C137.39399417 480.82337828 137.43023794 483.02533785 137.46826172 485.22898865 C137.60052861 500.48022908 137.60052861 500.48022908 131.65524328 506.55387348 C124.54644529 511.95963264 115.6337477 510.84969153 107.15444946 510.78881836 C105.31087917 510.79386527 103.46731377 510.80109522 101.62375963 510.8103165 C96.56447191 510.82924535 91.50566758 510.81700125 86.44639206 510.79959357 C80.98750507 510.78622589 75.52868909 510.80165462 70.06980896 510.81341553 C59.37795981 510.83180162 48.68629334 510.82327293 37.99444987 510.8053273 C29.30430452 510.79130438 20.61420877 510.78740785 11.92405319 510.79076958 C10.0691302 510.79148574 10.0691302 510.79148574 8.17673402 510.79221637 C5.66458459 510.7932427 3.15243518 510.79429806 0.64028578 510.79538213 C-22.24923579 510.80421028 -45.1386754 510.78555135 -68.02817229 510.7548519 C-88.91448674 510.72699849 -109.80068478 510.72202475 -130.68701172 510.73704529 C-154.16059221 510.75382504 -177.6341207 510.75783921 -201.1077038 510.74033493 C-203.61124777 510.73849054 -206.11479174 510.73665582 -208.61833572 510.73483086 C-209.85012599 510.73391877 -211.08191626 510.73300668 -212.3510335 510.73206695 C-221.02923304 510.72646217 -229.70740311 510.72976827 -238.38560104 510.73637581 C-248.96376596 510.74411017 -259.54180579 510.73735278 -270.11994551 510.71220077 C-275.5166125 510.69970745 -280.91308478 510.69355727 -286.30975914 510.70474243 C-291.25197108 510.71479217 -296.19379494 510.70630924 -301.1359597 510.68316125 C-302.92188284 510.67800722 -304.70784082 510.6795543 -306.49374871 510.6885559 C-319.42085869 510.74828209 -329.26380386 509.60297785 -339.00048828 500.38328552 C-344.71968817 493.9646963 -347.10111892 487.6007912 -347.11517811 479.10255909 C-347.11963595 477.85308957 -347.1240938 476.60362005 -347.12868673 475.31628782 C-347.12859743 473.92722816 -347.12840758 472.53816851 -347.12812805 471.14910889 C-347.13142761 469.67539138 -347.13515338 468.20167478 -347.13926953 466.72795933 C-347.14928703 462.67260746 -347.15300592 458.61727038 -347.15565884 454.56190789 C-347.15956259 450.19025234 -347.16914083 445.81860851 -347.1778717 441.44696045 C-347.19763331 430.88713124 -347.20770159 420.32730107 -347.21659949 409.76745799 C-347.22098258 404.79510754 -347.22634931 399.82275816 -347.23158836 394.85040855 C-347.24859975 378.32234194 -347.26309435 361.79427599 -347.2703371 345.26620197 C-347.27224701 340.97718619 -347.27416734 336.68817042 -347.27612305 332.39915466 C-347.27660679 331.33313737 -347.27709053 330.26712009 -347.27758893 329.16879924 C-347.28589084 311.89654179 -347.3112309 294.62435356 -347.34370372 277.35212634 C-347.37676783 259.62093027 -347.39478525 241.88976939 -347.39798135 224.15854234 C-347.40014696 214.20234426 -347.40890323 204.24624716 -347.43444252 194.29007912 C-347.45614057 185.81178699 -347.46420431 177.33362036 -347.45447574 168.85530362 C-347.44992855 164.53011861 -347.45184158 160.20519258 -347.47123718 155.88004303 C-347.4888517 151.91782837 -347.48788525 147.95606194 -347.47233989 143.99384262 C-347.46996121 142.56311967 -347.47430094 141.13236582 -347.48616854 139.70169012 C-347.58651627 126.80185987 -344.90747167 119.33303519 -335.98095703 110.16062927 C-335.52089893 109.68486954 -335.06084084 109.2091098 -334.58684158 108.71893311 C-330.50421844 104.50349395 -326.37345923 100.33664985 -322.23486328 96.17625427 C-321.57828169 95.51559715 -320.9217001 94.85494003 -320.24522209 94.174263 C-316.77653493 90.68484038 -313.30467026 87.19861433 -309.83032227 83.71482849 C-306.25668912 80.13009078 -302.69489878 76.53381761 -299.13556004 72.93489456 C-296.38061458 70.15376284 -293.61678038 67.38159349 -290.85050774 64.61173248 C-289.53351143 63.28988421 -288.2198776 61.96467645 -286.90979195 60.6359787 C-285.07511391 58.77684222 -283.22808609 56.93085795 -281.37768555 55.08738708 C-280.84705002 54.5439415 -280.31641449 54.00049591 -279.7696991 53.44058228 C-269.62736468 43.4352259 -257.31300274 42.81329984 -243.68383789 42.89988708 C-241.65432508 42.9107046 -239.62567914 42.8998837 -237.59619141 42.88719177 C-235.65776367 42.89105896 -235.65776367 42.89105896 -233.68017578 42.89500427 C-232.51317139 42.89726013 -231.34616699 42.89951599 -230.14379883 42.90184021 C-226.96019496 43.16232806 -224.79451568 43.66745374 -221.98095703 45.16062927 C-219.98095703 48.16062927 -219.98095703 48.16062927 -219.98095703 51.16062927 C-213.71095703 51.16062927 -207.44095703 51.16062927 -200.98095703 51.16062927 C-200.65095703 49.84062927 -200.32095703 48.52062927 -199.98095703 47.16062927 C-198.01082094 44.74273497 -197.02588012 44.17560364 -193.98095703 43.16062927 C-191.79957395 43.06854173 -189.61540845 43.03869657 -187.43208313 43.04037476 C-186.76390082 43.03952033 -186.09571851 43.03866591 -185.40728825 43.03778559 C-183.16399514 43.03613593 -180.92077648 43.04164376 -178.67749023 43.04710388 C-177.07115684 43.04738589 -175.46482331 43.04722775 -173.85848999 43.04666138 C-169.49309313 43.04637394 -165.12772364 43.05226209 -160.76233315 43.05923533 C-156.20192366 43.06547771 -151.64151357 43.06607337 -147.08110046 43.06726074 C-138.44323988 43.07037144 -129.80539193 43.07858133 -121.16753691 43.08861023 C-111.33452435 43.09977945 -101.50151119 43.10528386 -91.66849387 43.11030567 C-71.43930787 43.12076415 -51.21013325 43.13835856 -30.98095703 43.16062927 C-30.99835938 41.92578796 -31.01576172 40.69094666 -31.03369141 39.41868591 C-31.04776633 37.7818892 -31.06141577 36.14508879 -31.07470703 34.50828552 C-31.09355957 33.29042358 -31.09355957 33.29042358 -31.11279297 32.04795837 C-31.17390094 22.00842747 -28.11237911 15.43727128 -21.20361328 8.14109802 C-14.81718215 2.45055218 -8.45651833 0.05457191 0 0 Z " fill="#010101" transform="translate(346.98095703125,0.8393707275390625)"/>
<path d="M0 0 C6.93 0 13.86 0 21 0 C21.99 2.475 21.99 2.475 23 5 C25.80709563 7.80709563 27.56914818 7.26055758 31.50454712 7.2784729 C32.18004211 7.2842653 32.8555371 7.2900577 33.55150163 7.29602563 C35.82556051 7.31309429 38.09941729 7.31590796 40.37353516 7.31884766 C41.99943036 7.32814112 43.62532076 7.33830891 45.25120544 7.34928894 C49.67448946 7.37666872 54.0977415 7.39176188 58.52108812 7.40471697 C63.14026606 7.42031273 67.75937834 7.4471142 72.37850952 7.4727478 C81.12970381 7.51959873 89.88091037 7.55631221 98.63216627 7.58942068 C108.59336954 7.62759755 118.55450697 7.67701926 128.5156548 7.72740483 C149.01038796 7.83081856 169.50516277 7.92004817 190 8 C190.00146656 8.54461978 190.00293312 9.08923956 190.00444412 9.65036297 C190.04164123 22.95732678 190.10107335 36.26403541 190.18390274 49.57079601 C190.22329995 56.00611025 190.25552658 62.44128922 190.27099609 68.87670898 C190.28621357 75.09496512 190.32074983 81.31284921 190.36830902 87.5309391 C190.38307033 89.89537625 190.39103798 92.25986652 190.39188385 94.62434959 C189.93878952 117.12958022 189.93878952 117.12958022 200.70703125 136.125 C205.28726089 139.87033258 210.42365444 142.14121815 216 144 C216.2327647 151.27571797 216.4099036 158.55062093 216.51812172 165.82932186 C216.57009305 169.21023418 216.64043251 172.58858172 216.75439453 175.96801758 C216.87628426 179.86346992 216.93253585 183.75532676 216.9765625 187.65234375 C217.02817535 188.8526976 217.07978821 190.05305145 217.13296509 191.28977966 C217.13633088 196.37206522 217.07746254 199.66994458 213.80458069 203.71009827 C211.2922071 205.96160542 208.69045524 207.96912002 206 210 C195.95016306 221.04555117 191.21921692 236.13734706 191.54833984 250.84814453 C192.33378667 266.86314723 198.01855292 280.68509673 209.27734375 292.20703125 C211 294 211 294 211 295 C210.28980713 295.01981934 209.57961426 295.03963867 208.84790039 295.06005859 C205.5857696 295.15615196 202.32420672 295.2654855 199.0625 295.375 C197.38704102 295.42140625 197.38704102 295.42140625 195.67773438 295.46875 C194.57880859 295.50742187 193.47988281 295.54609375 192.34765625 295.5859375 C190.84730835 295.63306885 190.84730835 295.63306885 189.31665039 295.68115234 C185.11203716 296.0853647 181.09977582 297.00665577 177 298 C176.9906543 296.72882324 176.98130859 295.45764648 176.97167969 294.14794922 C176.9317135 289.41761638 176.86593586 284.68792938 176.79248047 279.95800781 C176.76430934 277.91349605 176.74307565 275.86887616 176.72900391 273.82421875 C176.70752113 270.87964678 176.6608431 267.93636959 176.609375 264.9921875 C176.60753204 263.6277803 176.60753204 263.6277803 176.60565186 262.23580933 C176.47900651 256.70953183 175.80834205 253.30519198 172 249 C169.21760898 247.31524482 167.15259045 246.74927175 163.91695595 246.74273109 C163.10802757 246.7362822 162.29909919 246.72983331 161.46565783 246.723189 C160.58259286 246.7262862 159.69952789 246.7293834 158.78970337 246.73257446 C157.84721847 246.72804335 156.90473357 246.72351224 155.93368852 246.71884382 C152.76775458 246.70615849 149.60199174 246.70782286 146.43603516 246.70947266 C144.16934487 246.70349001 141.90265662 246.69668508 139.63597107 246.68911743 C133.47276762 246.67142388 127.30961968 246.66676065 121.1463933 246.66548586 C116.00460801 246.66358854 110.86283569 246.65623296 105.72105539 246.64914167 C94.28511111 246.63377862 82.84920305 246.6278049 71.41325112 246.62915237 C70.38401408 246.62927224 70.38401408 246.62927224 69.33398438 246.62939453 C68.64698823 246.62947629 67.95999209 246.62955805 67.25217788 246.62964229 C56.11783562 246.63045524 44.98362863 246.61131548 33.84932549 246.5831178 C22.41568732 246.5543906 10.98214252 246.54094369 -0.45153773 246.54230535 C-6.87029422 246.54281581 -13.28889765 246.53708623 -19.70762253 246.51594925 C-25.74377615 246.49661528 -31.77962993 246.4964094 -37.81579399 246.51098251 C-40.03216043 246.51307769 -42.2485454 246.50832778 -44.46487999 246.4962616 C-47.48885332 246.48086377 -50.51178574 246.49008156 -53.53573608 246.50552368 C-54.41433961 246.49523656 -55.29294314 246.48494943 -56.19817102 246.47435057 C-61.60425377 246.53542447 -64.73297582 247.36775058 -69 251 C-71.21612405 254.32418608 -71.25086461 255.34691967 -71.25396729 259.21772766 C-71.26242676 260.83904602 -71.26242676 260.83904602 -71.27105713 262.49311829 C-71.26700867 263.67915146 -71.26296021 264.86518463 -71.25878906 266.0871582 C-71.2622937 267.33616913 -71.26579834 268.58518005 -71.26940918 269.87203979 C-71.27671242 273.2999264 -71.27498709 276.72757213 -71.26865101 280.15544534 C-71.26358918 283.74411103 -71.26828328 287.3327664 -71.27142334 290.9214325 C-71.27506386 296.95146533 -71.27026312 302.98144921 -71.26074219 309.01147461 C-71.24987224 315.97616235 -71.2533722 322.94073287 -71.264395 329.90541774 C-71.27348312 335.88769828 -71.27474525 341.8699436 -71.26951766 347.85222882 C-71.26640443 351.42385254 -71.2659705 354.99542125 -71.27259064 358.5670414 C-71.27946213 362.55295964 -71.26992638 366.53874767 -71.25878906 370.5246582 C-71.26283752 371.70461868 -71.26688599 372.88457916 -71.27105713 374.10029602 C-71.40255557 381.81601783 -71.40255557 381.81601783 -69 389 C-64.6521258 391.40054747 -60.26370776 391.29013479 -55.42631531 391.2784729 C-54.56449719 391.2842653 -53.70267907 391.2900577 -52.81474525 391.29602563 C-49.9281353 391.31302536 -47.04168525 391.31590213 -44.1550293 391.31884766 C-42.08534859 391.32814584 -40.01567164 391.33831435 -37.94599915 391.34928894 C-32.3266477 391.37661528 -26.70732136 391.3917462 -21.0879209 391.40471697 C-15.21555177 391.42033594 -9.34323399 391.4471301 -3.47090149 391.4727478 C7.64952643 391.51955741 18.76996399 391.55629099 29.89044017 391.58942068 C42.55056464 391.62762662 55.21063756 391.6770408 67.8707186 391.72740483 C93.9137791 391.83075718 119.95686123 391.91852722 146 392 C146 409.16 146 426.32 146 444 C115.05199803 444.11025718 84.10418579 444.20256629 53.15604869 444.25532665 C49.50116753 444.26158007 45.84628679 444.2680517 42.19140625 444.2746582 C41.09998897 444.27662553 41.09998897 444.27662553 39.98652285 444.2786326 C28.20985128 444.30038075 16.43330192 444.33979896 4.65670282 444.38576398 C-7.42994082 444.43254518 -19.51652052 444.46029889 -31.60325098 444.47044247 C-38.39106756 444.47668352 -45.17862944 444.49167621 -51.96635437 444.52865028 C-58.35540156 444.56259025 -64.74405756 444.5730567 -71.13318634 444.56553841 C-73.47773108 444.56691381 -75.82228891 444.57685771 -78.16675568 444.59602737 C-81.36991021 444.62093319 -84.57159108 444.61491305 -87.77478027 444.60127258 C-88.70086893 444.61583679 -89.62695758 444.630401 -90.58110952 444.64540654 C-96.87032844 444.57309754 -101.16115528 443.09374672 -106 439 C-109.88495357 434.01929029 -111.12529039 430.43256609 -111.12304783 424.19601154 C-111.12503888 422.97781674 -111.12702993 421.75962193 -111.12908131 420.50451213 C-111.12622809 419.14561145 -111.12328249 417.78671097 -111.12025452 416.42781067 C-111.12069035 414.98979078 -111.12156548 413.55177097 -111.12284368 412.11375159 C-111.12508623 408.15277186 -111.12107061 404.19181902 -111.11606562 400.23084271 C-111.11175789 395.9629619 -111.11320778 391.69508268 -111.1139679 387.42720032 C-111.11449292 380.02967277 -111.11134831 372.63215402 -111.10573006 365.23462868 C-111.09761222 354.53897289 -111.09499954 343.84332137 -111.09374207 333.14766284 C-111.09155199 315.79578648 -111.08489311 298.44391482 -111.07543945 281.09204102 C-111.06626418 264.23364282 -111.05918391 247.37524589 -111.05493164 230.5168457 C-111.05466892 229.47815941 -111.05440619 228.43947312 -111.05413551 227.36931149 C-111.0528305 222.1586666 -111.05156678 216.94802171 -111.05032361 211.73737681 C-111.03995239 168.49158129 -111.02233528 125.24579089 -111 82 C-109.68918457 81.98541748 -108.37836914 81.97083496 -107.02783203 81.95581055 C-102.12603606 81.89747545 -97.22468265 81.82024648 -92.32324219 81.73754883 C-90.2090579 81.70446426 -88.09478877 81.67638204 -85.98046875 81.65356445 C-82.92671841 81.61971392 -79.87373406 81.56738455 -76.8203125 81.51171875 C-75.88760529 81.50532883 -74.95489807 81.4989389 -73.993927 81.49235535 C-62.73602701 81.24480372 -54.32271675 78.23669339 -46.27734375 70.30078125 C-40.45925414 63.93947934 -37.9645942 56.9187059 -37.79467773 48.30151367 C-37.77473251 47.40095749 -37.75478729 46.50040131 -37.73423767 45.57255554 C-37.71752518 44.6140419 -37.70081268 43.65552826 -37.68359375 42.66796875 C-37.6524221 41.18034782 -37.6524221 41.18034782 -37.62062073 39.66267395 C-37.55539948 36.50435101 -37.49636798 33.34594712 -37.4375 30.1875 C-37.39428869 28.04230944 -37.35067357 25.89712698 -37.30664062 23.75195312 C-37.19974628 18.50138689 -37.09792963 13.25074068 -37 8 C-36.05157227 7.98541748 -35.10314453 7.97083496 -34.12597656 7.95581055 C-30.5995206 7.89467436 -27.07383557 7.8205087 -23.54785156 7.73754883 C-22.0232166 7.7043412 -20.49845994 7.67629622 -18.97363281 7.65356445 C-16.77877046 7.61994042 -14.58501912 7.56762458 -12.390625 7.51171875 C-11.07094727 7.48553467 -9.75126953 7.45935059 -8.39160156 7.43237305 C-4.86479367 6.98276343 -3.40302907 6.57933428 -1 4 C-0.67 2.68 -0.34 1.36 0 0 Z " fill="#F1EEF1" transform="translate(126,52)"/>
<path d="M0 0 C1.75581642 -0.0129007 1.75581642 -0.0129007 3.54710388 -0.02606201 C4.83285309 -0.03032196 6.11860229 -0.03458191 7.4433136 -0.03897095 C8.81007088 -0.04687406 10.17682608 -0.05514314 11.5435791 -0.06375122 C16.03398146 -0.08995064 20.52439303 -0.10527834 25.0148468 -0.11953735 C26.56214211 -0.12489818 28.10943736 -0.1302757 29.65673256 -0.13566971 C36.09488842 -0.15729678 42.5330418 -0.17603199 48.97122478 -0.1872921 C58.18937594 -0.20352162 67.40710495 -0.2366767 76.62509698 -0.29369295 C83.11100378 -0.33243833 89.5967979 -0.35193029 96.08281738 -0.35721266 C99.954255 -0.36086032 103.82524216 -0.37281808 107.69655418 -0.4053154 C111.34189193 -0.43547706 114.98650861 -0.4416797 118.63194466 -0.42993164 C120.59853509 -0.42960708 122.56508155 -0.45401965 124.5315094 -0.47930908 C131.77145181 -0.42847072 136.84092196 0.26523307 142.37812805 5.15390015 C146.51230466 9.60609035 147.49930652 12.79051591 147.5320282 18.77577209 C147.54062866 19.94631638 147.54922913 21.11686066 147.55809021 22.32287598 C147.56448013 24.25149979 147.56448013 24.25149979 147.57099915 26.21908569 C147.57890225 27.58584297 147.58717134 28.95259818 147.59577942 30.3193512 C147.62197884 34.80975355 147.63730654 39.30016512 147.65156555 43.7906189 C147.65692638 45.33791421 147.66230389 46.88520946 147.66769791 48.43250465 C147.68932498 54.87066052 147.70806018 61.30881389 147.7193203 67.74699688 C147.73554982 76.96514803 147.7687049 86.18287704 147.82572114 95.40086907 C147.86446653 101.88677588 147.88395849 108.37257 147.88924086 114.85858947 C147.89288852 118.73002709 147.90484628 122.60101426 147.9373436 126.47232628 C147.96750526 130.11766403 147.9737079 133.7622807 147.96195984 137.40771675 C147.96163527 139.37430718 147.98604785 141.34085365 148.01133728 143.30728149 C147.96065626 150.52481721 147.30064463 155.66036464 142.37812805 161.15390015 C135.54665236 167.70297352 127.06173974 166.80652755 118.19062805 166.71640015 C116.01283495 166.69974629 113.83638439 166.69076663 111.65856934 166.70613098 C109.69118287 166.71958154 107.72366144 166.70428254 105.75630188 166.68734741 C100.93962623 167.35256872 98.69113979 169.4432749 95.7882843 173.22518921 C95.34355774 173.94932007 94.89883118 174.67345093 94.44062805 175.41952515 C93.93789368 176.22776733 93.4351593 177.03600952 92.91719055 177.8687439 C92.15535461 179.12364624 92.15535461 179.12364624 91.37812805 180.40390015 C90.61629211 181.63559937 90.61629211 181.63559937 89.83906555 182.8921814 C88.83409377 184.5181742 87.83270781 186.14638949 86.8351593 187.77694702 C84.70597079 191.25043551 82.54320713 194.70270662 80.37812805 198.15390015 C77.25609619 195.23278899 74.96441026 192.21618582 72.6632843 188.6187439 C71.97685852 187.56235718 71.29043274 186.50597046 70.58320618 185.41757202 C69.15418496 183.19913708 67.7297039 180.97777102 66.30976868 178.75350952 C65.62205383 177.69841187 64.93433899 176.64331421 64.2257843 175.5562439 C63.29778015 174.10979492 63.29778015 174.10979492 62.35102844 172.63412476 C59.56521007 169.13194323 57.0050048 167.36133788 52.51489258 166.78881836 C51.46646683 166.79279633 50.41804108 166.79677429 49.33784485 166.8008728 C48.14277817 166.7972171 46.94771149 166.7935614 45.71643066 166.78979492 C44.43303299 166.79909027 43.14963531 166.80838562 41.8273468 166.81796265 C40.48601527 166.81380552 39.14468865 166.80761805 37.80337524 166.79949951 C32.1251821 166.7686559 26.44722182 166.77334541 20.76899719 166.79354858 C17.28756928 166.80452419 13.80688124 166.79115371 10.3255558 166.7636528 C8.36924579 166.75563438 6.41288475 166.77546243 4.45666504 166.79589844 C-2.92180761 166.73488695 -8.09118473 166.24372672 -13.62187195 161.15390015 C-19.47965083 154.65909518 -19.33586334 147.9158342 -19.2688446 139.52108765 C-19.27563014 138.15358317 -19.28453851 136.78608784 -19.2953949 135.41860962 C-19.31808447 131.72421885 -19.30939551 128.03053043 -19.29349947 124.33612823 C-19.28078634 120.45879814 -19.29259554 116.58152573 -19.3004303 112.70419312 C-19.30951121 106.19448112 -19.29758016 99.68505331 -19.27372742 93.17538452 C-19.24651886 85.66342072 -19.25533414 78.15213558 -19.28285944 70.64018822 C-19.30559424 64.17535303 -19.30872937 57.71072142 -19.2956661 51.24585915 C-19.28789545 47.39134227 -19.28676366 43.53714376 -19.30334854 39.68264771 C-19.31785818 36.05764967 -19.30765531 32.43352132 -19.27887726 28.80861664 C-19.26917889 26.85408198 -19.28391122 24.89947324 -19.29951477 22.94497681 C-19.21315404 15.73299214 -18.47916154 10.67502362 -13.62187195 5.15390015 C-9.16968175 1.01972353 -5.98525619 0.03272168 0 0 Z " fill="#FC636E" transform="translate(349.6218719482422,15.846099853515625)"/>
<path d="M0 0 C1.25385498 0.00424484 2.50770996 0.00848969 3.79956055 0.01286316 C7.10735787 0.02674706 10.41470382 0.05362522 13.72235107 0.0869751 C17.10781273 0.117853 20.49334283 0.13157131 23.87890625 0.14648438 C30.50296018 0.17690716 37.12590635 0.23564486 43.75 0.29296875 C43.75 12.83296875 43.75 25.37296875 43.75 38.29296875 C48.7 38.29296875 53.65 38.29296875 58.75 38.29296875 C58.75 25.75296875 58.75 13.21296875 58.75 0.29296875 C66.52444651 0.20081199 74.29697438 0.1212659 82.0715332 0.07324219 C84.71254929 0.05320879 87.35352149 0.02597424 89.99438477 -0.00878906 C93.80496091 -0.05767025 97.61494721 -0.08008392 101.42578125 -0.09765625 C102.59393875 -0.11830139 103.76209625 -0.13894653 104.96565247 -0.16021729 C115.84623577 -0.16315149 125.83425849 2.46402265 133.75 10.29296875 C140.91148422 19.06578692 143.19011719 27.34678658 143.19140625 38.46875 C143.21121803 40.03921333 143.21121803 40.03921333 143.23143005 41.6414032 C143.27210498 44.96278631 143.2939491 48.28389382 143.3125 51.60546875 C143.33628896 54.94481392 143.36435528 58.2838998 143.40428162 61.62309265 C143.42864046 63.69527627 143.4434975 65.76759792 143.44789124 67.83992004 C143.46317116 69.242342 143.46317116 69.242342 143.47875977 70.6730957 C143.48517235 71.90598076 143.48517235 71.90598076 143.49171448 73.16377258 C143.62407841 75.59208986 143.62407841 75.59208986 145.75 78.29296875 C147.4 78.95296875 149.05 79.61296875 150.75 80.29296875 C150.75 86.56296875 150.75 92.83296875 150.75 99.29296875 C147.78 100.77796875 147.78 100.77796875 144.75 102.29296875 C142.86368457 104.17928418 143.50734708 107.43497568 143.43359375 109.953125 C143.41281265 110.6175914 143.39203156 111.2820578 143.37062073 111.96665955 C143.30506342 114.09615418 143.24621215 116.22577543 143.1875 118.35546875 C143.14432061 119.79623722 143.10070651 121.23699274 143.05664062 122.67773438 C142.94937607 126.21600915 142.84812629 129.75442744 142.75 133.29296875 C139.82245599 134.75674075 136.88422059 134.42667819 133.67599487 134.41322327 C132.57087246 134.4145049 132.57087246 134.4145049 131.44342434 134.41581243 C128.9620958 134.41746625 126.48083409 134.41194746 123.99951172 134.40649414 C122.22584027 134.40621222 120.4521687 134.40637009 118.67849731 134.40693665 C113.85231323 134.40722444 109.02615382 134.40133065 104.19997549 134.39436269 C99.16042804 134.38812611 94.12088006 134.38752511 89.08132935 134.38633728 C79.53324569 134.38322487 69.98517344 134.37501268 60.43709481 134.36498779 C49.56905844 134.35382388 38.70102154 134.3483155 27.83298087 134.34329236 C5.47198092 134.33283 -16.8890089 134.31523228 -39.25 134.29296875 C-39.34364371 120.23663661 -39.41381061 106.18035319 -39.45724869 92.12377262 C-39.4780996 85.59632083 -39.50637234 79.06907901 -39.55175781 72.54174805 C-39.59530354 66.23937867 -39.61915588 59.93721092 -39.62950897 53.63470268 C-39.63688459 51.23340113 -39.65128741 48.83211028 -39.67292023 46.43089485 C-39.70206923 43.06054184 -39.70595106 39.69101596 -39.70410156 36.32055664 C-39.71848267 35.33368362 -39.73286377 34.34681061 -39.74768066 33.33003235 C-39.69410109 24.27272927 -36.54023228 15.95039733 -30.25 9.29296875 C-20.67220447 1.49495515 -12.08150752 -0.15517709 0 0 Z " fill="#FEE076" transform="translate(326.25,361.70703125)"/>
<path d="M0 0 C19.95912807 0 19.95912807 0 25 5 C29.13417661 9.4521902 30.12117847 12.63661576 30.15390015 18.62187195 C30.16250061 19.79241623 30.17110107 20.96296051 30.17996216 22.16897583 C30.18635208 24.09759964 30.18635208 24.09759964 30.19287109 26.06518555 C30.2007742 27.43194283 30.20904328 28.79869803 30.21765137 30.16545105 C30.24385079 34.6558534 30.25917848 39.14626498 30.2734375 43.63671875 C30.27879833 45.18401406 30.28417584 46.73130931 30.28956985 48.27860451 C30.31119693 54.71676037 30.32993213 61.15491375 30.34119225 67.59309673 C30.35742176 76.81124789 30.39057685 86.0289769 30.44759309 95.24696892 C30.48633848 101.73287573 30.50583044 108.21866985 30.51111281 114.70468932 C30.51476047 118.57612694 30.52671823 122.44711411 30.55921555 126.31842613 C30.58937721 129.96376388 30.59557984 133.60838056 30.58383179 137.2538166 C30.58350722 139.22040704 30.6079198 141.1869535 30.63320923 143.15338135 C30.58252821 150.37091707 29.92251658 155.5064645 25 161 C18.16852431 167.54907337 9.68361169 166.6526274 0.8125 166.5625 C-1.3652931 166.54584615 -3.54174366 166.53686649 -5.71955872 166.55223083 C-7.68694519 166.56568139 -9.65446661 166.55038239 -11.62182617 166.53344727 C-16.43850182 167.19866857 -18.68698826 169.28937475 -21.58984375 173.07128906 C-22.03457031 173.79541992 -22.47929687 174.51955078 -22.9375 175.265625 C-23.44023437 176.07386719 -23.94296875 176.88210937 -24.4609375 177.71484375 C-25.22277344 178.96974609 -25.22277344 178.96974609 -26 180.25 C-26.76183594 181.48169922 -26.76183594 181.48169922 -27.5390625 182.73828125 C-28.54403428 184.36427406 -29.54542024 185.99248935 -30.54296875 187.62304688 C-32.67215726 191.09653536 -34.83492093 194.54880648 -37 198 C-40.12203187 195.07888884 -42.41371779 192.06228568 -44.71484375 188.46484375 C-45.40126953 187.40845703 -46.08769531 186.35207031 -46.79492188 185.26367188 C-48.22394309 183.04523693 -49.64842415 180.82387087 -51.06835938 178.59960938 C-51.75607422 177.54451172 -52.44378906 176.48941406 -53.15234375 175.40234375 C-54.0803479 173.95589478 -54.0803479 173.95589478 -55.02709961 172.48022461 C-57.81291798 168.97804309 -60.37312325 167.20743773 -64.86323547 166.63491821 C-65.91166122 166.63889618 -66.96008698 166.64287415 -68.0402832 166.64697266 C-69.23534988 166.64331696 -70.43041656 166.63966125 -71.66169739 166.63589478 C-72.94509506 166.64519012 -74.22849274 166.65448547 -75.55078125 166.6640625 C-76.89211278 166.65990538 -78.23343941 166.65371791 -79.57475281 166.64559937 C-85.25294595 166.61475575 -90.93090623 166.61944526 -96.60913086 166.63964844 C-100.09055878 166.65062405 -103.57124681 166.63725356 -107.05257225 166.60975266 C-109.00888227 166.60173423 -110.96524331 166.62156228 -112.92146301 166.64199829 C-120.30117989 166.58097652 -125.4677185 166.08883416 -131 161 C-136.91211441 154.47663755 -136.68608691 147.67737058 -136.56762695 139.24023438 C-136.56621453 137.85976208 -136.56701226 136.47928604 -136.56983948 135.09881592 C-136.5712675 131.37180205 -136.54197895 127.64560131 -136.50696969 123.91877556 C-136.47560266 120.01640885 -136.47276734 116.11402118 -136.46684265 112.21154785 C-136.45133443 104.83094792 -136.41034735 97.45072061 -136.3600952 90.07028437 C-136.30410721 81.66402377 -136.27669155 73.2577449 -136.25161803 64.85134411 C-136.19942843 47.56734762 -136.11154552 30.28371327 -136 13 C-135.67 13 -135.34 13 -135 13 C-135 55.57 -135 98.14 -135 142 C-98.04 141.67 -61.08 141.34 -23 141 C-26.96 138.525 -26.96 138.525 -31 136 C-36.63019165 129.67517431 -38.48588947 122.12108397 -38.31640625 113.81640625 C-37.41282569 105.77342373 -33.41779651 100.56784013 -27.25390625 95.58984375 C-22.72970495 92.32185931 -19.04076444 91.28288486 -13.46484375 91.56640625 C-8.29202955 92.47636247 -4.30427789 95.13048141 0 98 C0 65.66 0 33.32 0 0 Z " fill="#FB4654" transform="translate(467,16)"/>
<path d="M0 0 C51.48 0 102.96 0 156 0 C156 9.57 156 19.14 156 29 C152.42542969 29.04898437 148.85085938 29.09796875 145.16796875 29.1484375 C141.71276598 29.20241959 138.2576336 29.25973803 134.80249023 29.31738281 C132.39792099 29.35570782 129.99329372 29.39055441 127.58862305 29.421875 C124.13569372 29.46744882 120.6831651 29.5254563 117.23046875 29.5859375 C116.15226364 29.59748871 115.07405853 29.60903992 113.96318054 29.62094116 C112.96236954 29.64081085 111.96155853 29.66068054 110.93041992 29.68115234 C110.04883713 29.69447601 109.16725433 29.70779968 108.25895691 29.7215271 C105.7192217 29.863101 105.7192217 29.863101 103 32 C102.2815961 37.1167253 102.2815961 37.1167253 104.20527649 41.5962677 C106.59776295 43.46753673 108.09417709 43.39581328 111.11401367 43.43237305 C112.15486618 43.45216721 113.19571869 43.47196136 114.26811218 43.49235535 C115.39006485 43.49874527 116.51201752 43.50513519 117.66796875 43.51171875 C119.39289299 43.53864555 119.39289299 43.53864555 121.15266418 43.56611633 C124.83090532 43.62036261 128.50901564 43.65416171 132.1875 43.6875 C134.67905472 43.72066034 137.17059215 43.75514878 139.66210938 43.79101562 C145.77462228 43.87609735 151.88715182 43.94438656 158 44 C157.21375244 44.77633789 156.42750488 45.55267578 155.61743164 46.35253906 C148.50508682 53.54648246 143.451956 62.19217599 141 72 C94.47 72 47.94 72 0 72 C0 62.76 0 53.52 0 44 C2.28131836 43.98541748 4.56263672 43.97083496 6.91308594 43.95581055 C14.44894732 43.90548284 21.98460167 43.83889106 29.52025986 43.76428509 C34.089335 43.71954959 38.65832033 43.68030055 43.22753906 43.65356445 C47.63676503 43.62756309 52.04564593 43.58718336 56.45465851 43.53681374 C58.13712524 43.52012353 59.81965168 43.50862267 61.50218964 43.50238609 C63.85827341 43.49276821 66.21347011 43.46473806 68.56933594 43.43237305 C69.26561096 43.43380814 69.96188599 43.43524323 70.67926025 43.4367218 C73.68076427 43.37837328 75.77342346 43.12163118 78.43707275 41.69172668 C80.35131368 39.94909921 80.35131368 39.94909921 80.4375 36.5 C80.27172477 33.16705584 80.27172477 33.16705584 78.93571472 31.30827332 C75.99796789 29.32276598 73.01848384 29.56069167 69.59106445 29.56762695 C68.83960144 29.5574353 68.08813843 29.54724365 67.31390381 29.53674316 C64.83028773 29.50655112 62.34705693 29.497338 59.86328125 29.48828125 C58.14119682 29.47143912 56.41912471 29.45328951 54.69706726 29.43388367 C50.16466118 29.38632674 45.63230506 29.35655432 41.09973145 29.33044434 C36.47459033 29.30066745 31.84962152 29.2541273 27.22460938 29.20898438 C18.14980975 29.12288638 9.07502834 29.05711931 0 29 C0 19.43 0 9.86 0 0 Z " fill="#C9C2CA" transform="translate(132,313)"/>
<path d="M0 0 C7.77372957 -0.10197178 15.54728468 -0.17170477 23.3215332 -0.21972656 C25.96254929 -0.23975996 28.60352149 -0.26699451 31.24438477 -0.30175781 C35.05496091 -0.350639 38.86494721 -0.37305267 42.67578125 -0.390625 C43.84393875 -0.41127014 45.01209625 -0.43191528 46.21565247 -0.45318604 C57.09623577 -0.45612024 67.08425849 2.1710539 75 10 C82.16148422 18.77281817 84.44011719 27.05381783 84.44140625 38.17578125 C84.46121803 39.74624458 84.46121803 39.74624458 84.48143005 41.34843445 C84.52210498 44.66981756 84.5439491 47.99092507 84.5625 51.3125 C84.58628896 54.65184517 84.61435528 57.99093105 84.65428162 61.3301239 C84.67864046 63.40230752 84.6934975 65.47462917 84.69789124 67.54695129 C84.71317116 68.94937325 84.71317116 68.94937325 84.72875977 70.38012695 C84.73517235 71.61301201 84.73517235 71.61301201 84.74171448 72.87080383 C84.87407841 75.29912111 84.87407841 75.29912111 87 78 C88.65 78.66 90.3 79.32 92 80 C92 86.27 92 92.54 92 99 C89.03 100.485 89.03 100.485 86 102 C84.11368457 103.88631543 84.75734708 107.14200693 84.68359375 109.66015625 C84.66281265 110.32462265 84.64203156 110.98908905 84.62062073 111.6736908 C84.55506342 113.80318543 84.49621215 115.93280668 84.4375 118.0625 C84.39432061 119.50326847 84.35070651 120.94402399 84.30664062 122.38476562 C84.19937607 125.9230404 84.09812629 129.46145869 84 133 C81.07245599 134.463772 78.13422059 134.13370944 74.92599487 134.12025452 C73.82087246 134.12153615 73.82087246 134.12153615 72.69342434 134.12284368 C70.2120958 134.1244975 67.73083409 134.11897871 65.24951172 134.11352539 C63.47584027 134.11324347 61.7021687 134.11340134 59.92849731 134.1139679 C55.10231323 134.11425569 50.27615382 134.1083619 45.44997549 134.10139394 C40.41042804 134.09515736 35.37088006 134.09455636 30.33132935 134.09336853 C20.78324569 134.09025612 11.23517344 134.08204393 1.68709481 134.07201904 C-9.18094156 134.06085513 -20.04897846 134.05534675 -30.91701913 134.05032361 C-53.2780193 134.03986125 -75.63900853 134.02206292 -98 134 C-98 124.1 -98 114.2 -98 104 C-93.6284668 103.98018066 -89.25693359 103.96036133 -84.75292969 103.93994141 C-70.33199777 103.87312506 -55.91113838 103.79558472 -41.4902916 103.71247292 C-32.74435936 103.66233063 -23.99843658 103.6158879 -15.25244141 103.578125 C-7.63028726 103.5452052 -0.0082061 103.50537406 7.61386752 103.45720994 C11.65046551 103.43194482 15.68701508 103.41016358 19.72367096 103.39665604 C23.52231978 103.38383578 27.32080256 103.36178184 31.11935997 103.33261681 C32.51413619 103.32354074 33.90893914 103.31785072 35.30374336 103.31578636 C37.20727371 103.31246422 39.11076691 103.29581137 41.01422119 103.2784729 C42.07981388 103.27294214 43.14540657 103.26741138 44.24328995 103.26171303 C47.05786859 102.99450615 48.66227158 102.56227245 51 101 C53.0244349 97.96334765 53.25201497 97.36540532 53.2784729 93.95674133 C53.28963638 93.1364444 53.30079987 92.31614746 53.31230164 91.47099304 C53.31554192 90.12663933 53.31554192 90.12663933 53.31884766 88.75512695 C53.32889328 87.80859253 53.3389389 86.86205811 53.34928894 85.88684082 C53.38021307 82.75399389 53.39718177 79.62123276 53.4140625 76.48828125 C53.43276672 74.31779741 53.45233956 72.1473209 53.4727478 69.97685242 C53.52415381 64.26077589 53.56373422 58.54467576 53.60089111 52.82849121 C53.64790659 45.97184986 53.70954063 39.11532636 53.76873779 32.25878143 C53.85705321 21.83923497 53.92674393 11.41971228 54 1 C36.18 1 18.36 1 0 1 C0 0.67 0 0.34 0 0 Z " fill="#FCCF5A" transform="translate(385,362)"/>
<path d="M0 0 C68.31 0 136.62 0 207 0 C207 17.16 207 34.32 207 52 C176.05199803 52.11025718 145.10418579 52.20256629 114.15604869 52.25532665 C110.50116753 52.26158007 106.84628679 52.2680517 103.19140625 52.2746582 C102.09998897 52.27662553 102.09998897 52.27662553 100.98652285 52.2786326 C89.20985128 52.30038075 77.43330192 52.33979896 65.65670282 52.38576398 C53.57005918 52.43254518 41.48347948 52.46029889 29.39674902 52.47044247 C22.60893244 52.47668352 15.82137056 52.49167621 9.03364563 52.52865028 C2.64459844 52.56259025 -3.74405756 52.5730567 -10.13318634 52.56553841 C-12.47773108 52.56691381 -14.82228891 52.57685771 -17.16675568 52.59602737 C-20.36991021 52.62093319 -23.57159108 52.61491305 -26.77478027 52.60127258 C-27.70086893 52.61583679 -28.62695758 52.630401 -29.58110952 52.64540654 C-35.87032844 52.57309754 -40.16115528 51.09374672 -45 47 C-51.73529466 38.36500684 -50 34.69705992 -50 22 C34.48 22 118.96 22 206 22 C206 15.07 206 8.14 206 1 C138.02 1 70.04 1 0 1 C0 0.67 0 0.34 0 0 Z " fill="#E0DCE0" transform="translate(65,444)"/>
<path d="M0 0 C6.18889709 4.98758605 10.4221383 10.94459048 14 18 C14.34160156 18.66128906 14.68320312 19.32257813 15.03515625 20.00390625 C19.34478293 30.2467864 18.24430143 44.28892121 14.2578125 54.39453125 C8.28650828 66.76366143 -0.2577914 74.83735032 -13 80 C-24.38743707 83.88481148 -37.19093879 83.46237521 -48.16796875 78.546875 C-52.57571312 76.13933463 -56.33739818 73.43234002 -60 70 C-60.62519531 69.41605469 -61.25039063 68.83210938 -61.89453125 68.23046875 C-71.24860203 58.55033014 -74.43753796 46.39054039 -74.2734375 33.24609375 C-73.19469168 20.43983982 -67.31546458 9.37054865 -57.625 1.0625 C-53.00156606 -2.47939194 -48.51827162 -5.14348111 -43 -7 C-42.36835938 -7.22300781 -41.73671875 -7.44601562 -41.0859375 -7.67578125 C-27.04315491 -11.92328956 -11.85974002 -8.05877558 0 0 Z " fill="#FDDDCE" transform="translate(406,265)"/>
<path d="M0 0 C46.2 0 92.4 0 140 0 C140 9.57 140 19.14 140 29 C93.8 29 47.6 29 0 29 C0 19.43 0 9.86 0 0 Z " fill="#C7C0C8" transform="translate(132,400)"/>
<path d="M0 0 C2.203125 1.640625 2.203125 1.640625 4 4 C4.390625 7.015625 4.390625 7.015625 4.25 10.25 C4.21390625 11.32765625 4.1778125 12.4053125 4.140625 13.515625 C4.09421875 14.33546875 4.0478125 15.1553125 4 16 C4.69867188 16.10699219 5.39734375 16.21398437 6.1171875 16.32421875 C9.40246037 17.09434369 12.10211966 18.31621211 15.125 19.8125 C16.15882812 20.31394531 17.19265625 20.81539062 18.2578125 21.33203125 C21.01532952 23.00932437 22.43694943 24.19840764 24 27 C23.93416738 30.75245951 23.81598805 33.06312483 21.3125 35.9375 C18.22987494 37.35384124 16.36871206 37.47161969 13 37 C10.97386717 35.70672372 8.97485205 34.3703055 7 33 C0.95028889 30.75936626 -4.78314892 29.92771631 -11 32 C-11.99 32.495 -11.99 32.495 -13 33 C-13 35.64 -13 38.28 -13 41 C-6.88041047 44.20864964 -0.83291412 47.13074972 5.6875 49.4375 C14.24246321 52.66482145 21.06953717 57.14975978 25.1875 65.54296875 C27.18288028 71.57707546 26.96867569 77.59455208 24.3125 83.375 C20.45295167 90.01071467 14.54879022 95.10967338 7.125 97.25 C6.09375 97.4975 5.0625 97.745 4 98 C4.05800781 98.73605469 4.11601563 99.47210938 4.17578125 100.23046875 C4.5435454 108.1846819 4.5435454 108.1846819 1.875 112.1875 C-1.52518929 114.3310976 -3.06386313 114.83747593 -7 114 C-9.375 112.25 -9.375 112.25 -11 109 C-11.324353 104.97697651 -11.23117813 101.02635238 -11 97 C-12.2065625 96.9071875 -12.2065625 96.9071875 -13.4375 96.8125 C-21.00133043 95.08741587 -28.67073798 90.49389303 -33 84 C-33.4375 80.5625 -33.4375 80.5625 -33 77 C-30.63507331 74.36479598 -29.1425418 73.14724438 -25.60546875 72.69140625 C-22.30568194 73.08223557 -20.99754944 74.2204239 -18.5 76.375 C-12.49035882 81.51705214 -7.70416013 82.47217761 0.109375 82.30859375 C4.36471191 81.85430778 6.04346999 81.11634244 9 78 C10.03500835 74.06696827 10.28783719 71.86351156 9 68 C6.7285262 66.8723315 6.7285262 66.8723315 4 66 C-0.00725483 64.41331029 -4.00541692 62.80583049 -8 61.1875 C-9.08023438 60.76146484 -10.16046875 60.33542969 -11.2734375 59.89648438 C-16.8972778 57.60181867 -21.14714395 55.75053179 -25 51 C-25.763125 50.154375 -26.52625 49.30875 -27.3125 48.4375 C-30.03842581 42.88468817 -29.96370064 36.82707017 -28.45703125 30.84375 C-25.40717135 23.16012505 -20.30892729 19.31582609 -13 16 C-12.34 16 -11.68 16 -11 16 C-11.04640625 15.18015625 -11.0928125 14.3603125 -11.140625 13.515625 C-11.19476563 11.89914063 -11.19476563 11.89914063 -11.25 10.25 C-11.29640625 9.18265625 -11.3428125 8.1153125 -11.390625 7.015625 C-11 4 -11 4 -9.203125 1.640625 C-6.00510128 -0.74088203 -3.8839311 -0.5548473 0 0 Z " fill="#040404" transform="translate(87,153)"/>
<path d="M0 0 C9.67774667 0.19355493 19.52521368 5.2132791 26.5 11.8125 C30.3875458 16.12459577 33.37897429 20.83143529 36 26 C36.34160156 26.66128906 36.68320312 27.32257813 37.03515625 28.00390625 C41.34478293 38.2467864 40.24430143 52.28892121 36.2578125 62.39453125 C30.28650828 74.76366143 21.7422086 82.83735032 9 88 C-2.70954095 91.99469686 -15.07945677 91.22255298 -26.3984375 86.484375 C-29.08475199 84.95164301 -30.93654174 83.28838498 -33 81 C-32.16597656 80.78085937 -31.33195312 80.56171875 -30.47265625 80.3359375 C-23.00123924 78.23058975 -17.12824422 75.75531782 -11 71 C-9.96875 70.2575 -8.9375 69.515 -7.875 68.75 C1.36442627 59.91228791 7.74874516 47.57974977 8.203125 34.70703125 C8.41802022 21.28087037 6.40607496 11.90061356 0 0 Z " fill="#FDCCBD" transform="translate(384,257)"/>
<path d="M0 0 C1.22673935 -0.01272446 2.4534787 -0.02544891 3.71739197 -0.03855896 C5.07393076 -0.03237672 6.43046768 -0.0257707 7.78700256 -0.01878357 C9.21789439 -0.02584211 10.64877875 -0.03458686 12.07965088 -0.04489136 C15.9640456 -0.06740359 19.84803323 -0.06444142 23.73246837 -0.05556989 C26.97557931 -0.05046141 30.21861366 -0.05775145 33.46171671 -0.06504196 C41.11285659 -0.08204698 48.76379707 -0.07846938 56.41493225 -0.06175232 C64.30743002 -0.04483084 72.19937472 -0.06066416 80.09181207 -0.0929752 C86.86902647 -0.11966915 93.64606868 -0.12694765 100.42333037 -0.11846012 C104.47064808 -0.11353019 108.51763302 -0.11574966 112.56490898 -0.13624763 C116.37119453 -0.15460196 120.17668455 -0.14865024 123.98292732 -0.12404823 C125.37891365 -0.11903935 126.77496057 -0.12253233 128.17089844 -0.13519669 C140.0337092 -0.23429603 140.0337092 -0.23429603 143.37515259 2.82754517 C145.00990295 5.5146637 145.00990295 5.5146637 145.07240295 9.1396637 C143.88626115 12.90740825 143.34954053 13.6146768 140.00990295 15.5146637 C137.24874878 15.89498043 137.24874878 15.89498043 134.01307678 15.90234375 C132.78489227 15.91224838 131.55670776 15.92215302 130.29130554 15.93235779 C128.93318076 15.92811982 127.57505695 15.92356197 126.2169342 15.91871643 C124.78442349 15.92441962 123.35191733 15.93138368 121.91941833 15.93951416 C118.03101541 15.95746531 114.1428379 15.95627373 110.25440598 15.95057178 C107.00872704 15.94748314 103.76309161 15.95356865 100.51741886 15.95961052 C92.86155649 15.97366017 85.2058057 15.97209046 77.54994202 15.96070862 C69.64954833 15.94922286 61.74949392 15.96330957 53.84914494 15.99010509 C47.06686796 16.01224788 40.28469761 16.01890282 33.50238705 16.01302868 C29.45123101 16.00965495 25.40029254 16.01210171 21.34916687 16.02927971 C17.540527 16.04472463 13.7323907 16.04082119 9.9237709 16.02197456 C8.52574893 16.018282 7.12768984 16.02141665 5.729702 16.03186035 C3.82208234 16.0450238 1.91433305 16.03114342 0.00672913 16.01586914 C-1.06104263 16.01565986 -2.12881439 16.01545057 -3.22894287 16.01523495 C-6.69949748 15.38605608 -7.8814262 14.29927123 -9.99009705 11.5146637 C-10.49009705 8.0146637 -10.49009705 8.0146637 -9.99009705 4.5146637 C-6.99393535 0.56060453 -4.86647171 0.01280839 0 0 Z " fill="#020202" transform="translate(157.99009704589844,102.48533630371094)"/>
<path d="M0 0 C6.38157227 2.86494478 10.06230372 7.59342287 13.58984375 13.47265625 C16.15928819 20.30399356 15.77782786 28.66152008 13.02734375 35.34765625 C9.75984842 41.6189543 4.44756101 46.45456934 -2.16015625 49.09765625 C-9.31877721 49.93984695 -14.32508304 49.59122837 -20.28515625 45.34765625 C-27.02126764 39.25821156 -30.28896246 33.01865068 -30.78515625 23.97265625 C-30.55137011 16.93958986 -28.11685674 11.37561321 -23.3125 6.23828125 C-16.23538542 -0.1641925 -9.57907113 -2.73453826 0 0 Z " fill="#050202" transform="translate(384.28515625,40.65234375)"/>
<path d="M0 0 C6.81470202 2.93941693 11.09985774 8.40963581 14.76953125 14.68359375 C17.02296564 22.50433663 16.51118733 29.65629912 13.16015625 37.078125 C9.57376108 43.26993077 4.74272237 47.34554635 -2.16796875 49.37109375 C-8.74072076 50.32194395 -13.67136889 49.04754761 -19.16796875 45.37109375 C-24.61179527 40.91705387 -28.69509671 34.09981414 -29.40625 26.98828125 C-29.62733067 18.81993241 -28.13082869 12.99236701 -22.91796875 6.62109375 C-15.55170405 0.59414991 -9.71588778 -2.81848276 0 0 Z " fill="#040101" transform="translate(458.16796875,108.62890625)"/>
<path d="M0 0 C3.75999106 0.93999776 5.2473603 2.51105689 7.5 5.625 C7.36126464 12.53402074 4.23652363 18.61046854 1.5625 24.875 C1.03721293 26.12206268 0.51274369 27.3694701 -0.01098633 28.6171875 C-1.17849138 31.39557023 -2.35062696 34.1719446 -3.52539062 36.94726562 C-5.69458078 42.07788623 -7.83993871 47.2183693 -9.984375 52.359375 C-18.53299981 72.84107752 -18.53299981 72.84107752 -22.36566162 81.93261719 C-23.15455157 83.8050688 -23.94191508 85.67816396 -24.72808838 87.55175781 C-25.95564272 90.47414799 -27.18990024 93.39362296 -28.42578125 96.3125 C-28.80421677 97.21621338 -29.18265228 98.11992676 -29.57255554 99.05102539 C-29.92671036 99.8836792 -30.28086517 100.71633301 -30.64575195 101.57421875 C-30.95623978 102.30987061 -31.2667276 103.04552246 -31.58662415 103.8034668 C-32.5 105.625 -32.5 105.625 -34.5 107.625 C-41.46328294 108.29886609 -41.46328294 108.29886609 -45 106 C-46.93955381 102.92903981 -46.76682273 101.22615094 -46.5 97.625 C-45.54467773 94.76123047 -45.54467773 94.76123047 -44.18359375 91.7421875 C-43.41958252 90.01887207 -43.41958252 90.01887207 -42.64013672 88.26074219 C-42.36361267 87.65016968 -42.08708862 87.03959717 -41.80218506 86.41052246 C-40.29404845 83.07829319 -38.82375049 79.7293268 -37.34765625 76.3828125 C-37.03473633 75.67600342 -36.72181641 74.96919434 -36.39941406 74.2409668 C-33.0976633 66.76297922 -29.95413436 59.22114996 -26.82589722 51.66928101 C-25.87672049 49.37915112 -24.92432564 47.09038556 -23.97094727 44.80200195 C-21.31343116 38.42017097 -18.66230544 32.03620382 -16.05477905 25.63375854 C-14.8364299 22.6482816 -13.60399344 19.66860783 -12.375 16.6875 C-11.95009277 15.62821289 -11.52518555 14.56892578 -11.08740234 13.47753906 C-6.1341942 1.53354855 -6.1341942 1.53354855 0 0 Z " fill="#050202" transform="translate(434.5,43.375)"/>
<path d="M0 0 C15.84 0 31.68 0 48 0 C48 9.57 48 19.14 48 29 C32.16 29 16.32 29 0 29 C0 19.43 0 9.86 0 0 Z " fill="#C7C0C8" transform="translate(69,400)"/>
<path d="M0 0 C15.84 0 31.68 0 48 0 C48 9.57 48 19.14 48 29 C32.16 29 16.32 29 0 29 C0 19.43 0 9.86 0 0 Z " fill="#C9C2CA" transform="translate(69,313)"/>
<path d="M0 0 C15.84 0 31.68 0 48 0 C48 9.24 48 18.48 48 28 C32.16 28 16.32 28 0 28 C0 18.76 0 9.52 0 0 Z " fill="#CBC4CC" transform="translate(69,357)"/>
<path d="M0 0 C0.66 0 1.32 0 2 0 C2.12443339 4.69554174 2.21472547 9.39010534 2.2746582 14.08691406 C2.29966413 15.68148536 2.33368099 17.27594365 2.37719727 18.87011719 C2.80264925 34.86711167 2.80264925 34.86711167 -1.67919922 40.63330078 C-6.43120141 45.55043725 -10.71749101 47.79404039 -17.61865234 48.22705078 C-18.92785645 48.21657715 -20.23706055 48.20610352 -21.5859375 48.1953125 C-22.28772125 48.1924826 -22.989505 48.18965271 -23.71255493 48.18673706 C-25.93355028 48.17562512 -28.15412845 48.15053834 -30.375 48.125 C-31.88931705 48.11495854 -33.40364049 48.10583473 -34.91796875 48.09765625 C-38.61211258 48.07571554 -42.30601551 48.04124875 -46 48 C-46 47.34 -46 46.68 -46 46 C-44.56077576 44.57954407 -44.56077576 44.57954407 -42.55249023 42.91918945 C-37.85931931 38.92563045 -33.51008666 34.65441078 -29.16015625 30.29296875 C-28.35259384 29.48636307 -27.54503143 28.67975739 -26.71299744 27.84870911 C-25.02187355 26.15826114 -23.33199344 24.46656805 -21.64331055 22.77368164 C-19.04915298 20.1741252 -16.44964575 17.58000325 -13.84960938 14.98632812 C-12.20280389 13.33886258 -10.55630824 11.69108726 -8.91015625 10.04296875 C-8.13108414 9.26592087 -7.35201202 8.48887299 -6.54933167 7.6882782 C-5.83446091 6.97025528 -5.11959015 6.25223236 -4.38305664 5.51245117 C-3.75210587 4.8807048 -3.12115509 4.24895844 -2.47108459 3.59806824 C-0.9094928 2.04960229 -0.9094928 2.04960229 0 0 Z " fill="#DBD8DB" transform="translate(72,71)"/>
<path d="M0 0 C1.08470078 -0.01583633 2.16940155 -0.03167267 3.28697205 -0.04798889 C5.03706322 -0.04054909 5.03706322 -0.04054909 6.82250977 -0.03295898 C8.62740623 -0.04225685 8.62740623 -0.04225685 10.46876526 -0.05174255 C13.01318553 -0.05884593 15.55765223 -0.05565782 18.10205078 -0.04296875 C21.99606909 -0.02911622 25.88767933 -0.06315577 29.78149414 -0.10131836 C32.25349994 -0.10226965 34.72550874 -0.1004102 37.19750977 -0.09545898 C38.36221298 -0.10871719 39.5269162 -0.1219754 40.72691345 -0.13563538 C49.7191274 -0.03203643 49.7191274 -0.03203643 52.84619141 2.84619141 C54.57641602 5.53344727 54.57641602 5.53344727 54.63891602 9.15844727 C53.45562277 12.91714347 52.89054164 13.6175935 49.57641602 15.53344727 C47.03430176 15.92112732 47.03430176 15.92112732 44.13696289 15.9375 C43.04903442 15.95018417 41.96110596 15.96286835 40.84020996 15.97593689 C39.08541321 15.97153343 39.08541321 15.97153343 37.29516602 15.96704102 C36.08953003 15.97228287 34.88389404 15.97752472 33.64172363 15.98292542 C31.09310679 15.98934788 28.54446032 15.98800576 25.99584961 15.97949219 C22.09118035 15.97097945 18.18797207 15.99974804 14.28344727 16.03149414 C11.80818729 16.03310611 9.33292471 16.03252871 6.85766602 16.02954102 C5.68780151 16.04077499 4.51793701 16.05200897 3.31262207 16.06358337 C2.2246936 16.05420242 1.13676514 16.04482147 0.01586914 16.03515625 C-0.94025269 16.03499008 -1.89637451 16.03482391 -2.88146973 16.03465271 C-6.19238249 15.38187029 -7.38101041 14.17517453 -9.42358398 11.53344727 C-9.92358398 8.03344727 -9.92358398 8.03344727 -9.42358398 4.53344727 C-6.551365 0.82425634 -4.63315346 0.03013198 0 0 Z " fill="#020202" transform="translate(157.423583984375,206.466552734375)"/>
<path d="M0 0 C1.62705116 -0.01891296 1.62705116 -0.01891296 3.28697205 -0.03820801 C5.03706322 -0.02606262 5.03706322 -0.02606262 6.82250977 -0.01367188 C8.02577408 -0.01749878 9.22903839 -0.02132568 10.46876526 -0.02526855 C13.01320227 -0.02799033 15.55766714 -0.02061074 18.10205078 -0.00390625 C21.99583427 0.01747882 25.8877685 -0.0036916 29.78149414 -0.02929688 C32.25350342 -0.02665328 34.72551155 -0.02152766 37.19750977 -0.01367188 C38.36221298 -0.0217688 39.5269162 -0.02986572 40.72691345 -0.03820801 C48.76742707 0.0549847 48.76742707 0.0549847 52.81103516 2.3671875 C54.57641602 4.51757812 54.57641602 4.51757812 55.20141602 7.45507812 C54.32315281 11.75856781 53.15143701 12.92259157 49.57641602 15.51757812 C45.45339327 16.26467724 41.37785425 16.19407065 37.19750977 16.14648438 C35.39117821 16.15010231 35.39117821 16.15010231 33.5483551 16.15379333 C31.00567324 16.15281485 28.46297009 16.13942113 25.92041016 16.11450195 C22.02441242 16.08017062 18.13067935 16.09385137 14.23461914 16.11328125 C11.76390634 16.10638365 9.29319941 16.09671205 6.82250977 16.08398438 C5.65578232 16.08894424 4.48905487 16.09390411 3.28697205 16.09901428 C2.20227127 16.08317795 1.1175705 16.06734161 0 16.05102539 C-0.95310562 16.04482681 -1.90621124 16.03862823 -2.88819885 16.03224182 C-6.18671538 15.36266832 -7.38398372 14.15152312 -9.42358398 11.51757812 C-9.92358398 8.01757812 -9.92358398 8.01757812 -9.42358398 4.51757812 C-6.54991555 0.80483116 -4.63677306 0.01548196 0 0 Z " fill="#020202" transform="translate(248.423583984375,244.482421875)"/>
<path d="M0 0 C1.08470078 -0.01583633 2.16940155 -0.03167267 3.28697205 -0.04798889 C5.03706322 -0.04054909 5.03706322 -0.04054909 6.82250977 -0.03295898 C8.62740623 -0.04225685 8.62740623 -0.04225685 10.46876526 -0.05174255 C13.01318553 -0.05884593 15.55765223 -0.05565782 18.10205078 -0.04296875 C21.99606909 -0.02911622 25.88767933 -0.06315577 29.78149414 -0.10131836 C32.25349994 -0.10226965 34.72550874 -0.1004102 37.19750977 -0.09545898 C38.36221298 -0.10871719 39.5269162 -0.1219754 40.72691345 -0.13563538 C49.71904841 -0.03203734 49.71904841 -0.03203734 52.84228516 2.84619141 C54.57641602 5.53344727 54.57641602 5.53344727 54.70141602 9.15844727 C53.57641602 12.53344727 53.57641602 12.53344727 51.34742737 14.21913147 C48.33477479 15.64805989 46.42890684 15.91837488 43.11523438 15.9375 C42.04740219 15.95018417 40.97957001 15.96286835 39.87937927 15.97593689 C38.73654984 15.97300125 37.5937204 15.97006561 36.41625977 15.96704102 C34.64322227 15.97490379 34.64322227 15.97490379 32.83436584 15.98292542 C30.33880397 15.98934164 27.84321183 15.98801383 25.34765625 15.97949219 C21.52427596 15.97097036 17.70238358 15.99977117 13.87915039 16.03149414 C11.45402063 16.03310591 9.02888822 16.03252909 6.60375977 16.02954102 C4.88647926 16.04639198 4.88647926 16.04639198 3.13450623 16.06358337 C2.0698262 16.05420242 1.00514618 16.04482147 -0.09179688 16.03515625 C-1.0271376 16.03499008 -1.96247833 16.03482391 -2.92616272 16.03465271 C-6.20411184 15.37680376 -7.39539433 14.14617605 -9.42358398 11.53344727 C-9.92358398 8.03344727 -9.92358398 8.03344727 -9.42358398 4.53344727 C-6.551365 0.82425634 -4.63315346 0.03013198 0 0 Z " fill="#010101" transform="translate(157.423583984375,168.466552734375)"/>
<path d="M0 0 C1.08470078 -0.01583633 2.16940155 -0.03167267 3.28697205 -0.04798889 C5.03706322 -0.04054909 5.03706322 -0.04054909 6.82250977 -0.03295898 C8.62740623 -0.04225685 8.62740623 -0.04225685 10.46876526 -0.05174255 C13.01318553 -0.05884593 15.55765223 -0.05565782 18.10205078 -0.04296875 C21.99606909 -0.02911622 25.88767933 -0.06315577 29.78149414 -0.10131836 C32.25349994 -0.10226965 34.72550874 -0.1004102 37.19750977 -0.09545898 C38.36221298 -0.10871719 39.5269162 -0.1219754 40.72691345 -0.13563538 C49.71904841 -0.03203734 49.71904841 -0.03203734 52.84228516 2.84619141 C54.57641602 5.53344727 54.57641602 5.53344727 54.70141602 9.15844727 C53.57641602 12.53344727 53.57641602 12.53344727 51.34742737 14.21913147 C48.33477479 15.64805989 46.42890684 15.91837488 43.11523438 15.9375 C42.04740219 15.95018417 40.97957001 15.96286835 39.87937927 15.97593689 C38.73654984 15.97300125 37.5937204 15.97006561 36.41625977 15.96704102 C34.64322227 15.97490379 34.64322227 15.97490379 32.83436584 15.98292542 C30.33880397 15.98934164 27.84321183 15.98801383 25.34765625 15.97949219 C21.52427596 15.97097036 17.70238358 15.99977117 13.87915039 16.03149414 C11.45402063 16.03310591 9.02888822 16.03252909 6.60375977 16.02954102 C4.88647926 16.04639198 4.88647926 16.04639198 3.13450623 16.06358337 C2.0698262 16.05420242 1.00514618 16.04482147 -0.09179688 16.03515625 C-1.0271376 16.03499008 -1.96247833 16.03482391 -2.92616272 16.03465271 C-6.20411184 15.37680376 -7.39539433 14.14617605 -9.42358398 11.53344727 C-9.92358398 8.03344727 -9.92358398 8.03344727 -9.42358398 4.53344727 C-6.551365 0.82425634 -4.63315346 0.03013198 0 0 Z " fill="#020202" transform="translate(157.423583984375,244.466552734375)"/>
<path d="M0 0 C1.08470078 -0.01583633 2.16940155 -0.03167267 3.28697205 -0.04798889 C5.03706322 -0.04054909 5.03706322 -0.04054909 6.82250977 -0.03295898 C8.62740623 -0.04225685 8.62740623 -0.04225685 10.46876526 -0.05174255 C13.01318553 -0.05884593 15.55765223 -0.05565782 18.10205078 -0.04296875 C21.99606909 -0.02911622 25.88767933 -0.06315577 29.78149414 -0.10131836 C32.25349994 -0.10226965 34.72550874 -0.1004102 37.19750977 -0.09545898 C38.36221298 -0.10871719 39.5269162 -0.1219754 40.72691345 -0.13563538 C49.7191274 -0.03203643 49.7191274 -0.03203643 52.84619141 2.84619141 C54.57641602 5.53344727 54.57641602 5.53344727 54.63891602 9.15844727 C53.45562277 12.91714347 52.89054164 13.6175935 49.57641602 15.53344727 C47.03430176 15.92112732 47.03430176 15.92112732 44.13696289 15.9375 C43.04903442 15.95018417 41.96110596 15.96286835 40.84020996 15.97593689 C39.08541321 15.97153343 39.08541321 15.97153343 37.29516602 15.96704102 C36.08953003 15.97228287 34.88389404 15.97752472 33.64172363 15.98292542 C31.09310679 15.98934788 28.54446032 15.98800576 25.99584961 15.97949219 C22.09118035 15.97097945 18.18797207 15.99974804 14.28344727 16.03149414 C11.80818729 16.03310611 9.33292471 16.03252871 6.85766602 16.02954102 C5.68780151 16.04077499 4.51793701 16.05200897 3.31262207 16.06358337 C2.2246936 16.05420242 1.13676514 16.04482147 0.01586914 16.03515625 C-0.94025269 16.03499008 -1.89637451 16.03482391 -2.88146973 16.03465271 C-6.19238249 15.38187029 -7.38101041 14.17517453 -9.42358398 11.53344727 C-9.92358398 8.03344727 -9.92358398 8.03344727 -9.42358398 4.53344727 C-6.551365 0.82425634 -4.63315346 0.03013198 0 0 Z " fill="#020202" transform="translate(248.423583984375,206.466552734375)"/>
<path d="M0 0 C1.08470078 -0.01583633 2.16940155 -0.03167267 3.28697205 -0.04798889 C5.03706322 -0.04054909 5.03706322 -0.04054909 6.82250977 -0.03295898 C8.62740623 -0.04225685 8.62740623 -0.04225685 10.46876526 -0.05174255 C13.01318553 -0.05884593 15.55765223 -0.05565782 18.10205078 -0.04296875 C21.99606909 -0.02911622 25.88767933 -0.06315577 29.78149414 -0.10131836 C32.25349994 -0.10226965 34.72550874 -0.1004102 37.19750977 -0.09545898 C38.36221298 -0.10871719 39.5269162 -0.1219754 40.72691345 -0.13563538 C49.7191274 -0.03203643 49.7191274 -0.03203643 52.84619141 2.84619141 C54.57641602 5.53344727 54.57641602 5.53344727 54.63891602 9.15844727 C53.45562277 12.91714347 52.89054164 13.6175935 49.57641602 15.53344727 C47.03430176 15.92112732 47.03430176 15.92112732 44.13696289 15.9375 C43.04903442 15.95018417 41.96110596 15.96286835 40.84020996 15.97593689 C39.08541321 15.97153343 39.08541321 15.97153343 37.29516602 15.96704102 C36.08953003 15.97228287 34.88389404 15.97752472 33.64172363 15.98292542 C31.09310679 15.98934788 28.54446032 15.98800576 25.99584961 15.97949219 C22.09118035 15.97097945 18.18797207 15.99974804 14.28344727 16.03149414 C11.80818729 16.03310611 9.33292471 16.03252871 6.85766602 16.02954102 C5.68780151 16.04077499 4.51793701 16.05200897 3.31262207 16.06358337 C2.2246936 16.05420242 1.13676514 16.04482147 0.01586914 16.03515625 C-0.94025269 16.03499008 -1.89637451 16.03482391 -2.88146973 16.03465271 C-6.19238249 15.38187029 -7.38101041 14.17517453 -9.42358398 11.53344727 C-9.92358398 8.03344727 -9.92358398 8.03344727 -9.42358398 4.53344727 C-6.551365 0.82425634 -4.63315346 0.03013198 0 0 Z " fill="#010101" transform="translate(248.423583984375,168.466552734375)"/>
<path d="M0 0 C3.05218456 0.91565537 4.65293408 2.43030458 6.55078125 4.96875 C8.17386171 8.01453061 7.98734803 10.39948228 7.5 13.75 C6.09539303 16.62305972 4.75489001 18.49510999 2.5 20.75 C0.1875 21.25 0.1875 21.25 -2.5 20.75 C-5.96591124 17.66919001 -7.80946811 15.43790231 -8.125 10.75 C-7.77463744 5.54461338 -5.18046703 1.55414011 0 0 Z " fill="#F3606A" transform="translate(451.5,122.25)"/>
<path d="M0 0 C3.375 1.1875 3.375 1.1875 5.3125 3.3125 C6.62946444 6.87605084 6.7796929 9.41036628 6.375 13.1875 C4.97039303 16.06055972 3.62989001 17.93260999 1.375 20.1875 C-1.5 20.1875 -1.5 20.1875 -4.625 19.1875 C-7.47686976 16.03543342 -8.51293418 13.88479842 -9.1875 9.6875 C-8.27756202 4.02566371 -6.22404181 0.3219332 0 0 Z " fill="#F3606A" transform="translate(377.625,54.8125)"/>
<path d="M0 0 C1.17436844 2.34873688 2.32329627 4.71107268 3.41015625 7.1015625 C6.88640243 14.51426712 10.4844976 20.27879304 16.27734375 26.20703125 C18 28 18 28 18 29 C12.06 29 6.12 29 0 29 C0 19.43 0 9.86 0 0 Z " fill="#DCD9DC" transform="translate(319,318)"/>
</svg>
